<svg width="1440" height="626" viewBox="0 0 1440 626" fill="none" xmlns="http://www.w3.org/2000/svg">
<rect y="34" width="1440" height="592" fill="#F6EBFF"/>
<path d="M360.643 396.356C360.632 391.262 358.603 386.381 355.001 382.779C351.399 379.177 346.518 377.148 341.424 377.137C339.555 377.142 337.697 377.429 335.914 377.988C336.2 376.029 336.349 374.053 336.361 372.074C336.361 366.728 335.308 361.435 333.261 356.497C331.214 351.558 328.213 347.072 324.431 343.294C320.649 339.516 316.159 336.52 311.219 334.479C306.278 332.437 300.983 331.389 295.638 331.395C293.128 331.39 290.624 331.615 288.156 332.067C284.146 325.483 278.105 320.38 270.944 317.527C263.782 314.673 255.888 314.223 248.448 316.245C241.009 318.266 234.428 322.65 229.696 328.736C224.963 334.821 222.336 342.279 222.209 349.987H221.582C213.1 350.301 205.07 353.891 199.181 360.003C193.291 366.114 190 374.271 190 382.759C190 391.247 193.291 399.404 199.181 405.515C205.07 411.627 213.1 415.217 221.582 415.531H341.962C346.957 415.391 351.702 413.311 355.19 409.731C358.678 406.151 360.634 401.354 360.643 396.356Z" fill="#263238"/>
<path d="M360.643 396.356C360.632 391.262 358.603 386.381 355.001 382.779C351.399 379.177 346.518 377.148 341.424 377.137C339.555 377.142 337.697 377.429 335.914 377.988C336.2 376.029 336.349 374.053 336.361 372.074C336.361 366.728 335.308 361.435 333.261 356.497C331.214 351.558 328.213 347.072 324.431 343.294C320.649 339.516 316.159 336.52 311.219 334.479C306.278 332.437 300.983 331.389 295.638 331.395C293.128 331.39 290.624 331.615 288.156 332.067C284.146 325.483 278.105 320.38 270.944 317.527C263.782 314.673 255.888 314.223 248.448 316.245C241.009 318.266 234.428 322.65 229.696 328.736C224.963 334.821 222.336 342.279 222.209 349.987H221.582C213.1 350.301 205.07 353.891 199.181 360.003C193.291 366.114 190 374.271 190 382.759C190 391.247 193.291 399.404 199.181 405.515C205.07 411.627 213.1 415.217 221.582 415.531H341.962C346.957 415.391 351.702 413.311 355.19 409.731C358.678 406.151 360.634 401.354 360.643 396.356Z" fill="#E8C9FE"/>
<path d="M293.62 380.316H244.743V433.943H232.691L269.159 470.679L305.672 433.943H293.62V380.316Z" fill="#407BFF"/>
<path d="M293.62 380.316H244.743V433.943H232.691L269.159 470.679L305.672 433.943H293.62V380.316Z" fill="#834CCD"/>
<path d="M1344.09 75.6112C1344.09 73.7282 1343.72 71.8633 1343.01 70.1231C1342.29 68.383 1341.23 66.8019 1339.9 65.4705C1338.57 64.139 1336.99 63.0834 1335.25 62.3642C1333.51 61.6449 1331.64 61.2761 1329.76 61.2789C1328.37 61.2815 1326.98 61.4835 1325.64 61.8788C1325.86 60.4602 1325.96 59.0282 1325.97 57.5941C1325.96 53.1374 1324.98 48.736 1323.08 44.7025C1321.19 40.669 1318.43 37.1023 1315 34.2558C1311.57 31.4093 1307.55 29.3528 1303.24 28.2324C1298.93 27.1119 1294.42 26.955 1290.04 27.7727C1287.06 22.8466 1282.55 19.0264 1277.2 16.8903C1271.85 14.7542 1265.95 14.4185 1260.4 15.9341C1254.84 17.4496 1249.93 20.7338 1246.41 25.2897C1242.88 29.8456 1240.94 35.4251 1240.87 41.1838H1240.44C1233.96 41.1838 1227.74 43.7591 1223.16 48.3433C1218.58 52.9274 1216 59.1449 1216 65.6278C1216 72.1108 1218.58 78.3283 1223.16 82.9125C1227.74 87.4966 1233.96 90.0719 1240.44 90.0719H1330.17C1333.92 89.9655 1337.48 88.391 1340.08 85.6869C1342.69 82.9828 1344.13 79.365 1344.09 75.6112Z" fill="#263238"/>
<path d="M1344.09 75.6112C1344.09 73.7282 1343.72 71.8633 1343.01 70.1231C1342.29 68.383 1341.23 66.8019 1339.9 65.4705C1338.57 64.139 1336.99 63.0834 1335.25 62.3642C1333.51 61.6449 1331.64 61.2761 1329.76 61.2789C1328.37 61.2815 1326.98 61.4835 1325.64 61.8788C1325.86 60.4602 1325.96 59.0282 1325.97 57.5941C1325.96 53.1374 1324.98 48.736 1323.08 44.7025C1321.19 40.669 1318.43 37.1023 1315 34.2558C1311.57 31.4093 1307.55 29.3528 1303.24 28.2324C1298.93 27.1119 1294.42 26.955 1290.04 27.7727C1287.06 22.8466 1282.55 19.0264 1277.2 16.8903C1271.85 14.7542 1265.95 14.4185 1260.4 15.9341C1254.84 17.4496 1249.93 20.7338 1246.41 25.2897C1242.88 29.8456 1240.94 35.4251 1240.87 41.1838H1240.44C1233.96 41.1838 1227.74 43.7591 1223.16 48.3433C1218.58 52.9274 1216 59.1449 1216 65.6278C1216 72.1108 1218.58 78.3283 1223.16 82.9125C1227.74 87.4966 1233.96 90.0719 1240.44 90.0719H1330.17C1333.92 89.9655 1337.48 88.391 1340.08 85.6869C1342.69 82.9828 1344.13 79.365 1344.09 75.6112Z" fill="#E8C9FE"/>
<path d="M1259.68 116.724H1296.1V76.7481H1305.1L1277.89 49.3477L1250.7 76.7481H1259.68V116.724Z" fill="#407BFF"/>
<path d="M1259.68 116.724H1296.1V76.7481H1305.1L1277.89 49.3477L1250.7 76.7481H1259.68V116.724Z" fill="#834CCD"/>
<path opacity="0.7" d="M367.81 54.8331C367.81 53.1291 367.473 51.4418 366.82 49.868C366.167 48.2942 365.209 46.8649 364.002 45.6621C362.795 44.4592 361.362 43.5064 359.786 42.8584C358.21 42.2104 356.522 41.8798 354.818 41.8857C353.559 41.8851 352.306 42.0661 351.099 42.4233C351.318 41.1057 351.423 39.7717 351.413 38.4361C351.413 31.1643 348.524 24.1905 343.382 19.0486C338.24 13.9067 331.266 11.0181 323.995 11.0181C322.295 11.0219 320.6 11.1869 318.932 11.5109C316.23 7.0699 312.158 3.62764 307.329 1.70313C302.5 -0.221389 297.177 -0.523843 292.161 0.84134C287.145 2.20652 282.709 5.16535 279.522 9.27172C276.334 13.3781 274.568 18.4094 274.49 23.607H274.087C268.229 23.607 262.611 25.934 258.469 30.0761C254.327 34.2182 252 39.836 252 45.6938C252 51.5516 254.327 57.1694 258.469 61.3115C262.611 65.4535 268.229 67.7805 274.087 67.7805H355.221C358.588 67.676 361.784 66.2672 364.133 63.8516C366.481 61.436 367.8 58.2024 367.81 54.8331Z" fill="#E8C9FE"/>
<path opacity="0.7" d="M1115.1 353.648H1180.51C1180.33 352.072 1180.24 350.486 1180.24 348.899C1180.24 337.504 1184.76 326.573 1192.8 318.503C1200.85 310.433 1211.77 305.881 1223.16 305.846H1224.73C1227.84 297.453 1233.81 290.424 1241.59 285.993C1249.36 281.562 1258.45 280.012 1267.26 281.617C1276.07 283.221 1284.03 287.876 1289.74 294.764C1295.46 301.653 1298.56 310.335 1298.52 319.286C1307.51 319.706 1316.04 323.455 1322.43 329.805C1328.82 336.154 1332.62 344.652 1333.1 353.648H1335.16C1340.08 353.886 1344.72 356.008 1348.12 359.574C1351.52 363.139 1353.41 367.875 1353.41 372.8C1353.41 377.725 1351.52 382.462 1348.12 386.027C1344.72 389.593 1340.08 391.715 1335.16 391.953H1115.1C1112.51 392.078 1109.92 391.676 1107.48 390.77C1105.05 389.864 1102.83 388.473 1100.95 386.683C1099.07 384.892 1097.57 382.738 1096.55 380.352C1095.53 377.966 1095 375.397 1095 372.8C1095 370.204 1095.53 367.635 1096.55 365.249C1097.57 362.863 1099.07 360.709 1100.95 358.918C1102.83 357.127 1105.05 355.737 1107.48 354.831C1109.92 353.925 1112.51 353.523 1115.1 353.648Z" fill="#E8C9FE"/>
</svg>
