<svg width="683" height="434" viewBox="0 0 683 434" fill="none" xmlns="http://www.w3.org/2000/svg">
<g clip-path="url(#clip0_216_2675)">
<path d="M0 0C225.39 0 450.78 0 683 0C683 143.22 683 286.44 683 434C457.61 434 232.22 434 0 434C0 290.78 0 147.56 0 0Z" fill="url(#paint0_linear_216_2675)"/>
<path d="M214 178C214.99 178.33 215.98 178.66 217 179C218.117 181.336 219.053 183.578 219.938 186C220.464 187.379 220.991 188.758 221.52 190.137C221.773 190.805 222.026 191.473 222.288 192.162C223.16 194.414 224.123 196.615 225.125 198.812C226.465 201.762 227.697 204.732 228.875 207.75C230.415 211.663 232.135 215.451 233.938 219.25C236.036 223.729 237.832 228.197 239.438 232.875C241.416 238.607 243.784 243.995 246.407 249.449C248.855 254.575 250.892 259.806 252.879 265.129C254.111 268.283 255.543 271.257 257.105 274.258C258.566 277.102 259.772 280.051 261 283C261.625 284.45 261.625 284.45 262.262 285.93C262.937 287.511 262.937 287.511 263.625 289.125C264.05 290.118 264.476 291.11 264.914 292.133C265.912 294.768 266.543 297.226 267 300C257.793 296.496 249.379 291.125 241 286C242.114 289.341 243.599 292.292 245.188 295.438C245.823 296.699 246.458 297.961 247.094 299.223C247.413 299.856 247.733 300.489 248.062 301.141C249.445 303.882 250.816 306.629 252.188 309.375C252.668 310.337 253.149 311.298 253.645 312.289C255.43 315.859 257.215 319.43 259 323C260.566 319.98 261.876 316.913 263.125 313.75C263.478 312.858 263.831 311.966 264.195 311.047C264.461 310.371 264.726 309.696 265 309C265.66 309 266.32 309 267 309C267.102 308.456 267.203 307.912 267.308 307.352C268.486 301.528 270.312 296.31 272.688 290.875C273.043 290.046 273.398 289.217 273.764 288.363C275.895 283.424 278.13 278.546 280.438 273.688C285.049 263.973 288.995 253.977 293 244C293.66 244 294.32 244 295 244C295.252 244.625 295.503 245.249 295.763 245.893C296.922 248.763 298.086 251.632 299.25 254.5C299.844 255.973 299.844 255.973 300.449 257.477C302.494 262.504 304.649 267.393 307.128 272.22C308.462 274.943 309.435 277.766 310.438 280.625C313.469 288.999 317.012 297.15 320.562 305.312C320.842 305.955 321.121 306.598 321.409 307.261C327.432 321.256 327.432 321.256 334 335C339.264 323.896 344.213 312.75 348.562 301.25C350.437 296.319 352.533 291.66 355 287C360.288 293.345 362.9 301.193 365.773 308.816C367.101 312.263 368.557 315.627 370.086 318.988C371.441 321.971 372.717 324.986 374 328C376.42 325.58 377.018 323.591 378.188 320.375C380.073 315.35 382.077 310.408 384.25 305.5C387.192 298.853 390.079 292.184 392.938 285.5C393.339 284.561 393.741 283.622 394.155 282.654C395.104 280.436 396.052 278.218 397 276C397.99 276 398.98 276 400 276C404.093 284.769 407.714 293.679 411.25 302.684C414.922 311.966 419.035 321.006 423.301 330.027C424 332 424 332 424 336C424.66 336 425.32 336 426 336C426.33 336.66 426.66 337.32 427 338C428.98 333.71 430.96 329.42 433 325C436 326 436 326 436.957 327.758C437.239 328.539 437.522 329.32 437.812 330.125C438.152 331.027 438.491 331.93 438.84 332.859C439.223 333.896 439.606 334.932 440 336C440.949 338.463 441.904 340.921 442.875 343.375C443.255 344.338 443.255 344.338 443.643 345.32C445.688 350.41 448.093 355.258 450.617 360.129C452.46 363.955 453.825 367.885 455.141 371.918C455.806 374.177 455.806 374.177 458 375C458.437 373.927 458.437 373.927 458.883 372.832C462.056 365.12 465.457 357.549 469 350C469.66 350 470.32 350 471 350C471.262 350.615 471.524 351.23 471.794 351.864C472.987 354.66 474.181 357.455 475.375 360.25C475.788 361.218 476.2 362.186 476.625 363.184C477.025 364.118 477.424 365.053 477.836 366.016C478.203 366.874 478.569 367.733 478.947 368.618C479.958 370.984 479.958 370.984 481.135 373.124C482 375 482 375 482 378C482.66 378 483.32 378 484 378C484.255 377.165 484.255 377.165 484.516 376.312C485.734 372.476 487 368.817 488.875 365.25C491.27 360.672 493.035 355.881 494.852 351.051C495.867 348.352 496.919 345.673 498 343C498.66 343 499.32 343 500 343C500.103 342.134 500.206 341.268 500.312 340.375C501.034 336.833 502.271 334.157 504 331C507.334 334.821 508.975 339.303 510.875 343.938C511.227 344.784 511.579 345.631 511.942 346.503C514.376 352.386 516.667 358.312 518.91 364.27C520.144 367.361 521.606 370.268 523.152 373.211C524.499 376.053 525.239 378.955 526 382C524.728 381.378 523.457 380.752 522.188 380.125C521.48 379.777 520.772 379.429 520.043 379.07C518 378 518 378 515 376C517.31 380.29 519.62 384.58 522 389C522.66 388.01 523.32 387.02 524 386C524.981 384.981 525.977 383.976 527 383C531.408 392.41 531.408 392.41 532 397C534.615 394.634 536.264 392.058 538 389C535.03 389.99 535.03 389.99 532 391C533.345 386.598 534.729 382.333 536.875 378.25C539.321 373.584 541.103 368.685 542.949 363.758C544 361 544 361 545 359C545.66 359 546.32 359 547 359C547.818 361.061 548.629 363.123 549.438 365.188C549.89 366.336 550.342 367.485 550.809 368.668C551.811 371.471 552.52 374.071 553 377C553.66 377 554.32 377 555 377C556.257 379.906 557 381.796 557 385C557.66 385 558.32 385 559 385C559.182 384.432 559.364 383.863 559.551 383.277C560.902 379.127 562.323 375.087 564.117 371.102C564.863 369.326 565.538 367.521 566.195 365.711C566.841 363.936 566.841 363.936 567.5 362.125C567.902 360.993 568.304 359.861 568.719 358.695C569.142 357.806 569.564 356.916 570 356C570.99 355.67 571.98 355.34 573 355C573.266 355.626 573.531 356.253 573.805 356.898C574.158 357.716 574.511 358.533 574.875 359.375C575.223 360.187 575.571 360.999 575.93 361.836C576.924 364.138 576.924 364.138 579 366C579.291 365.357 579.583 364.714 579.883 364.051C582.25 358.834 584.639 353.629 587.062 348.438C590.032 342.007 592.676 335.502 595.18 328.879C598.399 320.391 601.902 312.103 606 304C608.862 307.37 610.339 311.037 611.875 315.125C613.96 320.521 616.262 325.676 618.918 330.82C620.556 334.121 621.761 337.535 623 341C625.355 347.346 627.683 353.618 630.82 359.621C632.574 363.157 634.159 366.763 635.75 370.375C636.068 371.09 636.386 371.805 636.714 372.542C639 377.761 639 377.761 639 380C639.66 380 640.32 380 641 380C641.66 378.68 642.32 377.36 643 376C652 390.667 652 390.667 652 398C652.66 398 653.32 398 654 398C654.247 397.154 654.495 396.309 654.75 395.438C656.14 391.616 657.911 388.481 660 385C659.278 385.289 658.556 385.577 657.812 385.875C655.208 386.917 652.604 387.958 650 389C653.386 378.554 657.67 368.498 662.378 358.59C665.437 352.137 668.231 345.582 671 339C677.536 345.536 679.5 355.445 683 364C683 387.1 683 410.2 683 434C457.61 434 232.22 434 0 434C0 374.6 0 315.2 0 254C1.779 256.668 3.05971 259.151 4.375 262.062C4.77461 262.94 5.17422 263.818 5.58594 264.723C7.08773 268.203 8.49339 271.714 9.89355 275.237C11.8631 280.156 13.9016 285.046 15.9375 289.938C16.563 291.449 16.563 291.449 17.2012 292.99C21.1514 302.484 25.3318 311.836 30 321C30.3029 320.273 30.6059 319.546 30.918 318.797C31.8025 316.674 32.688 314.552 33.5742 312.43C34.4801 310.25 35.3794 308.068 36.2695 305.883C38.9076 299.434 41.7858 293.182 45 287C48.3277 289.668 49.4388 293.19 50.875 297.062C52.5903 301.53 54.3437 305.876 56.5625 310.125C58.8835 314.614 60.6384 319.207 62.3945 323.941C63.6808 327.291 65.1152 330.562 66.5742 333.84C67.0335 334.873 67.4928 335.907 67.9661 336.972C68.8979 339.057 69.8378 341.139 70.7859 343.218C71.4294 344.661 71.4294 344.661 72.0859 346.133C72.4783 346.998 72.8707 347.863 73.2749 348.754C74 351 74 351 73 354C68.71 351.69 64.42 349.38 60 347C61.915 350.688 63.8319 354.376 65.75 358.062C66.2888 359.101 66.8277 360.139 67.3828 361.209C69.6474 365.559 71.9046 369.893 74.3906 374.121C76 377 76 377 76 379C76.66 379 77.32 379 78 379C78.1702 378.455 78.3403 377.909 78.5156 377.348C80.0172 372.675 81.7338 368.222 83.7734 363.762C85.3813 360.142 86.8763 356.479 88.375 352.812C91.053 346.271 93.798 339.764 96.5977 333.273C97.9445 330.13 99.258 326.974 100.562 323.812C102.911 318.147 105.425 312.566 108 307C108.66 307 109.32 307 110 307C111.4 310.227 112.795 313.457 114.188 316.688C114.599 317.641 115.01 318.595 115.434 319.577C118.155 325.924 120.701 332.293 123.027 338.797C123.792 341.161 123.792 341.161 126 342C126.159 341.466 126.317 340.933 126.48 340.383C127.79 336.199 129.269 332.32 131.312 328.438C133.57 324.084 135.321 319.66 137 315.062C139.027 309.518 141.212 304.129 143.715 298.777C147.431 290.746 150.806 282.562 154.055 274.332C155.604 270.511 157.295 266.754 159 263C159.66 263 160.32 263 161 263C163.64 268.94 166.28 274.88 169 281C169.66 281 170.32 281 171 281C171.326 280.047 171.652 279.095 171.988 278.113C172.429 276.846 172.871 275.579 173.312 274.312C173.742 273.071 174.171 271.83 174.613 270.551C175.836 267.42 177.247 264.847 179 262C179.829 259.882 179.829 259.882 180.438 257.75C181.39 254.757 182.434 251.914 183.75 249.062C185.84 244.515 187.597 239.863 189.375 235.188C191.362 229.987 193.422 224.943 196 220C198.921 214.399 201.148 208.629 203.384 202.732C205.599 196.925 208.061 191.31 210.738 185.699C211.924 183.163 212.988 180.609 214 178Z" fill="#221B62"/>
<path d="M0 254C1.779 256.668 3.05971 259.151 4.375 262.062C4.97441 263.379 4.97441 263.379 5.58594 264.723C7.08773 268.203 8.49339 271.714 9.89355 275.237C11.8631 280.156 13.9016 285.046 15.9375 289.938C16.563 291.449 16.563 291.449 17.2012 292.99C21.1514 302.484 25.3318 311.836 30 321C30.3029 320.273 30.6059 319.546 30.918 318.797C31.8025 316.674 32.688 314.552 33.5742 312.43C34.4801 310.25 35.3794 308.068 36.2695 305.883C38.9076 299.434 41.7858 293.182 45 287C48.3277 289.668 49.4388 293.19 50.875 297.062C52.5903 301.53 54.3437 305.876 56.5625 310.125C58.8835 314.614 60.6384 319.207 62.3945 323.941C63.6808 327.291 65.1152 330.562 66.5742 333.84C67.0335 334.873 67.4928 335.907 67.9661 336.972C68.8979 339.057 69.8378 341.139 70.7859 343.218C71.2149 344.18 71.6439 345.142 72.0859 346.133C72.4783 346.998 72.8707 347.863 73.2749 348.754C74 351 74 351 73 354C68.71 351.69 64.42 349.38 60 347C61.915 350.688 63.8319 354.376 65.75 358.062C66.2888 359.101 66.8277 360.139 67.3828 361.209C69.6474 365.559 71.9046 369.893 74.3906 374.121C76 377 76 377 76 379C76.66 379 77.32 379 78 379C78.1702 378.455 78.3403 377.909 78.5156 377.348C80.0172 372.675 81.7338 368.222 83.7734 363.762C85.3813 360.142 86.8763 356.479 88.375 352.812C91.053 346.271 93.798 339.764 96.5977 333.273C97.9445 330.13 99.258 326.974 100.562 323.812C102.911 318.147 105.425 312.566 108 307C108.66 307 109.32 307 110 307C111.4 310.227 112.795 313.457 114.188 316.688C114.599 317.641 115.01 318.595 115.434 319.577C118.155 325.924 120.701 332.293 123.027 338.797C123.792 341.161 123.792 341.161 126 342C126.159 341.466 126.317 340.933 126.48 340.383C127.79 336.199 129.269 332.32 131.312 328.438C133.57 324.084 135.321 319.66 137 315.062C139.027 309.518 141.212 304.129 143.715 298.777C147.431 290.746 150.806 282.562 154.055 274.332C155.604 270.511 157.295 266.754 159 263C159.66 263 160.32 263 161 263C161.348 263.81 161.348 263.81 161.703 264.636C162.753 267.073 163.814 269.505 164.875 271.938C165.422 273.213 165.422 273.213 165.98 274.514C166.335 275.323 166.689 276.131 167.055 276.965C167.542 278.088 167.542 278.088 168.039 279.234C168.878 281.177 168.878 281.177 171 282C171 282.66 171 283.32 171 284C170.34 284 169.68 284 169 284C169.33 285.65 169.66 287.3 170 289C170.66 289 171.32 289 172 289C172.33 290.65 172.66 292.3 173 294C174.132 293.35 175.264 292.701 176.43 292.031C177.911 291.187 179.393 290.344 180.875 289.5C181.621 289.071 182.368 288.641 183.137 288.199C183.852 287.793 184.568 287.387 185.305 286.969C185.965 286.592 186.624 286.215 187.304 285.826C189 285 189 285 191 285C189.189 289.781 186.888 294.283 184.566 298.828C183.697 300.545 182.848 302.272 182 304C181.536 304.846 181.072 305.691 180.594 306.562C179.715 310.169 181.196 311.825 183 315C183.514 316.27 184.001 317.551 184.465 318.84C184.708 319.511 184.951 320.182 185.201 320.873C185.69 322.245 186.177 323.617 186.662 324.99C187.906 328.413 189.247 331.573 191.094 334.719C192.653 337.402 193.7 339.618 194.562 342.562C195.44 345.412 196.338 347.64 197.75 350.312C199 353 199 353 198 357C193.71 354.69 189.42 352.38 185 350C184.67 351.32 184.34 352.64 184 354C183.34 354 182.68 354 182 354C182.598 354.846 183.196 355.691 183.812 356.562C185.698 359.228 186.91 362.061 188.168 365.067C189.611 368.419 191.243 371.675 192.875 374.938C193.4 375.993 193.4 375.993 193.936 377.07C195.772 380.717 197.677 384.217 199.938 387.625C201.957 390.93 202.713 393.172 203 397C203.66 397 204.32 397 205 397C205.99 399.97 206.98 402.94 208 406C207.14 405.553 206.28 405.105 205.395 404.645C197.42 400.548 189.444 397.044 181 394C181.701 394.928 182.402 395.856 183.125 396.812C186.005 400.821 188.285 405.081 190.57 409.449C191.921 412.012 191.921 412.012 193.68 414.145C195 416 195 416 195 419C195.66 419 196.32 419 197 419C197.982 420.936 198.96 422.874 199.938 424.812C200.483 425.891 201.028 426.97 201.59 428.082C203 431 203 431 204 434C136.68 434 69.36 434 0 434C0 374.6 0 315.2 0 254Z" fill="#363380"/>
<path d="M293 244C293.66 244 294.32 244 295 244C295.252 244.625 295.503 245.249 295.763 245.893C296.922 248.763 298.086 251.632 299.25 254.5C299.646 255.482 300.041 256.465 300.449 257.477C302.494 262.504 304.649 267.393 307.128 272.22C308.462 274.943 309.435 277.766 310.438 280.625C313.469 288.999 317.012 297.15 320.562 305.312C320.842 305.955 321.121 306.598 321.409 307.261C323.258 311.514 325.126 315.758 327 320C327.465 321.064 327.93 322.128 328.41 323.224C329.056 324.681 329.056 324.681 329.715 326.168C330.086 327.01 330.457 327.852 330.84 328.719C331.949 331.065 331.949 331.065 333.643 333.177C335 335 335 335 335 337C334.34 337 333.68 337 333 337C333.247 337.722 333.495 338.444 333.75 339.188C334.095 343.07 332.43 344.069 330 347C329.203 350.188 329.203 350.188 329 353C329.66 353.33 330.32 353.66 331 354C329.35 354.33 327.7 354.66 326 355C325.629 356.176 325.629 356.176 325.25 357.375C323.661 361.984 321.838 366.485 320 371C320.887 370.381 321.774 369.762 322.688 369.125C326 367 326 367 328.812 366C331.202 365.217 331.202 365.217 331.812 362.875C331.874 362.256 331.936 361.637 332 361C333.98 361 335.96 361 338 361C337.01 363.97 336.02 366.94 335 370C334.34 370 333.68 370 333 370C333 371.32 333 372.64 333 374C332.34 374 331.68 374 331 374C330.818 374.904 330.636 375.807 330.449 376.738C330.198 377.918 329.946 379.097 329.688 380.312C329.444 381.484 329.2 382.656 328.949 383.863C328.037 386.878 327.53 388.199 325 390C324.34 390 323.68 390 323 390C322.732 391.011 322.464 392.021 322.188 393.062C321.106 396.873 319.621 400.389 318 404C317.34 404 316.68 404 316 404C315.897 404.557 315.794 405.114 315.688 405.688C314.869 408.44 313.505 410.566 312 413C312.748 412.651 313.495 412.301 314.266 411.941C315.25 411.486 316.235 411.031 317.25 410.562C318.225 410.11 319.199 409.658 320.203 409.191C322.493 408.216 324.574 407.503 327 407C327 406.34 327 405.68 327 405C329.97 404.01 332.94 403.02 336 402C335.67 403.65 335.34 405.3 335 407C334.34 407 333.68 407 333 407C332.724 407.731 332.448 408.462 332.164 409.215C330.693 412.733 328.845 415.833 326.78 419.034C324.936 421.954 324.936 421.954 323.667 425.116C321.812 428.89 320.212 431.253 317 434C311.109 435.874 304.778 435.473 298.672 435.235C295.742 435.125 292.823 435.112 289.891 435.113C288.026 435.084 286.161 435.049 284.297 435.008C283.424 435.001 282.551 434.994 281.652 434.988C279.283 434.876 277.262 434.713 275 434C272.551 431.131 272.551 431.131 271 428C270.305 426.975 269.61 425.95 268.895 424.895C268.207 423.877 267.52 422.86 266.812 421.812C266.118 420.788 265.423 419.763 264.707 418.707C263 416 263 416 262 413C263.65 413.33 265.3 413.66 267 414C267 414.66 267 415.32 267 416C267.959 416.155 267.959 416.155 268.938 416.312C276.111 417.923 282.511 420.578 289 424C288.505 421.525 288.505 421.525 288 419C287.34 419 286.68 419 286 419C284.273 416.48 284.273 416.48 282.375 413.188C281.743 412.109 281.112 411.03 280.461 409.918C279 407 279 407 279 404C278.34 404 277.68 404 277 404C276.67 403.01 276.34 402.02 276 401C275.34 400.67 274.68 400.34 274 400C273.105 398.398 273.105 398.398 272.188 396.375C270.773 393.402 269.23 390.818 267.25 388.188C265 385 265 385 265 382C264.34 382 263.68 382 263 382C262.206 380.439 261.415 378.876 260.625 377.312C260.184 376.442 259.743 375.572 259.289 374.676C258.073 372.152 257.007 369.613 256 367C255.34 367 254.68 367 254 367C253.591 365.998 253.183 364.997 252.762 363.965C251.058 359.99 248.995 356.291 246.812 352.562C246.444 351.926 246.076 351.29 245.697 350.635C244.802 349.088 243.901 347.544 243 346C246.262 347.058 249.364 348.162 252.5 349.562C255.741 350.894 258.539 351.578 262 352C262 352.99 262 353.98 262 355C263.485 355.402 263.485 355.402 265 355.812C269.096 356.977 273.028 358.467 277 360C277 359.01 277 358.02 277 357C276.34 357 275.68 357 275 357C273.494 353.878 271.996 350.752 270.5 347.625C270.071 346.736 269.641 345.846 269.199 344.93C268.793 344.079 268.387 343.228 267.969 342.352C267.592 341.566 267.215 340.781 266.826 339.971C266 338 266 338 266 336C265.34 336 264.68 336 264 336C263.734 335.29 263.469 334.579 263.195 333.848C262.666 332.469 262.666 332.469 262.125 331.062C261.603 329.688 261.603 329.688 261.07 328.285C260.218 325.851 260.218 325.851 258 325C258.635 323.73 259.277 322.464 259.93 321.203C261.117 318.759 262.127 316.278 263.125 313.75C263.478 312.858 263.831 311.966 264.195 311.047C264.461 310.371 264.726 309.696 265 309C265.66 309 266.32 309 267 309C267.102 308.456 267.203 307.912 267.308 307.352C268.486 301.528 270.312 296.31 272.688 290.875C273.22 289.631 273.22 289.631 273.764 288.363C275.895 283.424 278.13 278.546 280.438 273.688C285.049 263.973 288.995 253.977 293 244Z" fill="#373381"/>
<path d="M159 263C159.66 263 160.32 263 161 263C161.232 263.54 161.464 264.08 161.703 264.636C162.753 267.073 163.814 269.505 164.875 271.938C165.24 272.788 165.605 273.638 165.98 274.514C166.335 275.323 166.689 276.131 167.055 276.965C167.542 278.088 167.542 278.088 168.039 279.234C168.878 281.177 168.878 281.177 171 282C171 282.66 171 283.32 171 284C170.34 284 169.68 284 169 284C169.495 286.475 169.495 286.475 170 289C170.66 289 171.32 289 172 289C172.495 291.475 172.495 291.475 173 294C174.132 293.35 175.264 292.701 176.43 292.031C177.911 291.187 179.393 290.344 180.875 289.5C181.621 289.071 182.368 288.641 183.137 288.199C183.852 287.793 184.568 287.387 185.305 286.969C185.965 286.592 186.624 286.215 187.304 285.826C189 285 189 285 191 285C189.189 289.781 186.888 294.283 184.566 298.828C183.697 300.545 182.848 302.272 182 304C181.536 304.846 181.072 305.691 180.594 306.562C179.715 310.169 181.196 311.825 183 315C183.514 316.27 184.001 317.551 184.465 318.84C184.708 319.511 184.951 320.182 185.201 320.873C185.69 322.245 186.177 323.617 186.662 324.99C187.906 328.413 189.247 331.573 191.094 334.719C192.653 337.402 193.7 339.618 194.562 342.562C195.44 345.412 196.338 347.64 197.75 350.312C199 353 199 353 198 357C193.71 354.69 189.42 352.38 185 350C184.505 351.98 184.505 351.98 184 354C183.34 354 182.68 354 182 354C182.598 354.846 183.196 355.691 183.812 356.562C185.698 359.228 186.91 362.061 188.168 365.067C189.611 368.419 191.243 371.675 192.875 374.938C193.225 375.641 193.575 376.345 193.936 377.07C195.772 380.717 197.677 384.217 199.938 387.625C201.957 390.93 202.713 393.172 203 397C203.66 397 204.32 397 205 397C205.99 399.97 206.98 402.94 208 406C207.14 405.553 206.28 405.105 205.395 404.645C197.42 400.548 189.444 397.044 181 394C181.701 394.928 182.403 395.856 183.125 396.812C186.005 400.821 188.285 405.081 190.57 409.449C191.921 412.012 191.921 412.012 193.68 414.145C195 416 195 416 195 419C195.66 419 196.32 419 197 419C197.982 420.936 198.96 422.874 199.938 424.812C200.483 425.891 201.028 426.97 201.59 428.082C203 431 203 431 204 434C195.777 434.255 187.555 434.451 179.329 434.57C175.509 434.627 171.691 434.705 167.872 434.83C164.182 434.95 160.495 435.015 156.804 435.044C155.4 435.064 153.996 435.103 152.593 435.163C148.188 435.343 144.226 435.317 140 434C136.721 430.721 134.931 427.174 133 423C132.046 421.463 131.071 419.939 130.062 418.438C128 415.248 128 415.248 128 413C133.39 413.529 137.242 415.463 141.875 418.062C142.908 418.628 142.908 418.628 143.961 419.205C145.645 420.129 147.323 421.063 149 422C148.23 420.604 147.459 419.208 146.688 417.812C146.234 416.991 145.78 416.17 145.312 415.324C144.318 413.564 143.266 411.835 142.188 410.125C141 408 141 408 141 405C140.34 405 139.68 405 139 405C138.511 403.913 138.511 403.913 138.012 402.805C135.209 396.6 135.209 396.6 132.188 390.5C131 388 131 388 131 385C130.34 385 129.68 385 129 385C128.34 382.36 127.68 379.72 127 377C126.34 377 125.68 377 125 377C125 376.01 125 375.02 125 374C125.66 374 126.32 374 127 374C127 374.66 127 375.32 127 376C128.516 376.371 128.516 376.371 130.062 376.75C134.123 377.745 137.427 379.89 141 382C140.748 381.447 140.497 380.893 140.237 380.323C139.073 377.758 137.911 375.191 136.75 372.625C136.354 371.755 135.959 370.885 135.551 369.988C132.869 364.052 130.377 358.064 128 352C127.374 350.434 127.374 350.434 126.734 348.836C125.823 346.557 124.911 344.279 124 342C124.66 342 125.32 342 126 342C126.159 341.466 126.317 340.933 126.48 340.383C127.79 336.199 129.269 332.32 131.312 328.438C133.57 324.084 135.321 319.66 137 315.062C139.027 309.518 141.212 304.129 143.715 298.777C147.431 290.746 150.806 282.562 154.055 274.332C155.604 270.511 157.295 266.754 159 263Z" fill="#363381"/>
<path d="M355 287C360.286 293.343 362.899 301.187 365.77 308.809C367.364 312.944 369.165 316.967 371 321C372.586 324.567 373 325.979 373 330C373.66 330 374.32 330 375 330C375.673 331.769 376.338 333.54 377 335.312C377.557 336.792 377.557 336.792 378.125 338.301C379 341 379 341 379 344C379.66 344 380.32 344 381 344C381.231 344.666 381.461 345.333 381.699 346.02C383.819 352.011 386.189 357.767 388.949 363.492C390 365.999 390.564 368.324 391 371C389.312 370.084 387.625 369.167 385.938 368.25C384.528 367.484 384.528 367.484 383.09 366.703C379.705 364.837 376.351 362.925 373 361C374.122 363.272 375.247 365.543 376.375 367.812C376.901 368.873 376.901 368.873 377.438 369.955C379.473 374.031 381.56 378.072 383.723 382.082C384.174 382.922 384.625 383.762 385.09 384.628C385.973 386.265 386.863 387.898 387.761 389.527C390.009 393.702 391.577 397.189 392 402C392.66 402 393.32 402 394 402C395.65 405.63 397.3 409.26 399 413C397.02 412.01 397.02 412.01 395 411C393.758 410.512 392.507 410.045 391.25 409.598C390.559 409.347 389.868 409.096 389.156 408.838C387.72 408.321 386.282 407.808 384.844 407.299C381.119 405.94 378.033 404.646 375 402C375.422 402.603 375.843 403.207 376.277 403.828C376.825 404.627 377.373 405.427 377.938 406.25C378.483 407.039 379.028 407.828 379.59 408.641C380.906 410.843 381.398 412.548 382 415C382.66 415.33 383.32 415.66 384 416C384.895 417.549 385.719 419.14 386.5 420.75C386.923 421.611 387.346 422.472 387.781 423.359C388.943 425.878 389.996 428.415 391 431C391.66 431 392.32 431 393 431C393.33 431.99 393.66 432.98 394 434C368.59 434 343.18 434 317 434C318.454 430.365 319.482 428.065 321.625 425C323.535 422.22 325.369 419.42 327.102 416.527C327.458 415.934 327.814 415.34 328.181 414.729C329.214 412.998 330.24 411.263 331.266 409.527C331.838 408.693 332.41 407.859 333 407C333.66 407 334.32 407 335 407C335.33 405.35 335.66 403.7 336 402C335.072 402.495 334.144 402.99 333.188 403.5C330 405 330 405 327 405C327 405.66 327 406.32 327 407C322.586 410.384 317.278 411.555 312 413C313.199 409.917 314.477 406.937 316 404C316.66 404 317.32 404 318 404C318.128 403.444 318.255 402.889 318.387 402.316C319.056 399.787 319.886 397.385 320.812 394.938C321.128 394.08 321.444 393.223 321.77 392.34C323 390 323 390 325.031 388.539C327.69 386.46 327.939 384.685 328.688 381.438C329.962 376.076 329.962 376.076 331 374C331.66 374 332.32 374 333 374C333 372.68 333 371.36 333 370C333.66 370 334.32 370 335 370C335.186 368.886 335.186 368.886 335.375 367.75C335.955 365.199 336.737 363.273 338 361C335.03 361.495 335.03 361.495 332 362C331.67 362.99 331.34 363.98 331 365C327.508 367.619 324.113 369.548 320 371C320.457 365.217 322.687 359.742 326 355C328.168 354.207 328.168 354.207 330 354C329.505 353.505 329.505 353.505 329 353C328.377 347.64 329.998 345.316 333 341C333 339.68 333 338.36 333 337C333.66 337 334.32 337 335 337C335.062 336.051 335.124 335.103 335.188 334.125C335.795 329.855 337.62 326.512 339.609 322.727C343.135 315.813 345.821 308.501 348.562 301.25C350.437 296.319 352.533 291.66 355 287Z" fill="#201B61"/>
<path d="M236.875 101.749C238.136 101.729 239.396 101.708 240.695 101.687C257.006 101.62 271.346 105.501 284 115.999C284.886 116.703 284.886 116.703 285.789 117.421C289.845 120.689 289.845 120.689 291 122.999C291.748 122.795 292.495 122.59 293.266 122.378C294.25 122.109 295.235 121.84 296.25 121.562C297.225 121.295 298.199 121.028 299.203 120.753C300.588 120.38 300.588 120.38 302 119.999C302.655 119.809 303.31 119.618 303.984 119.421C314.558 117.208 325.088 119.301 334.16 124.976C341.644 130.287 341.644 130.287 343 132.999C343.491 132.844 343.982 132.688 344.488 132.527C352.267 130.894 362.368 130.164 369.25 134.624C372.64 137.403 375.477 140.419 378 143.999C378 144.659 378 145.319 378 145.999C299.13 145.999 220.26 145.999 139 145.999C139 140.999 139 140.999 140.609 139.05C141.316 138.477 142.022 137.903 142.75 137.312C143.446 136.731 144.142 136.149 144.859 135.55C148.294 133.062 150.917 131.747 155.195 131.734C155.99 131.73 156.784 131.726 157.602 131.722C158.851 131.736 158.851 131.736 160.125 131.749C161.398 131.755 161.398 131.755 162.697 131.761C168.687 131.844 174.187 132.475 180 133.999C180.389 133.394 180.779 132.788 181.18 132.164C190.977 117.49 202.961 107.733 220 102.999C225.406 101.198 231.219 101.772 236.875 101.749Z" fill="#ECC3FD"/>
<path d="M108 307C108.66 307 109.32 307 110 307C114.483 317.427 118.957 327.858 123.375 338.312C123.696 339.069 124.017 339.825 124.348 340.605C126.099 344.76 127.75 348.938 129.316 353.167C132.316 361.212 135.86 368.911 139.863 376.504C141 379 141 379 141 382C135.25 380.25 135.25 380.25 133 378C131.016 377.286 129.017 376.614 127 376C127 375.34 127 374.68 127 374C126.34 374 125.68 374 125 374C125 374.99 125 375.98 125 377C125.66 377 126.32 377 127 377C128.257 379.906 129 381.796 129 385C129.66 385 130.32 385 131 385C131.41 385.892 131.82 386.784 132.242 387.703C132.781 388.874 133.32 390.044 133.875 391.25C134.409 392.41 134.942 393.57 135.492 394.766C136.351 396.609 137.236 398.441 138.195 400.234C139 402 139 402 139 405C139.66 405 140.32 405 141 405C141.961 406.895 142.919 408.791 143.875 410.688C144.409 411.743 144.942 412.799 145.492 413.887C146.787 416.56 147.94 419.227 149 422C144.091 420.129 139.504 417.746 134.84 415.34C132.509 414.24 130.513 413.488 128 413C128.364 413.606 128.727 414.212 129.102 414.836C130.157 416.595 131.211 418.354 132.266 420.113C133.417 422.03 134.574 423.944 135.734 425.855C136.276 426.749 136.817 427.642 137.375 428.562C137.878 429.389 138.38 430.215 138.898 431.066C140 433 140 433 140 434C119.54 434 99.08 434 78 434C78.33 432.68 78.66 431.36 79 430C79.99 430 80.98 430 82 430C82.1444 429.216 82.2887 428.433 82.4375 427.625C83 425 83 425 84 423C84.66 423 85.32 423 86 423C86.3094 421.907 86.6187 420.814 86.9375 419.688C87.5834 417.446 88.2623 415.213 89 413C87.8862 413.577 86.7725 414.155 85.625 414.75C80.8674 417.137 75.964 419.088 71 421C70.67 420.34 70.34 419.68 70 419C70.9643 417.312 71.9732 415.65 73 414C73.7116 412.237 73.7116 412.237 74.4375 410.438C76 407 76 407 78.0625 405.062C80.3845 402.591 80.5919 400.486 81.3416 397.258C82.494 393.306 84.5082 389.833 86.5 386.25C87.3023 384.776 88.1044 383.302 88.9062 381.828C89.2601 381.188 89.6139 380.547 89.9785 379.888C91.0296 377.945 92.0225 375.98 93 374C92.1125 374.524 92.1125 374.524 91.207 375.059C90.4168 375.514 89.6266 375.969 88.8125 376.438C88.0352 376.89 87.2579 377.342 86.457 377.809C83.9507 379.024 81.7421 379.576 79 380C79.4738 373.051 82.2508 367.332 85 361C86.1577 358.213 87.2966 355.419 88.4375 352.625C91.0964 346.147 93.8242 339.703 96.5977 333.273C97.9445 330.13 99.2581 326.974 100.562 323.812C102.911 318.147 105.425 312.566 108 307Z" fill="#211A61"/>
<path d="M398 275C400.522 277.253 401.776 279.325 403.086 282.43C403.457 283.301 403.828 284.173 404.21 285.071C404.594 285.996 404.979 286.922 405.375 287.875C405.975 289.296 405.975 289.296 406.587 290.746C409.144 296.837 411.562 302.965 413.887 309.148C416.065 314.727 418.643 320.131 421.203 325.543C421.569 326.333 421.935 327.123 422.312 327.938C422.639 328.627 422.965 329.317 423.301 330.027C424 332 424 332 424 336C424.66 336 425.32 336 426 336C426.66 337.32 427.32 338.64 428 340C427.34 340 426.68 340 426 340C426.062 340.722 426.124 341.444 426.188 342.188C425.957 345.64 424.856 347.084 423 350C421.592 352.967 420.305 355.987 419 359C418.252 360.688 417.502 362.376 416.75 364.062C416.415 364.817 416.08 365.571 415.734 366.348C415.492 366.893 415.25 367.438 415 368C414.34 368 413.68 368 413 368C412.907 369.64 412.907 369.64 412.812 371.312C412.237 376.139 410.306 380.069 408.156 384.387C406.9 386.962 406.9 386.962 406.469 389.77C406.237 390.874 406.237 390.874 406 392C405.01 392.495 405.01 392.495 404 393C403.835 393.66 403.67 394.32 403.5 395C403.335 395.66 403.17 396.32 403 397C402.01 397.495 402.01 397.495 401 398C400.611 399.99 400.281 401.992 400 404C399.67 404.99 399.34 405.98 399 407C399.949 406.505 400.897 406.01 401.875 405.5C405 404 405 404 407 404C407 403.34 407 402.68 407 402C408.289 401.328 409.581 400.663 410.875 400C411.594 399.629 412.314 399.257 413.055 398.875C415 398 415 398 417 398C415.354 403.685 412.71 408.767 410 414C409.34 414 408.68 414 408 414C407.505 416.97 407.505 416.97 407 420C406.34 420 405.68 420 405 420C404.818 420.592 404.636 421.183 404.449 421.793C401.523 430.992 401.523 430.992 399 434C396.312 434.312 396.312 434.312 394 434C393.67 433.01 393.34 432.02 393 431C392.34 431 391.68 431 391 431C389.273 428.48 389.273 428.48 387.375 425.188C386.428 423.569 386.428 423.569 385.461 421.918C384 419 384 419 384 416C383.01 415.67 382.02 415.34 381 415C379.953 412.687 378.957 410.351 378 408C377.018 406.654 376.023 405.316 375 404C375 403.34 375 402.68 375 402C375.492 402.267 375.985 402.534 376.492 402.809C379.955 404.454 383.529 405.74 387.125 407.062C394.76 409.88 394.76 409.88 397 411C395.515 406.545 395.515 406.545 394 402C393.34 402 392.68 402 392 402C391.732 401.308 391.464 400.616 391.188 399.902C387.253 390.079 382.322 380.92 377.152 371.707C376.607 370.731 376.062 369.755 375.5 368.75C375.015 367.899 374.531 367.048 374.031 366.172C373 364 373 364 373 361C377.631 362.274 381.211 364.248 385.168 366.879C387.11 368.162 387.11 368.162 390 369C389.235 366.935 388.463 364.873 387.688 362.812C387.258 361.664 386.829 360.515 386.387 359.332C385.11 356.031 385.11 356.031 383.375 353.312C381.571 350.278 381.341 347.478 381 344C380.34 344 379.68 344 379 344C378.327 342.231 377.662 340.46 377 338.688C376.629 337.701 376.257 336.715 375.875 335.699C375 333 375 333 375 330C374.34 330 373.68 330 373 330C374 328 374 328 376 326C376.781 324.146 377.5 322.266 378.188 320.375C380.325 314.68 382.654 309.101 385.118 303.54C386.913 299.488 388.678 295.425 390.414 291.348C390.822 290.389 391.231 289.43 391.651 288.441C392.458 286.542 393.264 284.643 394.067 282.742C394.434 281.88 394.802 281.017 395.18 280.129C395.507 279.356 395.834 278.583 396.171 277.787C397 276 397 276 398 275Z" fill="#363380"/>
<path d="M433 325C436 326 436 326 436.957 327.758C437.239 328.539 437.522 329.32 437.812 330.125C438.152 331.027 438.491 331.93 438.84 332.859C439.414 334.414 439.414 334.414 440 336C440.949 338.463 441.904 340.921 442.875 343.375C443.129 344.019 443.384 344.663 443.646 345.326C445.262 349.351 447.061 353.209 449.062 357.062C458.184 374.919 458.184 374.919 456 384C455.048 385.695 454.043 387.36 453 389C451.851 391.648 450.864 394.351 449.875 397.062C449.611 397.77 449.346 398.477 449.074 399.205C447.876 402.444 446.795 405.641 446 409C449.403 407.941 452.014 406.991 455 405C456.112 408.349 456.164 409.651 454.637 412.902C453.672 414.405 453.672 414.405 452.688 415.938C450.763 418.963 449.134 421.59 448.02 425.004C446.748 428.742 445.665 431.037 443 434C439.662 434.849 436.41 434.699 432.984 434.586C432.013 434.577 431.042 434.569 430.042 434.56C426.944 434.527 423.848 434.451 420.75 434.375C418.648 434.345 416.547 434.318 414.445 434.293C409.296 434.227 404.148 434.123 399 434C400.98 429.38 402.96 424.76 405 420C405.66 420 406.32 420 407 420C407.33 418.02 407.66 416.04 408 414C408.66 414 409.32 414 410 414C410.34 412.824 410.34 412.824 410.688 411.625C412.407 406.877 414.681 402.479 417 398C415.36 398.99 415.36 398.99 413.688 400C411.063 401.585 410.174 402 407 402C407 402.66 407 403.32 407 404C401.25 407 401.25 407 399 407C399.33 403.7 399.66 400.4 400 397C400.99 397 401.98 397 403 397C403.33 395.35 403.66 393.7 404 392C404.66 392 405.32 392 406 392C406.062 390.907 406.124 389.814 406.188 388.688C406.763 383.861 408.694 379.931 410.844 375.613C411.976 373.054 412.479 370.734 413 368C414 367 415 366 416 365C417.087 362.679 418.053 360.378 419 358C419.853 355.979 420.708 353.958 421.562 351.938C423.222 348.003 424.69 344.064 426 340C426.66 340 427.32 340 428 340C428.083 339.01 428.165 338.02 428.25 337C428.863 332.525 430.82 328.904 433 325Z" fill="#201B61"/>
<path d="M671 339C679.716 347.081 683.18 360.888 683.731 372.366C684.026 380.896 683.835 389.431 683.618 397.96C683.508 402.759 683.468 407.559 683.416 412.359C683.33 419.575 683.157 426.784 683 434C663.86 434 644.72 434 625 434C626.485 430.535 626.485 430.535 628 427C628.253 423.707 628.253 423.707 628 421C627.34 421 626.68 421 626 421C625.135 418.055 624.817 416.48 625.926 413.57C626.383 412.763 626.841 411.956 627.312 411.125C629.486 407.092 630.937 403.446 632 399C632.66 399 633.32 399 634 399C634 398.34 634 397.68 634 397C633.34 397 632.68 397 632 397C631.685 396.227 631.371 395.453 631.047 394.656C628.575 388.641 625.997 382.771 623 377C624.65 377.33 626.3 377.66 628 378C628 378.66 628 379.32 628 380C631.924 381.665 635.891 382.872 640 384C639.67 382.68 639.34 381.36 639 380C639.66 380 640.32 380 641 380C641.66 378.68 642.32 377.36 643 376C652 390.667 652 390.667 652 398C652.66 398 653.32 398 654 398C654.247 397.154 654.495 396.309 654.75 395.438C656.14 391.616 657.911 388.481 660 385C659.278 385.289 658.556 385.577 657.812 385.875C655.208 386.917 652.604 387.958 650 389C653.386 378.554 657.67 368.498 662.378 358.59C665.437 352.137 668.231 345.582 671 339Z" fill="#221B62"/>
<path d="M45 287C48.3277 289.668 49.4388 293.19 50.875 297.062C52.5903 301.53 54.3437 305.876 56.5625 310.125C58.8835 314.614 60.6384 319.207 62.3945 323.941C63.6808 327.291 65.1152 330.562 66.5742 333.84C67.0335 334.873 67.4928 335.907 67.9661 336.972C68.898 339.057 69.8378 341.139 70.7859 343.218C71.2149 344.18 71.6439 345.142 72.0859 346.133C72.6745 347.43 72.6745 347.43 73.2749 348.754C74 351 74 351 73 354C68.71 351.69 64.42 349.38 60 347C61.915 350.688 63.8319 354.376 65.75 358.062C66.2888 359.101 66.8277 360.139 67.3828 361.209C69.6474 365.559 71.9046 369.893 74.3906 374.121C76 377 76 377 76 379C76.66 379 77.32 379 78 379C78.33 378.34 78.66 377.68 79 377C79.33 377.66 79.66 378.32 80 379C84.3525 377.377 88.696 375.748 93 374C92.3534 377.059 91.3206 379.544 89.8555 382.301C89.4256 383.114 88.9957 383.926 88.5527 384.764C88.1022 385.605 87.6517 386.446 87.1875 387.312C86.7486 388.142 86.3096 388.972 85.8574 389.826C83.3211 394.601 80.7089 399.321 78 404C74.2274 402.742 73.8665 401.575 71.8984 398.195C71.3261 397.219 70.7537 396.244 70.1641 395.238C69.5737 394.211 68.9833 393.184 68.375 392.125C67.7769 391.105 67.1787 390.086 66.5625 389.035C62.1563 381.469 62.1563 381.469 61 378C58.2414 376.254 58.2414 376.254 54.875 374.75C53.7587 374.209 52.6423 373.667 51.4922 373.109C46.7513 371.603 43.2345 372.066 38.6719 373.973C37.7205 374.512 37.7205 374.512 36.75 375.062C34.0786 376.564 33.1693 377 30 377C29.8763 377.763 29.7525 378.526 29.625 379.312C29 382 29 382 27 385C26.01 384.67 25.02 384.34 24 384C24 383.34 24 382.68 24 382C20.7 382.99 17.4 383.98 14 385C15.7872 378.362 15.7872 378.362 17.25 375.875C18.2807 373.874 18.2807 373.874 17.125 371.25C16.7538 370.507 16.3825 369.765 16 369C17.65 369 19.3 369 21 369C22.3573 366.345 23.6845 363.676 25 361C25.4331 360.134 25.8663 359.268 26.3125 358.375C27.1987 355.314 26.7139 353.07 26 350C24.35 350 22.7 350 21 350C21 350.66 21 351.32 21 352C20.34 352 19.68 352 19 352C19 350.68 19 349.36 19 348C19.66 348 20.32 348 21 348C22.0438 340.544 18.9753 335.346 15.5312 328.977C14 326 14 326 14 324C16.7568 325.024 19.0971 326.064 21.5625 327.688C23.8852 329.246 23.8852 329.246 26.3125 328.688C26.8694 328.461 27.4263 328.234 28 328C28.2269 327.092 28.4537 326.185 28.6875 325.25C30.2897 319.642 32.7193 314.357 35 309C35.8336 306.958 36.667 304.917 37.5 302.875C39.754 297.451 42.2913 292.21 45 287Z" fill="#383482"/>
<path d="M0 254C1.779 256.668 3.05971 259.151 4.375 262.062C4.97441 263.379 4.97441 263.379 5.58594 264.723C7.08773 268.203 8.49339 271.714 9.89355 275.237C11.8631 280.156 13.9016 285.046 15.9375 289.938C16.563 291.449 16.563 291.449 17.2012 292.99C19.6493 298.874 22.1894 304.703 24.8523 310.493C30.5644 322.971 30.5644 322.971 29 328C28.01 328.99 28.01 328.99 27 330C21.9477 329.851 18.0545 326.726 14 324C14.5891 325.062 15.1782 326.124 15.7852 327.219C16.5453 328.645 17.3044 330.072 18.0625 331.5C18.6474 332.544 18.6474 332.544 19.2441 333.609C22.021 338.917 22.2605 342.14 21 348C20.34 348 19.68 348 19 348C19 349.32 19 350.64 19 352C19.66 352 20.32 352 21 352C21 351.34 21 350.68 21 350C23.475 349.505 23.475 349.505 26 349C27.3874 351.203 28.0252 352.56 27.875 355.188C26.2372 360.452 24.0589 365.412 21 370C19.68 370 18.36 370 17 370C17 370.99 17 371.98 17 373C17.66 373.33 18.32 373.66 19 374C17.35 377.63 15.7 381.26 14 385C15.3612 384.258 15.3612 384.258 16.75 383.5C20 382 20 382 24 382C25.25 384.562 25.25 384.562 26 388C24.7617 390.452 23.4633 392.685 22 395C21.4986 395.815 20.9971 396.629 20.4805 397.469C18.2029 401.164 15.9019 404.844 13.6016 408.525C13.0395 409.428 12.4775 410.331 11.8984 411.262C11.3897 412.076 10.881 412.89 10.3569 413.729C9.13078 415.781 8.03491 417.847 7 420C7.84562 419.526 8.69125 419.051 9.5625 418.562C13.1259 416.943 16.1256 416.387 20 416C18.4118 419.342 16.5402 422.437 14.5625 425.562C13.6672 426.988 13.6672 426.988 12.7539 428.441C12.1751 429.286 11.5963 430.13 11 431C10.5965 431.607 10.193 432.214 9.77734 432.84C8 434 8 434 0 434C0 374.6 0 315.2 0 254Z" fill="#221B62"/>
<path d="M469 350C469.66 350 470.32 350 471 350C471.262 350.615 471.524 351.23 471.794 351.864C472.987 354.66 474.181 357.455 475.375 360.25C475.787 361.218 476.2 362.186 476.625 363.184C477.025 364.118 477.424 365.053 477.836 366.016C478.386 367.304 478.386 367.304 478.947 368.618C479.958 370.984 479.958 370.984 481.135 373.124C482 375 482 375 482 378C482.66 378 483.32 378 484 378C484.33 377.34 484.66 376.68 485 376C485 376.99 485 377.98 485 379C487.97 377.68 490.94 376.36 494 375C493.391 380.175 492.321 384.358 490 389C489.01 389 488.02 389 487 389C487.217 389.543 487.433 390.085 487.656 390.645C487.935 391.36 488.213 392.075 488.5 392.812C488.778 393.52 489.057 394.228 489.344 394.957C490 397 490 397 490 400C490.66 400 491.32 400 492 400C492.99 403.3 493.98 406.6 495 410C492.69 409.67 490.38 409.34 488 409C486.806 412.489 486.943 413.861 488.363 417.34C488.999 418.547 489.649 419.746 490.312 420.938C492.647 425.256 494.428 429.285 496 434C478.51 434 461.02 434 443 434C445 429 445 429 447 427C447.247 426.01 447.495 425.02 447.75 424C448.875 419.565 451.324 416.096 453.855 412.332C455.231 410.081 455.231 410.081 454.676 407.699C454.453 407.138 454.23 406.578 454 406C452.608 407.021 452.608 407.021 451.188 408.062C450.136 408.702 449.084 409.341 448 410C447.01 409.67 446.02 409.34 445 409C449.519 394.579 449.519 394.579 452.75 388.625C455.209 384.031 455.749 380.184 456 375C456.66 375 457.32 375 458 375C458.437 373.927 458.437 373.927 458.883 372.832C462.056 365.12 465.457 357.549 469 350Z" fill="#373381"/>
<path d="M571 355C571.66 355 572.32 355 573 355C573.266 355.626 573.531 356.253 573.805 356.898C574.158 357.716 574.511 358.533 574.875 359.375C575.223 360.187 575.571 360.999 575.93 361.836C576.924 364.138 576.924 364.138 579 366C580.444 368.887 580.568 371.813 581 375C581.32 376.669 581.647 378.337 582 380C584.31 379.01 586.62 378.02 589 377C588.848 377.568 588.696 378.137 588.539 378.723C587.259 384.129 586.428 389.587 588 395C588.66 395 589.32 395 590 395C590.66 397.97 591.32 400.94 592 404C592.66 404 593.32 404 594 404C594.66 406.97 595.32 409.94 596 413C595.01 412.67 594.02 412.34 593 412C593 411.34 593 410.68 593 410C590.69 409.67 588.38 409.34 586 409C586 408.34 586 407.68 586 407C585.01 407 584.02 407 583 407C583.28 407.499 583.559 407.998 583.848 408.512C584.71 410.056 585.568 411.603 586.422 413.152C587.565 415.215 588.723 417.268 589.891 419.316C590.525 420.449 591.159 421.583 591.812 422.75C592.417 423.817 593.022 424.885 593.645 425.984C595 429 595 429 595 434C579.16 434 563.32 434 547 434C552.556 421.778 552.556 421.778 556.082 416.07C557.184 413.586 557.164 411.689 557 409C556.051 409.495 555.102 409.99 554.125 410.5C551 412 551 412 549 412C549.802 406.853 550.637 402.305 553.25 397.75C554.986 394.609 555.058 394.271 554.25 390.5C553.838 389.675 553.425 388.85 553 388C554.65 388.33 556.3 388.66 558 389C557.67 387.68 557.34 386.36 557 385C557.66 385 558.32 385 559 385C559.182 384.432 559.364 383.863 559.551 383.277C560.902 379.128 562.331 375.092 564.109 371.102C565.84 367.018 567.354 362.846 568.914 358.695C570 356 570 356 571 355Z" fill="#373380"/>
<path d="M545 359C545.66 359 546.32 359 547 359C547.818 361.06 548.629 363.123 549.438 365.188C549.89 366.336 550.342 367.485 550.809 368.668C551.811 371.471 552.52 374.071 553 377C553.66 377 554.32 377 555 377C555.506 378.436 556.004 379.874 556.5 381.312C556.778 382.113 557.057 382.914 557.344 383.738C558 386 558 386 558 389C556.68 389 555.36 389 554 389C554.412 389.66 554.825 390.32 555.25 391C556.239 394.954 555.094 396.302 553.16 399.73C551.174 403.616 550.135 407.802 549 412C550.423 411.257 550.423 411.257 551.875 410.5C555 409 555 409 557 409C557.925 412.028 558.245 413.472 556.891 416.395C556.079 417.591 556.079 417.591 555.25 418.812C553.197 421.991 551.5 424.926 550.25 428.5C549 432 549 432 547 434C543.927 434.227 543.927 434.227 540.023 434.195C539.338 434.192 538.653 434.19 537.947 434.187C535.756 434.176 533.566 434.15 531.375 434.125C529.891 434.115 528.406 434.106 526.922 434.098C523.281 434.076 519.641 434.041 516 434C516.33 432.68 516.66 431.36 517 430C514.03 430.99 514.03 430.99 511 432C511 431.01 511 430.02 511 429C511.66 429 512.32 429 513 429C512.938 427.855 512.938 427.855 512.875 426.688C513 424 513 424 515 421C515.66 421 516.32 421 517 421C517.144 420.237 517.289 419.474 517.438 418.688C518 416 518 416 519 413C517.02 413.495 517.02 413.495 515 414C515.309 412.541 515.622 411.083 515.938 409.625C516.199 408.407 516.199 408.407 516.465 407.164C517 405 517 405 518 403C517.34 403 516.68 403 516 403C516 402.01 516 401.02 516 400C516.99 400 517.98 400 519 400C521.19 395.915 521.19 395.915 522.5 391.5C523.131 388.344 524.489 385.825 526 383C529.402 387.05 532 391.636 532 397C534.615 394.634 536.264 392.058 538 389C536.02 389.66 534.04 390.32 532 391C533.345 386.598 534.729 382.333 536.875 378.25C539.321 373.584 541.103 368.685 542.949 363.758C544 361 544 361 545 359Z" fill="#231C64"/>
<path d="M398 275C400.522 277.253 401.776 279.325 403.086 282.43C403.457 283.301 403.828 284.173 404.21 285.071C404.594 285.996 404.979 286.922 405.375 287.875C405.975 289.296 405.975 289.296 406.587 290.746C409.144 296.837 411.562 302.965 413.887 309.148C416.065 314.727 418.643 320.131 421.203 325.543C421.569 326.333 421.935 327.123 422.312 327.938C422.639 328.627 422.965 329.317 423.301 330.027C424 332 424 332 424 336C424.66 336 425.32 336 426 336C426.66 337.32 427.32 338.64 428 340C427.34 340 426.68 340 426 340C426.062 340.722 426.124 341.444 426.188 342.188C425.963 345.553 424.868 347.235 423 350C422.67 350.66 422.34 351.32 422 352C421.34 352 420.68 352 420 352C418.995 349.877 417.996 347.752 417 345.625C416.443 344.442 415.886 343.258 415.312 342.039C414 339 414 339 414 337C413.34 337 412.68 337 412 337C411.78 336.416 411.559 335.832 411.332 335.23C408.987 331.303 405.482 329.703 401.465 327.73C395.704 326.516 392.109 329.254 387.422 332.258C386.623 332.833 385.823 333.408 385 334C385.33 335.65 385.66 337.3 386 339C383.688 340.562 383.688 340.562 381 342C378 341 378 341 377.051 339.258C376.685 338.202 376.685 338.202 376.312 337.125C375.935 336.077 375.935 336.077 375.551 335.008C375 333 375 333 375 330C374.34 330 373.68 330 373 330C374 328 374 328 376 326C376.781 324.146 377.5 322.266 378.188 320.375C380.325 314.68 382.654 309.101 385.118 303.54C386.913 299.488 388.678 295.425 390.414 291.348C390.822 290.389 391.231 289.43 391.651 288.441C392.458 286.542 393.264 284.643 394.067 282.742C394.434 281.88 394.802 281.017 395.18 280.129C395.507 279.356 395.834 278.583 396.171 277.787C397 276 397 276 398 275Z" fill="#393384"/>
<path d="M45 287C48.3277 289.668 49.4388 293.19 50.875 297.062C52.5903 301.53 54.3437 305.876 56.5625 310.125C58.8835 314.614 60.6384 319.207 62.3945 323.941C63.6808 327.291 65.1152 330.562 66.5742 333.84C67.0335 334.873 67.4928 335.907 67.9661 336.972C68.898 339.057 69.8378 341.139 70.7859 343.218C71.2149 344.18 71.6439 345.142 72.0859 346.133C72.6745 347.43 72.6745 347.43 73.2749 348.754C74 351 74 351 73 354C72.2407 353.567 71.4815 353.134 70.6992 352.688C69.7054 352.131 68.7115 351.574 67.6875 351C66.7014 350.443 65.7152 349.886 64.6992 349.312C62.0506 347.781 62.0506 347.781 59 348C58.6287 347.278 58.2575 346.556 57.875 345.812C55.1785 341.768 51.4268 339.885 47 338C46.01 338 45.02 338 44 338C43.34 338.66 42.68 339.32 42 340C40.9894 340.474 39.9788 340.949 38.9375 341.438C35.71 342.721 35.71 342.721 35 346C34.01 346 33.02 346 32 346C31.01 348.475 31.01 348.475 30 351C27.3595 351 25.5146 350.649 23 350C22.34 350 21.68 350 21 350C21 350.66 21 351.32 21 352C20.34 352 19.68 352 19 352C19 350.68 19 349.36 19 348C19.66 348 20.32 348 21 348C22.0438 340.544 18.9753 335.346 15.5312 328.977C14 326 14 326 14 324C16.7568 325.024 19.0971 326.064 21.5625 327.688C23.8852 329.246 23.8852 329.246 26.3125 328.688C26.8694 328.461 27.4263 328.234 28 328C28.2269 327.092 28.4537 326.185 28.6875 325.25C30.2897 319.642 32.7193 314.357 35 309C35.8336 306.958 36.667 304.917 37.5 302.875C39.754 297.451 42.2913 292.21 45 287Z" fill="#393484"/>
<path d="M642 376C645.846 379.269 647.504 382.943 649.25 387.562C649.518 388.235 649.786 388.907 650.062 389.6C651.207 392.541 652 394.818 652 398C652.66 398.33 653.32 398.66 654 399C654.633 401.285 654.633 401.285 655.125 404.062C655.376 405.441 655.376 405.441 655.633 406.848C655.754 407.558 655.875 408.268 656 409C657.98 408.505 657.98 408.505 660 408C659.722 409.361 659.722 409.361 659.438 410.75C659.043 413.683 659.053 415.264 660 418C658.35 418 656.7 418 655 418C654.67 418.66 654.34 419.32 654 420C654.9 422.037 655.895 424.032 656.938 426C660 431.804 660 431.804 660 434C648.45 434 636.9 434 625 434C625.99 431.69 626.98 429.38 628 427C628.253 423.707 628.253 423.707 628 421C627.34 421 626.68 421 626 421C625.135 418.055 624.817 416.48 625.926 413.57C626.383 412.763 626.841 411.956 627.312 411.125C629.486 407.092 630.937 403.446 632 399C632.66 399 633.32 399 634 399C634 398.34 634 397.68 634 397C633.34 397 632.68 397 632 397C631.685 396.227 631.371 395.453 631.047 394.656C628.575 388.641 625.997 382.771 623 377C625.475 377.495 625.475 377.495 628 378C628 378.66 628 379.32 628 380C631.924 381.665 635.891 382.872 640 384C639.67 382.68 639.34 381.36 639 380C639.66 380 640.32 380 641 380C641.33 378.68 641.66 377.36 642 376Z" fill="#383381"/>
<path d="M77.8125 207.561C79.0896 207.531 79.0896 207.531 80.3926 207.5C88.0665 207.506 94.4887 209.476 100.125 214.811C102.839 217.367 102.839 217.367 106.312 216.811C107.529 216.542 108.746 216.274 110 215.998C115.839 215.498 119.87 215.841 125 218.998C125 219.658 125 220.318 125 220.998C128.452 221.688 131.509 221.99 135 221.748C138.325 221.678 139.932 222.321 142.5 224.436C145 226.998 145 226.998 145 227.998C107.38 227.998 69.76 227.998 31 227.998C33 223.998 33 223.998 36 221.998C38.8125 221.768 38.8125 221.768 42 221.811C43.5778 221.82 43.5778 221.82 45.1875 221.83C48 221.998 48 221.998 51 222.998C51.2423 222.248 51.4847 221.498 51.7344 220.725C53.1725 217.626 54.5314 216.398 57.25 214.373C57.9977 213.803 58.7453 213.234 59.5156 212.646C65.8225 208.462 70.3768 207.499 77.8125 207.561Z" fill="#EDC8FD"/>
<path d="M511.73 114.736C514 116.001 514 116.001 515.809 118.142C519.398 121.188 523.545 120.174 527.98 119.845C533.362 119.602 535.693 120.964 540 124.001C543.114 124.441 546.054 124.439 549.195 124.435C552 125.001 552 125.001 556 130.001C522.34 130.001 488.68 130.001 454 130.001C456 126.001 456 126.001 458 125.001C460.25 124.949 462.5 124.91 464.75 124.876C469.669 124.701 469.669 124.701 473.906 122.556C474.811 121.34 475.693 120.106 476.551 118.857C484.686 108.441 500.884 110.537 511.73 114.736Z" fill="#EABCFC"/>
<path d="M526 383C529.402 387.05 532 391.636 532 397C532.99 396.67 533.98 396.34 535 396C534.34 397.98 533.68 399.96 533 402C533.66 402 534.32 402 535 402C535 402.66 535 403.32 535 404C535.99 404.33 536.98 404.66 538 405C537.814 405.557 537.629 406.114 537.438 406.688C536.924 409.399 537.336 411.344 538 414C536.02 413.34 534.04 412.68 532 412C532.897 413.547 532.897 413.547 533.812 415.125C535.665 418.36 537.333 421.665 539 425C539.557 425.908 540.114 426.815 540.688 427.75C542 430 542 430 542 432C541.34 432 540.68 432 540 432C540 431.34 540 430.68 540 430C538.02 429.67 536.04 429.34 534 429C534.66 430.65 535.32 432.3 536 434C529.4 434 522.8 434 516 434C516.33 432.68 516.66 431.36 517 430C515.02 430.66 513.04 431.32 511 432C511 431.01 511 430.02 511 429C511.66 429 512.32 429 513 429C512.938 427.855 512.938 427.855 512.875 426.688C513 424 513 424 515 421C515.66 421 516.32 421 517 421C517.144 420.237 517.289 419.474 517.438 418.688C518 416 518 416 519 413C517.68 413.33 516.36 413.66 515 414C515.309 412.541 515.622 411.083 515.938 409.625C516.112 408.813 516.286 408.001 516.465 407.164C517 405 517 405 518 403C517.34 403 516.68 403 516 403C516 402.01 516 401.02 516 400C516.99 400 517.98 400 519 400C521.19 395.915 521.19 395.915 522.5 391.5C523.131 388.344 524.489 385.825 526 383Z" fill="#37337F"/>
<path d="M464.875 228.561C466.06 228.531 466.06 228.531 467.27 228.5C472.715 228.505 475.592 229.57 480 232.998C483.676 234.223 486.693 233.937 490.527 233.74C493.525 234.053 494.668 235.168 497 236.998C499.333 237.039 501.667 237.04 504 236.998C504.99 237.658 505.98 238.318 507 238.998C507 239.658 507 240.318 507 240.998C482.91 240.998 458.82 240.998 434 240.998C434.66 240.008 435.32 239.018 436 237.998C438.426 237.662 438.426 237.662 441.312 237.623C446.031 237.332 446.031 237.332 449.938 234.623C450.618 233.757 451.299 232.891 452 231.998C455.739 228.111 459.812 228.516 464.875 228.561Z" fill="#D8ABFB"/>
<path d="M239 285C242.559 286.294 245.739 287.963 249.014 289.854C251.063 291.036 253.122 292.2 255.184 293.359C255.883 293.753 256.582 294.146 257.303 294.551C258.007 294.947 258.712 295.342 259.438 295.75C260.169 296.161 260.901 296.572 261.654 296.996C263.436 297.998 265.218 298.999 267 300C266.7 299.313 266.399 298.626 266.09 297.918C265.71 297.017 265.329 296.116 264.938 295.188C264.555 294.294 264.172 293.401 263.777 292.48C263 290 263 290 264 287C265.65 290.3 267.3 293.6 269 297C269.66 296.34 270.32 295.68 271 295C270.218 299.847 268.602 304.377 267 309C266.34 309 265.68 309 265 309C264.878 309.715 264.755 310.431 264.629 311.168C263.989 314.051 263.064 316.586 261.938 319.312C261.575 320.196 261.213 321.079 260.84 321.988C260.563 322.652 260.286 323.316 260 324C256.768 321.845 256.199 320.474 254.807 316.976C254.007 315.018 253.112 313.152 252.156 311.266C251.804 310.569 251.453 309.872 251.09 309.154C250.73 308.443 250.371 307.732 250 307C249.321 305.644 248.642 304.287 247.965 302.93C247.63 302.261 247.296 301.592 246.951 300.902C244.301 295.602 241.65 290.301 239 285Z" fill="#9F75E1"/>
<path d="M0 142C1.65 143.32 3.3 144.64 5 146C7.31493 145.789 7.31493 145.789 10 145C17.151 144.295 21.8799 145.339 28 149C31.0579 150.789 32.9176 151.156 36.4375 150.875C39.9986 150.781 40.8728 150.922 44.0625 152.875C46 155 46 155 46 157C30.82 157 15.64 157 0 157C0 152.05 0 147.1 0 142Z" fill="#CDA2FB"/>
<path d="M93 374C92.3534 377.059 91.3206 379.544 89.8555 382.301C89.4256 383.114 88.9957 383.926 88.5527 384.764C87.8769 386.025 87.8769 386.025 87.1875 387.312C86.7486 388.142 86.3096 388.972 85.8574 389.826C83.3211 394.601 80.7089 399.321 78 404C74.1977 402.733 73.8354 401.507 71.8633 398.09C71.2864 397.1 70.7096 396.111 70.1152 395.092C69.5203 394.051 68.9254 393.01 68.3125 391.938C67.706 390.893 67.0995 389.848 66.4746 388.771C64.975 386.186 63.4839 383.595 62 381C62.66 380.67 63.32 380.34 64 380C66.6047 381.074 69.0997 382.2 71.625 383.438C72.3314 383.776 73.0378 384.114 73.7656 384.463C75.5138 385.302 77.2574 386.15 79 387C78.67 386.01 78.34 385.02 78 384C79.2188 380.343 80.0548 380.151 83.375 378.438C91.8629 374 91.8629 374 93 374Z" fill="#A781E7"/>
<path d="M471 230C477.674 230.63 477.674 230.63 479.359 232.543C480.982 234.283 480.982 234.283 483.777 234.188C485.882 234.063 487.986 233.938 490.09 233.812C493.454 234.029 494.452 234.921 497 237C499.333 237.041 501.667 237.042 504 237C504.99 237.66 505.98 238.32 507 239C507 239.66 507 240.32 507 241C492.81 241 478.62 241 464 241C465 238 465 238 467.5 236.625C470.249 235.221 470.249 235.221 470.812 232.312C470.874 231.549 470.936 230.786 471 230Z" fill="#EEC9FC"/>
<path d="M314 330C318.538 331.349 322.319 333.192 326.375 335.625C327.435 336.257 328.494 336.888 329.586 337.539C330.383 338.021 331.179 338.503 332 339C331.455 342.958 330.635 346.26 328.938 349.875C328.575 350.656 328.213 351.437 327.84 352.242C327.563 352.822 327.286 353.402 327 354C326.34 354 325.68 354 325 354C323.539 350.939 322.082 347.876 320.625 344.812C320.213 343.948 319.8 343.084 319.375 342.193C318.975 341.352 318.576 340.511 318.164 339.645C317.797 338.875 317.431 338.105 317.053 337.312C315.956 334.902 314.965 332.465 314 330Z" fill="#A882E9"/>
<path d="M190.998 285C189.233 289.84 186.803 294.284 184.373 298.812C183.953 299.601 183.533 300.389 183.1 301.201C182.068 303.135 181.034 305.068 179.998 307C178.456 304.686 177.098 302.454 175.811 300C175.446 299.319 175.081 298.639 174.705 297.938C173.998 296 173.998 296 174.998 293C177.292 291.483 179.533 290.129 181.936 288.812C182.582 288.444 183.229 288.076 183.895 287.697C188.714 285 188.714 285 190.998 285Z" fill="#9571D9"/>
<path d="M243 346C247.36 347.348 251.313 349.049 255.375 351.125C256.435 351.664 257.494 352.203 258.586 352.758C259.383 353.168 260.179 353.578 261 354C259.64 358.221 258.06 362.068 256 366C252.171 362.584 249.809 358.692 247.25 354.312C246.839 353.623 246.428 352.934 246.004 352.225C243 347.15 243 347.15 243 346Z" fill="#A682E6"/>
<path d="M89 412C89.66 412.33 90.32 412.66 91 413C89.35 416.3 87.7 419.6 86 423C85.34 423 84.68 423 84 423C83.5669 424.207 83.5669 424.207 83.125 425.438C82 428 82 428 80 429C78.9942 427.713 77.9955 426.42 77 425.125C76.4431 424.406 75.8863 423.686 75.3125 422.945C74 421 74 421 74 419C74.99 418.588 75.98 418.175 77 417.75C80.543 416.249 83.9195 414.505 87.3008 412.672C88.1419 412.339 88.1419 412.339 89 412Z" fill="#9E7DDE"/>
<path d="M623 377C625.475 377.495 625.475 377.495 628 378C628 378.66 628 379.32 628 380C628.722 380.268 629.444 380.536 630.188 380.812C632.976 381.99 635.441 383.391 638 385C636.787 388.724 635.491 392.378 634 396C633.34 396 632.68 396 632 396C630.685 393.397 629.373 390.793 628.062 388.188C627.689 387.45 627.316 386.712 626.932 385.951C626.574 385.239 626.216 384.527 625.848 383.793C625.518 383.138 625.188 382.484 624.848 381.809C624 380 624 380 623 377Z" fill="#A682E5"/>
<path d="M126 221C126.66 221.165 127.32 221.33 128 221.5C131.143 222.14 131.143 222.14 134.938 221.75C138.289 221.68 139.913 222.303 142.5 224.438C145 227 145 227 145 228C138.07 228 131.14 228 124 228C124.66 225.69 125.32 223.38 126 221Z" fill="#B68FF6"/>
<path d="M14 324C18.3076 325.566 22.0617 327.683 26 330C25.4929 333.719 24.8839 336.735 23 340C22.34 340 21.68 340 21 340C19.8285 337.711 18.6626 335.419 17.5 333.125C17.1661 332.474 16.8323 331.823 16.4883 331.152C14 326.227 14 326.227 14 324Z" fill="#AA83E9"/>
<path d="M413 336C417.379 337.751 420.971 339.63 425 342C424.39 345.558 423.422 348.683 422 352C421.34 352 420.68 352 420 352C417.69 346.72 415.38 341.44 413 336Z" fill="#A27FE2"/>
<path d="M658.999 384C659.659 384.33 660.319 384.66 660.999 385C657.534 391.435 657.534 391.435 653.999 398C653.339 398 652.679 398 651.999 398C651.302 396.212 650.617 394.419 649.937 392.625C649.554 391.627 649.171 390.63 648.777 389.602C647.999 387 647.999 387 648.999 385C649.659 385 650.319 385 650.999 385C650.669 386.32 650.339 387.64 649.999 389C650.626 388.627 651.252 388.255 651.898 387.871C652.715 387.398 653.532 386.925 654.374 386.438C655.592 385.724 655.592 385.724 656.835 384.996C657.549 384.667 658.263 384.339 658.999 384Z" fill="#9E80E0"/>
<path d="M515 376C517.396 377.198 519.767 378.414 522.125 379.688C523.548 380.337 523.548 380.337 525 381C525.66 380.67 526.32 380.34 527 380C526.294 383.669 524.723 386.705 523 390C519.085 386.644 516.92 382.719 515 378C515 377.34 515 376.68 515 376Z" fill="#A27DDF"/>
<path d="M683 151.001C683 152.981 683 154.961 683 157.001C678.71 157.001 674.42 157.001 670 157.001C674.146 150.091 675.61 150.882 683 151.001Z" fill="#F0DCFB"/>
<path d="M139 347C139.66 347.33 140.32 347.66 141 348C138.69 352.29 136.38 356.58 134 361C133.34 361 132.68 361 132 361C130.502 357.629 130 355.796 130 352C131.453 351.136 132.912 350.284 134.375 349.438C135.593 348.724 135.593 348.724 136.836 347.996C137.55 347.667 138.264 347.339 139 347Z" fill="#997ED9"/>
<path d="M316 376C319.63 377.65 323.26 379.3 327 381C326 386 326 386 325 389C324.34 389 323.68 389 323 389C321.273 386.664 321.273 386.664 319.375 383.625C318.743 382.627 318.112 381.63 317.461 380.602C316 378 316 378 316 376Z" fill="#9D7FDE"/>
<path d="M91 412.998C89.35 416.298 87.7 419.598 86 422.998C85.67 422.338 85.34 421.678 85 420.998C83.0211 420.271 81.0205 419.6 79 418.998C86.5676 410.782 86.5676 410.782 91 412.998Z" fill="#49348C"/>
<path d="M493 375C493.33 375.66 493.66 376.32 494 377C492.785 379.602 492.785 379.602 491.062 382.625C490.497 383.628 489.931 384.631 489.348 385.664C488.903 386.435 488.458 387.206 488 388C487.34 388 486.68 388 486 388C485.67 385.36 485.34 382.72 485 380C487.64 378.35 490.28 376.7 493 375Z" fill="#9276CF"/>
<path d="M273 329C274 332 274 332 273.074 334.043C272.388 335.105 272.388 335.105 271.688 336.188C271.013 337.261 271.013 337.261 270.324 338.355C269.669 339.17 269.669 339.17 269 340C268.34 340 267.68 340 267 340C266.34 338.02 265.68 336.04 265 334C267.64 332.35 270.28 330.7 273 329Z" fill="#A483E2"/>
<path d="M330 330C332.341 332.128 333.707 334.116 335 337C334.34 337 333.68 337 333 337C333.33 338.65 333.66 340.3 334 342C333.01 342.66 332.02 343.32 331 344C331.33 342.35 331.66 340.7 332 339C330.824 338.567 330.824 338.567 329.625 338.125C327 337 327 337 325 335C325.99 334.67 326.98 334.34 328 334C329.209 332 329.209 332 330 330Z" fill="#46338B"/>
<path d="M682 407C682.33 407 682.66 407 683 407C683.081 408.958 683.139 410.916 683.188 412.875C683.222 413.966 683.257 415.056 683.293 416.18C683.196 417.11 683.1 418.041 683 419C680 421 680 421 677 421C677.454 419.415 677.913 417.832 678.375 416.25C678.63 415.368 678.885 414.487 679.148 413.578C679.921 411.239 680.836 409.166 682 407Z" fill="#35307A"/>
<path d="M532 387C532.33 387.66 532.66 388.32 533 389C532.67 389.66 532.34 390.32 532 391C532.784 390.484 533.568 389.969 534.375 389.438C535.241 388.963 536.108 388.489 537 388C537.66 388.33 538.32 388.66 539 389C538.217 390.339 537.423 391.671 536.625 393C536.184 393.742 535.743 394.485 535.289 395.25C534.864 395.828 534.438 396.405 534 397C533.34 397 532.68 397 532 397C530.875 393.688 530.875 393.688 530 390C530.66 389.01 531.32 388.02 532 387Z" fill="#977BD5"/>
<path d="M576 430.998C576.99 431.988 577.98 432.978 579 433.998C574.05 433.998 569.1 433.998 564 433.998C568.177 429.821 570.418 429.603 576 430.998Z" fill="#2F2E77"/>
<path d="M87 353C88 355 88 355 87.3281 357.172C86.9723 358.023 86.6166 358.873 86.25 359.75C85.8787 360.639 85.5075 361.529 85.125 362.445C83.8432 365.356 82.4811 368.186 81 371C80.34 370.01 79.68 369.02 79 368C79.66 367.34 80.32 366.68 81 366C81.7139 364.374 82.3752 362.725 83 361.062C84.1448 358.026 85.1846 355.723 87 353Z" fill="#9F7EDF"/>
<path d="M496 346C497 348 497 348 496.004 351.039C495.528 352.222 495.053 353.406 494.562 354.625C494.089 355.814 493.616 357.002 493.129 358.227C492.756 359.142 492.384 360.057 492 361C491.01 361 490.02 361 489 361C489.591 358.871 490.198 356.747 490.812 354.625C491.149 353.442 491.485 352.258 491.832 351.039C493 348 493 348 496 346Z" fill="#A481E2"/>
<path d="M474 398C474 398.66 474 399.32 474 400C473.282 399.777 472.564 399.554 471.824 399.324C468.19 398.907 466.85 399.85 463.812 401.812C462.953 402.355 462.093 402.898 461.207 403.457C458.931 404.953 458.931 404.953 457 407C457 405.68 457 404.36 457 403C458.696 401.959 460.407 400.943 462.125 399.937C463.076 399.369 464.028 398.8 465.008 398.215C468.51 396.793 470.392 397.063 474 398Z" fill="#2D2C78"/>
<path d="M363.001 305C365.115 307.114 365.971 308.793 367.189 311.5C367.554 312.294 367.918 313.088 368.294 313.906C368.528 314.597 368.761 315.288 369.001 316C368.671 316.66 368.341 317.32 368.001 318C366.064 317.188 366.064 317.188 364.001 316C362.718 312.15 362.935 309.053 363.001 305Z" fill="#351E77"/>
<path d="M314 330C317.775 331.091 320.47 331.908 323 335C321.35 335.66 319.7 336.32 318 337C314 332.25 314 332.25 314 330Z" fill="#A07FDD"/>
<path d="M271 376C271 379 271 379 268.5 381.688C267.675 382.451 266.85 383.214 266 384C265.34 382.68 264.68 381.36 264 380C268.75 377.125 268.75 377.125 271 376Z" fill="#957BD3"/>
<path d="M60 347C62.0205 347.602 64.0211 348.273 66 349C66.33 349.66 66.66 350.32 67 351C66.01 351 65.02 351 64 351C64.7734 352.145 64.7734 352.145 65.5625 353.312C66.0369 354.199 66.5113 355.086 67 356C66.67 356.99 66.34 357.98 66 359C64.9947 357.378 63.9959 355.753 63 354.125C62.4431 353.22 61.8863 352.315 61.3125 351.383C60 349 60 349 60 347Z" fill="#9C7EDE"/>
<path d="M70 344C72.2619 346.262 73.0392 347.97 74 351C73.67 351.99 73.34 352.98 73 354C71.02 353.01 69.04 352.02 67 351C67.66 350.67 68.32 350.34 69 350C69.6577 346.971 69.6577 346.971 70 344Z" fill="#4A348E"/>
<path d="M89 412C89.66 412.33 90.32 412.66 91 413C89.02 415.97 89.02 415.97 87 419C86.01 418.67 85.02 418.34 84 418C84 416.68 84 415.36 84 414C86.375 412.938 86.375 412.938 89 412Z" fill="#9479D0"/>
<path d="M25 330C26.392 334.176 24.8232 336.135 23 340C22.34 340 21.68 340 21 340C20.3125 337.688 20.3125 337.688 20 335C21.3125 333.188 21.3125 333.188 23 332C23.66 332 24.32 332 25 332C25 331.34 25 330.68 25 330Z" fill="#987CDA"/>
<path d="M417 398C415.25 403.75 415.25 403.75 413 406C413 405.01 413 404.02 413 403C412.01 402.67 411.02 402.34 410 402C413.826 398 413.826 398 417 398Z" fill="#2F2B72"/>
<path d="M346 304C346.883 306.467 347.131 307.639 346.223 310.141C345.84 310.837 345.457 311.533 345.062 312.25C344.682 312.956 344.302 313.663 343.91 314.391C343.61 314.922 343.309 315.453 343 316C342.34 314.68 341.68 313.36 341 312C341.66 312 342.32 312 343 312C342.907 310.855 342.907 310.855 342.812 309.688C343 307 343 307 344.5 305.188C344.995 304.796 345.49 304.404 346 304Z" fill="#9071D2"/>
<path d="M338 361C337.536 362.145 337.536 362.145 337.062 363.312C336.321 365.188 335.638 367.087 335 369C334.34 369 333.68 369 333 369C332.67 367.35 332.34 365.7 332 364C335.75 361 335.75 361 338 361Z" fill="#957ED4"/>
<path d="M659 384C659.66 384.33 660.32 384.66 661 385C659.68 387.31 658.36 389.62 657 392C656.01 390.68 655.02 389.36 654 388C656 385 656 385 659 384Z" fill="#8F76D0"/>
<path d="M45 287C47.4548 289.135 48.6813 290.707 49 294C48.34 294.66 47.68 295.32 47 296C46.67 294.68 46.34 293.36 46 292C45.01 292.33 44.02 292.66 43 293C43.66 291.02 44.32 289.04 45 287Z" fill="#402E8C"/>
<path d="M623 377C625.475 377.495 625.475 377.495 628 378C628 378.66 628 379.32 628 380C628.99 380.33 629.98 380.66 631 381C630.01 381.66 629.02 382.32 628 383C627.01 382.67 626.02 382.34 625 382C623.812 379.438 623.812 379.438 623 377Z" fill="#9279D2"/>
<path d="M268 180C269.65 180 271.3 180 273 180C273.33 180.99 273.66 181.98 274 183C272.125 184.062 272.125 184.062 270 185C269.34 184.67 268.68 184.34 268 184C268 182.68 268 181.36 268 180Z" fill="#8C62CB"/>
<path d="M526 426.001C525.277 426.507 525.277 426.507 524.539 427.024C523.907 427.47 523.276 427.916 522.625 428.376C521.999 428.817 521.372 429.257 520.727 429.712C518.876 431.029 518.876 431.029 517 433.001C516.67 431.351 516.34 429.701 516 428.001C517.288 427.471 518.58 426.952 519.875 426.438C520.594 426.148 521.314 425.858 522.055 425.559C524 425.001 524 425.001 526 426.001Z" fill="#2B2872"/>
<path d="M77.0625 383.123C79 383.998 79 383.998 81 387.998C78.03 387.008 75.06 386.018 72 384.998C75 382.998 75 382.998 77.0625 383.123Z" fill="#543797"/>
<path d="M14 324C16.9152 325.074 18.7781 325.778 21 328C19.68 328.99 18.36 329.98 17 331C14 326.25 14 326.25 14 324Z" fill="#957CD5"/>
<path d="M430 329C430.33 329.66 430.66 330.32 431 331C430.223 332.945 430.223 332.945 429.062 335.125C428.682 335.849 428.302 336.574 427.91 337.32C427.61 337.875 427.309 338.429 427 339C425 336 425 336 425 334C425.99 334 426.98 334 428 334C428.217 333.041 428.217 333.041 428.438 332.062C429 330 429 330 430 329Z" fill="#9F82E0"/>
<path d="M523 375C525 378 525 378 526 382C523.36 380.68 520.72 379.36 518 378C519.32 377.67 520.64 377.34 522 377C522.33 376.34 522.66 375.68 523 375Z" fill="#452D87"/>
<path d="M543 361C543.33 361.66 543.66 362.32 544 363C543.222 365.164 543.222 365.164 542.062 367.625C541.682 368.442 541.302 369.26 540.91 370.102C540.609 370.728 540.309 371.355 540 372C538.898 368.258 538.898 368.258 539.812 365.938C540.836 364.267 541.913 362.63 543 361Z" fill="#9A7CDA"/>
<path d="M273 329C273.33 329.99 273.66 330.98 274 332C272.886 332.433 272.886 332.433 271.75 332.875C269.433 333.823 267.221 334.848 265 336C266.464 331.608 268.978 331.121 273 329Z" fill="#967AD7"/>
<path d="M588 377C588.33 377.99 588.66 378.98 589 380C587.68 381.32 586.36 382.64 585 384C584.67 382.35 584.34 380.7 584 379C585.32 378.34 586.64 377.68 588 377Z" fill="#907CD1"/>
<path d="M495 350C497 353 497 353 496.625 355.188C496.419 355.786 496.213 356.384 496 357C495.34 357 494.68 357 494 357C494 357.66 494 358.32 494 359C493.34 359 492.68 359 492 359C492.99 356.03 493.98 353.06 495 350Z" fill="#3E287C"/>
<path d="M671 339C671.99 339.99 672.98 340.98 674 342C672.623 344.754 670.633 345.515 668 347C669.875 341.25 669.875 341.25 671 339Z" fill="#392077"/>
<path d="M526 383C529 386.75 529 386.75 529 389C527.35 388.67 525.7 388.34 524 388C524.66 386.35 525.32 384.7 526 383Z" fill="#523998"/>
<path d="M62 380C64.97 380.99 67.94 381.98 71 383C70.01 383.66 69.02 384.32 68 385C65.375 384.312 65.375 384.312 63 383C62.67 382.01 62.34 381.02 62 380Z" fill="#9B7EDB"/>
<path d="M24 307C24.33 307.99 24.66 308.98 25 310C25.66 310 26.32 310 27 310C27.33 312.31 27.66 314.62 28 317C25.4105 315.705 25.0396 314.673 24 312C23.875 309.25 23.875 309.25 24 307Z" fill="#9572D7"/>
<path d="M34 223C34.99 223.33 35.98 223.66 37 224C36.34 225.32 35.68 226.64 35 228C33.68 228 32.36 228 31 228C32.875 224.125 32.875 224.125 34 223Z" fill="#F1DEFD"/>
<path d="M652 392C654.062 392.438 654.062 392.438 656 393C655.34 394.65 654.68 396.3 654 398C653.34 398 652.68 398 652 398C651.618 396.344 651.286 394.675 651 393C651.33 392.67 651.66 392.34 652 392Z" fill="#977CD9"/>
<path d="M627 385C629.154 387.622 630.401 389.644 631 393C630.01 392.67 629.02 392.34 628 392C628 391.34 628 390.68 628 390C627.34 389.67 626.68 389.34 626 389C626.33 387.68 626.66 386.36 627 385Z" fill="#402981"/>
<path d="M485 381C485.66 381 486.32 381 487 381C488.062 383.375 488.062 383.375 489 386C488.67 386.66 488.34 387.32 488 388C487.34 388 486.68 388 486 388C485.67 385.69 485.34 383.38 485 381Z" fill="#9E7FDA"/>
<path d="M515 376C517.468 377.152 519.048 378.048 521 380C520.01 380.99 519.02 381.98 518 383C515 378.25 515 378.25 515 376Z" fill="#9177CE"/>
<path d="M384 336C383.188 338.438 383.188 338.438 382 341C381.01 341.33 380.02 341.66 379 342C379 340.68 379 339.36 379 338C382 336 382 336 384 336Z" fill="#907CD2"/>
<path d="M453 231C453.33 232.32 453.66 233.64 454 235C453.01 235.66 452.02 236.32 451 237C450.01 236.67 449.02 236.34 448 236C449.65 234.35 451.3 232.7 453 231Z" fill="#C99DF6"/>
<path d="M45 103C45.99 103.33 46.98 103.66 48 104C47.67 105.32 47.34 106.64 47 108C46.01 108 45.02 108 44 108C44.33 106.35 44.66 104.7 45 103Z" fill="#7E56C3"/>
</g>
<defs>
<linearGradient id="paint0_linear_216_2675" x1="341.5" y1="0" x2="341.5" y2="434" gradientUnits="userSpaceOnUse">
<stop stop-color="#7649C9"/>
<stop offset="1" stop-color="#B282F2"/>
</linearGradient>
<clipPath id="clip0_216_2675">
<rect width="683" height="434" fill="white"/>
</clipPath>
</defs>
</svg>
