<svg width="1328" height="396" viewBox="0 0 1328 396" fill="none" xmlns="http://www.w3.org/2000/svg">
<path d="M96.2249 56.222L97.3749 58.292L94.3849 59.373L97.3749 60.454L96.1789 62.593L93.6949 60.546L94.2239 63.72H91.8319L92.3379 60.546L89.8769 62.639L88.6119 60.431L91.6019 59.35L88.6349 58.315L89.8079 56.199L92.3609 58.223L91.8319 55.026H94.2469L93.6949 58.223L96.2249 56.222Z" fill="black"/>
<path d="M1232.22 56.222L1233.37 58.292L1230.38 59.373L1233.37 60.454L1232.18 62.593L1229.69 60.546L1230.22 63.72H1227.83L1228.34 60.546L1225.88 62.639L1224.61 60.431L1227.6 59.35L1224.63 58.315L1225.81 56.199L1228.36 58.223L1227.83 55.026H1230.25L1229.69 58.223L1232.22 56.222Z" fill="black"/>
<rect width="1328" height="396" fill="#A4ABB1"/>
<mask id="mask0_27_3540" style="mask-type:luminance" maskUnits="userSpaceOnUse" x="0" y="0" width="1328" height="396">
<rect width="1328" height="396" fill="white"/>
</mask>
<g mask="url(#mask0_27_3540)">
<rect width="1328" height="396" fill="#F53838"/>
<rect opacity="0.151483" x="-129.455" y="319.095" width="284" height="284" transform="rotate(-15 -129.455 319.095)" fill="#626262"/>
<g opacity="0.288249">
<path fill-rule="evenodd" clip-rule="evenodd" d="M1188.42 213.321C1131.91 146.477 1050.5 137.905 985.895 137.905C958.029 137.905 930.727 139.724 904.325 141.483L904.32 141.483L904.309 141.484C880.991 143.039 858.966 144.509 839.089 144.509C829.904 144.509 821.866 144.199 814.515 143.56C743.659 137.413 684.915 110.846 644.633 66.733C608.678 27.361 589.658 -23.705 591.074 -77.058C592.492 -130.509 614.311 -180.491 652.513 -217.796C695.462 -259.736 756.402 -283.184 828.745 -285.606C978.614 -290.622 1092.99 -385.833 1113.36 -522.526C1120.98 -573.678 1143.71 -616.564 1179.1 -646.546C1211.41 -673.92 1252.88 -688.997 1295.88 -689C1356.83 -689 1413.09 -659.393 1450.22 -607.769C1494.22 -546.613 1479.56 -478.382 1464.03 -406.143L1464.03 -406.139L1464.03 -406.137C1444.65 -315.94 1424.6 -222.67 1519.38 -136.887C1597.99 -65.742 1651.14 7.42401 1673.1 74.703C1697.07 148.16 1684.97 214.059 1637.15 270.568C1591.75 324.225 1524.49 355 1452.64 355C1408.31 355 1363.86 343.785 1320.52 321.668C1273.26 297.55 1228.82 261.096 1188.42 213.321ZM1320.06 322.559C1363.54 344.749 1408.15 356 1452.64 356C1489.13 356 1523.99 348.419 1556.25 333.468C1587.89 318.809 1615.36 297.864 1637.92 271.215C1685.98 214.423 1698.13 148.202 1674.05 74.393C1652.04 6.94702 1598.79 -66.368 1520.06 -137.626C1425.7 -223.024 1445.68 -316.008 1465.01 -405.931C1480.58 -478.392 1495.29 -546.836 1451.04 -608.353C1413.71 -660.241 1357.16 -690 1295.87 -690C1252.64 -689.997 1210.94 -674.836 1178.46 -647.31C1142.88 -617.168 1120.03 -574.069 1112.37 -522.673C1102.98 -459.65 1071.46 -401.772 1023.61 -359.7C972.11 -314.425 904.716 -289.149 828.71 -286.606C756.116 -284.176 694.947 -260.63 651.814 -218.511C613.425 -181.025 591.499 -130.799 590.074 -77.085C588.651 -23.473 607.764 27.842 643.895 67.407C684.351 111.711 743.321 138.388 814.427 144.556C821.811 145.197 829.877 145.509 839.089 145.509C858.984 145.509 881.029 144.04 904.368 142.484L904.377 142.484L904.387 142.483C930.778 140.723 958.067 138.905 985.895 138.905C1029.52 138.905 1064.08 143.418 1094.64 153.108C1132.85 165.219 1163.28 185.127 1187.66 213.967C1228.14 261.844 1272.69 298.381 1320.06 322.559ZM1184.04 176.912C1132.59 116.346 1058.51 108.579 999.723 108.579C974.345 108.579 949.536 110.227 925.544 111.821L925.303 111.838L925.221 111.843L925.217 111.844C904.134 113.238 884.22 114.556 866.262 114.556C857.924 114.556 850.624 114.275 843.944 113.698C779.609 108.144 726.272 84.1438 689.698 44.2938C657.064 8.7348 639.792 -37.3842 641.065 -85.5682C642.341 -133.863 662.141 -179.024 696.817 -212.731C735.817 -250.642 791.161 -271.837 856.867 -274.024C993.248 -278.567 1097.33 -364.808 1115.87 -488.623C1122.79 -534.831 1143.42 -573.571 1175.54 -600.653C1204.86 -625.38 1242.5 -638.998 1281.53 -639C1336.85 -639 1387.91 -612.254 1421.62 -565.618C1461.54 -510.393 1448.22 -448.723 1434.12 -383.421L1434.12 -383.417C1416.49 -301.73 1398.25 -217.261 1484.54 -139.539C1555.96 -75.2032 1604.25 -9.04718 1624.19 51.7758C1645.95 118.13 1634.98 177.657 1591.57 228.705C1550.34 277.191 1489.28 305 1424.04 305C1339.44 305 1254.21 259.511 1184.04 176.912ZM1303.59 275.763C1343.09 295.827 1383.62 306 1424.04 306C1457.18 306 1488.85 299.146 1518.16 285.631C1546.89 272.38 1571.85 253.444 1592.33 229.352C1635.98 178.025 1647.02 118.176 1625.14 51.4658C1605.15 -9.52521 1556.76 -75.8302 1485.2 -140.279C1399.35 -217.618 1417.52 -301.803 1435.1 -383.215L1435.1 -383.216L1435.1 -383.222C1449.25 -448.737 1462.61 -510.618 1422.43 -566.205C1388.53 -613.107 1337.17 -640.004 1281.52 -640C1242.26 -639.997 1204.39 -626.295 1174.89 -601.417C1142.59 -574.176 1121.84 -535.223 1114.88 -488.769C1106.34 -431.704 1077.66 -379.296 1034.12 -341.201C987.276 -300.21 925.971 -277.326 856.834 -275.024C790.873 -272.827 735.298 -251.534 696.119 -213.448C661.255 -179.557 641.348 -134.151 640.066 -85.5962C638.786 -37.1502 656.151 9.21979 688.961 44.9698C725.708 85.0078 779.271 109.118 843.859 114.694C850.556 115.273 857.884 115.556 866.262 115.556C884.327 115.556 904.349 114.228 925.546 112.821L925.612 112.817C949.607 111.225 974.418 109.579 999.723 109.579C1039.4 109.579 1070.83 113.666 1098.64 122.439C1133.4 133.409 1161.09 151.439 1183.28 177.559C1220.07 220.858 1260.54 253.898 1303.59 275.763ZM1175.28 104.084C1133.96 56.0863 1074.53 49.9313 1027.38 49.9313C1007.12 49.9313 987.283 51.2291 968.005 52.49L968.001 52.4904L967.914 52.496L967.91 52.4962C951.011 53.603 935.051 54.6483 920.609 54.6483C913.936 54.6483 908.111 54.4272 902.803 53.9743C851.504 49.6033 808.98 30.7343 779.824 -0.591675C753.831 -28.5197 740.062 -64.7447 741.051 -102.594C742.04 -140.566 757.797 -176.082 785.419 -202.6C816.51 -232.45 860.667 -249.138 913.113 -250.862C1022.51 -254.458 1106.01 -322.756 1120.89 -420.813C1126.4 -457.136 1142.83 -487.583 1168.4 -508.863C1191.75 -528.295 1221.73 -538.998 1252.82 -539.001C1296.89 -539.001 1337.57 -517.976 1364.42 -481.315C1396.18 -437.95 1385.56 -389.403 1374.31 -338.006L1374.31 -338.005C1360.16 -273.328 1345.53 -206.45 1414.84 -144.839C1471.9 -94.1197 1510.47 -41.9867 1526.39 5.92535C1543.71 58.0783 1534.97 104.862 1500.41 144.974C1467.54 183.12 1418.85 204.999 1366.83 204.999C1299.33 204.999 1231.3 169.16 1175.28 104.084ZM1174.52 104.736C1230.73 170.036 1299.03 205.999 1366.83 205.999C1419.15 205.999 1468.11 183.994 1501.17 145.627C1535.98 105.228 1544.78 58.1193 1527.34 5.61035C1511.37 -42.4687 1472.69 -94.7517 1415.51 -145.585C1346.63 -206.807 1361.2 -273.396 1375.29 -337.792C1386.59 -389.416 1397.26 -438.177 1365.23 -481.905C1338.19 -518.828 1297.21 -540.003 1252.81 -540.001C1221.5 -539.999 1191.29 -529.213 1167.76 -509.631C1142 -488.192 1125.45 -457.531 1119.9 -420.963C1113.05 -375.809 1090.05 -334.343 1055.15 -304.202C1017.61 -271.781 968.478 -253.683 913.079 -251.862C860.384 -250.131 815.999 -233.345 784.725 -203.321C756.913 -176.621 741.047 -140.858 740.049 -102.621C739.057 -64.5057 752.922 -28.0287 779.092 0.090332C808.421 31.6023 851.169 50.5793 902.719 54.9713C908.083 55.4263 913.935 55.6483 920.609 55.6483C935.065 55.6483 951.096 54.5993 968.065 53.4883L968.075 53.4878C987.274 52.2308 1007.13 50.9313 1027.38 50.9313C1059.16 50.9313 1084.34 54.1623 1106.62 61.1013C1134.51 69.7833 1156.72 84.0563 1174.52 104.736ZM1058.49 -8.71613C1092.57 -8.71613 1135.53 -4.16809 1165.45 31.2959C1205.55 78.8239 1254.21 105 1302.47 105C1339.61 105 1374.36 89.0649 1397.83 61.2819C1422.48 32.0839 1428.71 -1.97711 1416.35 -39.9531C1404.95 -74.9581 1377.3 -113.07 1336.4 -150.17C1286.24 -195.655 1296.81 -244.92 1307.02 -292.562L1307.02 -292.564C1315.07 -330.085 1322.67 -365.525 1300.05 -397.048C1280.9 -423.709 1251.92 -439 1220.53 -439C1180.11 -438.998 1135.37 -412.411 1126.54 -353.018C1115.79 -280.713 1055.45 -230.35 976.392 -227.699C938.945 -226.443 907.422 -214.303 885.23 -192.591C865.528 -173.316 854.273 -147.487 853.538 -119.862C852.805 -92.2811 862.615 -65.8851 881.159 -45.5341C901.969 -22.6951 932.354 -8.93713 969.03 -5.75012C972.809 -5.41913 976.97 -5.25909 981.752 -5.25909C992.086 -5.25909 1003.56 -6.0249 1015.7 -6.83563L1015.75 -6.83911C1029.54 -7.76208 1043.8 -8.71613 1058.49 -8.71613ZM1302.47 106C1253.92 106 1204.98 79.6989 1164.69 31.9409C1135.03 -3.20807 1092.35 -7.71613 1058.49 -7.71613C1043.91 -7.71613 1029.63 -6.76312 1015.82 -5.84113L1015.76 -5.8371C1003.59 -5.02557 992.105 -4.25909 981.752 -4.25909C976.939 -4.25909 972.75 -4.4201 968.944 -4.75214C932.014 -7.96313 901.404 -21.8321 880.42 -44.8621C861.7 -65.4061 851.799 -92.0521 852.539 -119.89C853.281 -147.775 864.643 -173.848 884.532 -193.307C906.904 -215.195 938.658 -227.434 976.359 -228.697C1016.31 -230.038 1051.75 -243.36 1078.83 -267.224C1104.02 -289.41 1120.61 -319.931 1125.55 -353.165C1129.52 -379.856 1141.35 -402.229 1159.77 -417.866C1176.58 -432.138 1198.15 -439.999 1220.52 -440C1252.25 -440 1281.53 -424.557 1300.86 -397.631C1323.74 -365.751 1316.1 -330.101 1308.01 -292.359L1308 -292.353C1297.84 -244.987 1287.34 -196.01 1337.07 -150.909C1378.1 -113.695 1405.85 -75.4331 1417.3 -40.2621C1429.78 -1.93512 1423.48 32.4469 1398.59 61.9269C1374.93 89.9349 1339.9 106 1302.47 106ZM1161.07 -5.12231C1136.21 -34.3003 1100.58 -38.0423 1072.32 -38.0423C1060.29 -38.0423 1048.52 -37.2659 1037.14 -36.5152L1037.14 -36.515L1037.13 -36.5143L1036.98 -36.5043C1026.95 -35.8383 1017.48 -35.2103 1008.92 -35.2103C1005.02 -35.2103 1001.6 -35.3413 998.458 -35.6113C968.303 -38.2053 943.323 -49.3983 926.218 -67.9793C910.996 -84.5193 902.939 -105.968 903.531 -128.374C904.122 -150.836 913.354 -171.842 929.528 -187.522C947.766 -205.206 973.697 -215.094 1004.52 -216.119C1070.08 -218.294 1120.12 -259.685 1129.05 -319.112C1136.29 -367.387 1173.01 -388.998 1206.18 -389C1231.94 -389 1255.73 -376.568 1271.45 -354.892C1290 -329.298 1283.74 -300.423 1277.12 -269.854L1277.12 -269.852C1269.04 -232.539 1259.88 -190.247 1301.55 -152.815C1335.27 -122.528 1358.06 -91.4273 1367.45 -62.8743C1377.6 -32.0033 1372.48 -4.31732 1352.25 19.4117C1332.96 42.0277 1304.4 54.9997 1273.87 54.9997C1234.15 54.9997 1194.09 33.6477 1161.07 -5.12231ZM1160.31 -4.47229C1193.53 34.5237 1233.86 55.9997 1273.87 55.9997C1304.69 55.9997 1333.54 42.9007 1353.01 20.0617C1373.49 -3.95227 1378.66 -31.9613 1368.4 -63.1883C1358.96 -91.9043 1336.07 -123.154 1302.22 -153.561C1260.98 -190.603 1269.68 -230.784 1278.1 -269.642C1284.77 -300.439 1291.06 -329.528 1272.26 -355.479C1256.35 -377.419 1232.27 -390.001 1206.17 -390C1187.77 -389.999 1170.02 -383.596 1156.2 -371.971C1141.05 -359.235 1131.32 -341.008 1128.06 -319.261C1123.96 -291.982 1110.21 -266.932 1089.35 -248.723C1066.91 -229.145 1037.57 -218.216 1004.48 -217.117C973.411 -216.085 947.252 -206.1 928.832 -188.24C912.469 -172.376 903.129 -151.124 902.53 -128.398C901.933 -105.728 910.085 -84.0293 925.483 -67.3013C942.757 -48.5343 967.962 -37.2303 998.372 -34.6123C1001.53 -34.3423 1004.98 -34.2103 1008.92 -34.2103C1017.48 -34.2103 1026.98 -34.8393 1037.05 -35.5053C1048.46 -36.2613 1060.26 -37.0423 1072.32 -37.0423C1100.37 -37.0423 1135.72 -33.3403 1160.31 -4.47229ZM1245.26 5.99969C1213.8 5.99969 1182.07 -10.6523 1155.92 -40.8903C1136.4 -63.4713 1108.38 -66.3663 1086.15 -66.3663C1076.62 -66.3663 1067.29 -65.7583 1058.27 -65.1703L1058.24 -65.1681C1050.31 -64.6518 1042.83 -64.1643 1036.1 -64.1643C1033.01 -64.1643 1030.29 -64.2673 1027.8 -64.4773C1003.91 -66.5033 984.108 -75.2413 970.542 -89.7483C958.468 -102.66 952.068 -119.41 952.522 -136.912C952.978 -154.475 960.296 -170.903 973.128 -183.171C987.597 -197.002 1008.16 -204.736 1032.6 -205.536C1058.82 -206.394 1082.07 -214.928 1099.86 -230.218C1116.41 -244.449 1127.32 -264.031 1130.57 -285.354C1136.17 -322.149 1164.02 -339.133 1189.82 -339.968L1189.82 -338.967C1164.45 -338.132 1137.07 -321.41 1131.56 -285.205C1124.46 -238.659 1084.71 -206.241 1032.64 -204.536C1008.45 -203.745 988.108 -196.107 973.821 -182.449C961.179 -170.364 953.971 -154.183 953.523 -136.886C953.075 -119.649 959.378 -103.151 971.274 -90.4323C984.668 -76.1073 1004.24 -67.4773 1027.89 -65.4713C1030.36 -65.2653 1033.04 -65.1643 1036.1 -65.1643C1042.79 -65.1643 1050.26 -65.6493 1058.16 -66.1633L1058.32 -66.1733C1067.32 -66.7603 1076.62 -67.3663 1086.15 -67.3663C1106.84 -67.3663 1136.66 -64.6893 1156.68 -41.5423C1182.63 -11.5283 1214.09 4.99969 1245.26 4.99969C1269.19 4.99969 1291.58 -5.01031 1306.68 -22.4623C1322.48 -40.7223 1326.47 -62.0293 1318.55 -85.7923C1311.17 -107.887 1293.25 -131.977 1266.72 -155.458C1233.52 -184.834 1240.8 -217.939 1247.22 -247.147L1247.22 -247.148C1252.41 -270.773 1257.31 -293.082 1242.85 -312.729C1230.98 -328.871 1213.2 -338.357 1193.82 -338.969V-339.969C1213.52 -339.356 1231.59 -329.722 1243.66 -313.322C1258.39 -293.306 1253.44 -270.781 1248.19 -246.933L1248.19 -246.929C1241.52 -216.576 1234.62 -185.191 1267.38 -156.206C1294.04 -132.607 1312.07 -108.369 1319.49 -86.1093C1327.54 -61.9893 1323.49 -40.3543 1307.44 -21.8083C1292.14 -4.13629 1269.48 5.99969 1245.26 5.99969ZM1013.55 79.2575C1066.53 79.2575 1133.28 86.2185 1179.66 140.497C1242.75 214.336 1319.38 255 1395.43 255C1454.06 255 1508.94 230.156 1545.99 186.839C1584.97 141.263 1594.83 88.1075 1575.29 28.8505C1557.36 -25.5195 1513.93 -84.6645 1449.69 -142.19C1371.88 -211.858 1388.32 -287.534 1404.22 -360.717C1416.89 -419.061 1428.86 -474.171 1393.02 -523.467C1362.74 -565.115 1316.87 -589.001 1267.18 -589.001C1232.12 -588.999 1198.31 -576.838 1171.97 -554.76C1143.12 -530.577 1124.59 -495.982 1118.38 -454.717C1101.67 -343.781 1007.88 -266.512 884.989 -262.443C825.914 -260.487 776.163 -241.546 741.116 -207.665C709.969 -177.555 692.191 -137.216 691.058 -94.0825C689.928 -51.0605 705.448 -9.88849 734.762 21.8515C767.627 57.4415 815.559 78.8745 873.374 83.8345C879.349 84.3505 885.911 84.6015 893.436 84.6015C909.653 84.6015 927.65 83.4155 946.702 82.1595L946.822 82.1525L946.846 82.1511C968.415 80.7284 990.719 79.2575 1013.49 79.2575H1013.55ZM1395.43 256C1359.09 256 1322.65 246.904 1287.12 228.966C1248.4 209.415 1211.99 179.87 1178.9 141.15C1158.91 117.749 1133.96 101.596 1102.63 91.7715C1077.59 83.9155 1049.28 80.2575 1013.55 80.2575C990.766 80.2575 968.46 81.7275 946.888 83.1493L946.824 83.1535L946.736 83.1594L946.733 83.1595C927.677 84.4153 909.675 85.6015 893.436 85.6015C885.899 85.6015 879.308 85.3495 873.288 84.8325C815.221 79.8485 767.065 58.3055 734.028 22.5305C704.536 -9.4035 688.92 -50.8265 690.057 -94.1075C691.197 -137.505 709.083 -178.089 740.422 -208.384C775.649 -242.44 825.628 -261.478 884.956 -263.442C947.224 -265.504 1002.44 -285.995 1044.64 -322.702C1083.86 -356.82 1109.69 -403.758 1117.39 -454.868C1123.64 -496.379 1142.29 -531.184 1171.33 -555.525C1197.84 -577.755 1231.88 -589.999 1267.17 -590.001C1317.19 -590.005 1363.36 -565.968 1393.83 -524.055C1429.93 -474.397 1417.92 -419.076 1405.2 -360.506L1405.2 -360.504C1389.36 -287.599 1372.99 -212.212 1450.36 -142.932C1514.73 -85.2915 1558.26 -25.9985 1576.24 28.5375C1595.9 88.1485 1585.98 141.628 1546.75 187.491C1509.51 231.029 1454.36 256 1395.43 256ZM1170.36 67.6871C1134.74 25.9591 1083.55 20.6071 1042.93 20.6071C1025.48 20.6071 1008.4 21.7361 991.876 22.8281L991.656 22.8411L991.602 22.8448C977.14 23.7974 963.481 24.6971 951.18 24.6971C945.495 24.6971 940.501 24.5061 935.917 24.1141C891.928 20.3341 855.472 4.02014 830.491 -23.0639C808.224 -47.2029 796.435 -78.5119 797.294 -111.228C798.156 -144.026 811.661 -174.698 835.323 -197.593C861.964 -223.376 899.804 -237.791 944.751 -239.28C1038.98 -242.404 1110.9 -301.734 1123.71 -386.915C1128.43 -418.298 1142.5 -444.602 1164.41 -462.981C1184.4 -479.758 1210.06 -488.998 1236.68 -489C1274.41 -489 1309.24 -470.841 1332.24 -439.179C1359.43 -401.739 1350.32 -359.747 1340.67 -315.285L1340.67 -315.279C1328.48 -259.12 1315.89 -201.05 1375.62 -147.502C1424.6 -103.591 1457.71 -58.4679 1471.37 -17.0109C1486.21 28.0521 1478.73 68.4721 1449.12 103.127C1420.95 136.092 1379.23 155 1334.65 155C1276.77 155 1218.43 123.992 1170.36 67.6871ZM1169.6 68.3361C1217.86 124.867 1276.47 156 1334.65 156C1379.52 156 1421.52 136.964 1449.88 103.776C1479.73 68.8361 1487.28 28.0911 1472.32 -17.3259C1458.61 -58.9509 1425.4 -104.222 1376.29 -148.247C1316.99 -201.408 1329.52 -259.191 1341.65 -315.073L1341.65 -315.074C1351.34 -359.757 1360.5 -401.962 1333.04 -439.767C1309.86 -471.694 1274.73 -490.003 1236.67 -490C1209.83 -489.998 1183.93 -480.675 1163.76 -463.747C1141.67 -445.209 1127.48 -418.693 1122.72 -387.064C1116.83 -347.87 1097.04 -311.876 1066.99 -285.712C1034.68 -257.571 992.396 -241.86 944.719 -240.28C899.52 -238.782 861.451 -224.269 834.626 -198.312C810.777 -175.232 797.163 -144.315 796.294 -111.253C795.427 -78.2779 807.31 -46.7169 829.755 -22.3859C854.911 4.88409 891.59 21.3081 935.83 25.1091C940.415 25.5041 945.437 25.6971 951.18 25.6971C963.592 25.6971 977.364 24.7881 991.943 23.8251C1008.45 22.7341 1025.52 21.6071 1042.93 21.6071C1083.34 21.6071 1134.25 26.9191 1169.6 68.3361Z" fill="#EDF1F4"/>
</g>
<g style="mix-blend-mode:multiply" opacity="0.284877">
<circle cx="1174" cy="371.5" r="337" fill="#B2C8EA"/>
</g>
</g>
</svg>
