<svg width="450" height="321" viewBox="0 0 637 421" fill="none" xmlns="http://www.w3.org/2000/svg">
<rect width="532.954" height="420.511" rx="49" fill="white"/>
<path d="M533.362 32.9477H0.59375C1.34624 28.4931 2.81582 24.2787 4.86974 20.4618C11.4299 8.26234 23.9393 0 38.2724 0H495.683C510.007 0 522.526 8.26234 529.077 20.4618C531.131 24.2787 532.609 28.4931 533.362 32.9477Z" fill="#F2F2F2"/>
<path d="M637.003 419.311C637.003 419.921 636.534 420.411 635.95 420.411H417.022C416.438 420.411 415.969 419.921 415.969 419.311C415.969 419.015 416.075 418.756 416.252 418.562H495.682C497.373 418.562 499.028 418.442 500.657 418.211H635.95C636.534 418.211 637.003 418.701 637.003 419.311Z" fill="#3F3D56"/>
<path d="M391.496 195.133H142.447C140.133 195.133 138.25 192.646 138.25 189.588C138.25 186.53 140.133 184.043 142.447 184.043H391.496C393.811 184.043 395.694 186.53 395.694 189.588C395.694 192.646 393.811 195.133 391.496 195.133Z" fill="#E6E6E6"/>
<path d="M533.361 32.9477C532.609 28.4931 531.13 24.2787 529.076 20.4618C522.525 8.26234 510.007 0 495.683 0H38.2718C23.9387 0 11.4293 8.26234 4.86918 20.4618C2.81526 24.2787 1.34568 28.4931 0.59319 32.9477C0.203656 35.2212 0 37.5595 0 39.9531V380.456C0 402.489 17.1661 420.409 38.2718 420.409H495.683C500.056 420.409 504.27 419.633 508.192 418.209C523.171 412.794 533.954 397.914 533.954 380.456V39.9531C533.954 37.5687 533.751 35.2212 533.361 32.9477ZM532.184 380.456C532.184 399.735 518.461 415.677 500.658 418.209C499.029 418.44 497.374 418.561 495.683 418.561H92.6384C42.4504 418.561 1.77061 376.084 1.77061 323.692V39.9531C1.77061 37.5595 1.98308 35.2212 2.39033 32.9477C3.18713 28.4561 4.73641 24.251 6.90538 20.4618C13.2707 9.31595 24.9391 1.8484 38.2718 1.8484H495.683C509.015 1.8484 520.684 9.31595 527.049 20.4618C529.218 24.251 530.767 28.4561 531.564 32.9477C531.971 35.2212 532.184 37.5595 532.184 39.9531V380.456Z" fill="#3F3D56"/>
<path d="M509.867 199.699L506.871 188.232L520.352 183.02L521.85 193.444L509.867 199.699Z" fill="#FFB6B6"/>
<path opacity="0.1" d="M509.867 199.697L506.871 188.23L514.81 184.734L512.344 198.253L509.867 199.697Z" fill="black"/>
<path d="M470.395 297.975C467.82 296.375 467.684 291.655 470.091 287.43C471.145 285.581 472.512 284.134 473.931 283.225L475.345 280.814L493.23 247.343C493.23 247.343 501.059 215.776 504.246 211.959C507.433 208.142 512.042 209.041 512.042 209.041L516.129 212.832L501.54 257.542L483.537 284.01L481.124 287.693C481.036 289.429 480.47 291.373 479.416 293.222C477.009 297.446 472.97 299.574 470.395 297.975Z" fill="#FFB6B6"/>
<path d="M509.123 196.424C509.123 196.424 514.811 196.194 518.4 200.807C521.99 205.42 503.186 257.413 503.186 257.413L487.871 256.847L509.123 196.424Z" fill="#AD63FF"/>
<path d="M510.613 190.052C518.334 190.052 524.594 183.518 524.594 175.458C524.594 167.397 518.334 160.863 510.613 160.863C502.892 160.863 496.633 167.397 496.633 175.458C496.633 183.518 502.892 190.052 510.613 190.052Z" fill="#FFB6B6"/>
<path d="M477.91 387.344L468.423 411.842L462.931 406.109L460.934 395.163L468.922 384.738L477.91 387.344Z" fill="#FFB6B6"/>
<path d="M566.783 378.484L576.269 389.952L571.776 399.334L561.79 397.77L556.797 383.175L566.783 378.484Z" fill="#FFB6B6"/>
<path d="M503.627 241.656L502.379 262.766L533.335 257.033L531.338 244.002L503.627 241.656Z" fill="#FFB6B6"/>
<path d="M502.129 263.033L533.335 252.348C533.335 252.348 544.819 276.324 532.336 291.44C519.854 306.556 478.412 392.559 478.412 392.559L465.93 386.305L483.904 331.575L503.876 281.015L502.129 263.033Z" fill="#2F2E41"/>
<path d="M532.332 282.574L544.315 337.304L569.28 379.524L556.298 387.342L521.347 337.304L509.863 298.732L532.332 282.574Z" fill="#2F2E41"/>
<path d="M456.442 393.076H447.795C447.795 393.076 437.705 388.906 435.34 393.076C432.975 397.246 445.891 409.072 445.891 409.072C445.891 409.072 463.932 419.659 466.428 419.138C468.925 418.616 469.923 412.362 469.923 412.362L472.919 405.064L468.425 406.628C468.425 406.628 462.434 402.979 463.932 396.725L456.442 393.076Z" fill="#2F2E41"/>
<path d="M574.276 391.517V386.305L580.081 391.517C580.081 391.517 589.754 395.166 582.265 402.984C574.775 410.803 565.289 419.142 565.289 419.142C565.289 419.142 550.31 423.312 549.311 418.621C548.312 413.93 549.311 412.032 549.311 412.032L554.803 409.239L559.796 395.687L567.785 396.729L574.276 391.517Z" fill="#2F2E41"/>
<path d="M514.862 178.328L510.369 177.807L502.13 169.206C502.13 169.206 494.641 173.376 494.641 170.249C494.641 155.654 503.129 156.176 510.119 155.133C517.109 154.091 516.36 153.83 518.607 157.739C519.634 159.527 523.35 160.606 523.35 160.606C523.35 160.606 530.34 150.703 533.836 162.691C537.331 174.679 532.837 211.687 536.332 214.814C539.827 217.942 521.981 221.065 523.914 208.818C525.847 196.571 529.342 177.807 527.345 173.637C525.347 169.467 524.848 170.51 524.848 170.51C527.323 169.455 528.94 188.036 519.608 188.946L519.356 179.892C519.356 179.892 517.858 175.201 514.862 178.328Z" fill="#2F2E41"/>
<path d="M508.623 196.306L523.602 190.051L543.574 252.599L502.482 251.036L498.782 232.368C498.782 232.368 495.169 222.651 498.165 216.918C501.161 211.184 508.623 196.306 508.623 196.306Z" fill="#AD63FF"/>
<path d="M547.594 301.091C544.609 301.359 541.863 297.606 541.46 292.709C541.283 290.565 541.585 288.558 542.231 286.955L542.033 284.136L537.873 246.057C537.873 246.057 530.128 214.908 530.586 209.867C531.044 204.827 531.768 203.488 531.768 203.488L537.205 204.08L550.32 249.285L550.474 281.747L550.57 286.208C551.468 287.671 552.094 289.596 552.27 291.739C552.673 296.637 550.58 300.824 547.594 301.091Z" fill="#FFB6B6"/>
<path d="M522.348 195.01C522.348 195.01 526.841 191.361 532.334 192.925C537.826 194.488 551.584 248.175 551.584 248.175L538.824 257.036L522.348 195.01Z" fill="#AD63FF"/>
<path d="M262.232 285.243H202.336C198.681 285.243 195.707 282.138 195.707 278.322V272.068C195.707 268.252 198.681 265.148 202.336 265.148H262.232C265.888 265.148 268.862 268.252 268.862 272.068V278.322C268.862 282.138 265.888 285.243 262.232 285.243Z" fill="#AD63FF"/>
<path d="M492.416 80.8793H432.52C428.865 80.8793 425.891 77.7745 425.891 73.9586V67.7049C425.891 63.889 428.865 60.7852 432.52 60.7852H492.416C496.071 60.7852 499.045 63.889 499.045 67.7049V73.9586C499.045 77.7745 496.071 80.8793 492.416 80.8793Z" fill="#AD63FF"/>
<path d="M351.089 285.71H291.193C287.294 285.71 284.121 282.397 284.121 278.327V272.073C284.121 268.003 287.294 264.691 291.193 264.691H351.089C354.989 264.691 358.161 268.003 358.161 272.073V278.327C358.161 282.397 354.989 285.71 351.089 285.71ZM291.193 266.54C288.27 266.54 285.892 269.022 285.892 272.073V278.327C285.892 281.378 288.27 283.861 291.193 283.861H351.089C354.012 283.861 356.391 281.378 356.391 278.327V272.073C356.391 269.022 354.012 266.54 351.089 266.54H291.193Z" fill="#AD63FF"/>
<path d="M424.555 166.489H109.386C106.457 166.489 104.074 164.001 104.074 160.944C104.074 157.886 106.457 155.398 109.386 155.398H424.555C427.484 155.398 429.867 157.886 429.867 160.944C429.867 164.001 427.484 166.489 424.555 166.489Z" fill="#E6E6E6"/>
<path d="M89.3185 76.3755H49.4798C46.5507 76.3755 44.168 73.8881 44.168 70.8304C44.168 67.7726 46.5507 65.2852 49.4798 65.2852H89.3185C92.2477 65.2852 94.6304 67.7726 94.6304 70.8304C94.6304 73.8881 92.2477 76.3755 89.3185 76.3755Z" fill="#E6E6E6"/>
<path d="M327.467 76.3755H287.628C284.699 76.3755 282.316 73.8881 282.316 70.8304C282.316 67.7726 284.699 65.2852 287.628 65.2852H327.467C330.396 65.2852 332.779 67.7726 332.779 70.8304C332.779 73.8881 330.396 76.3755 327.467 76.3755Z" fill="#E6E6E6"/>
<path d="M402.717 76.3755H362.878C359.949 76.3755 357.566 73.8881 357.566 70.8304C357.566 67.7726 359.949 65.2852 362.878 65.2852H402.717C405.646 65.2852 408.029 67.7726 408.029 70.8304C408.029 73.8881 405.646 76.3755 402.717 76.3755Z" fill="#E6E6E6"/>
<path d="M354.622 223.786H179.331C176.402 223.786 174.02 221.298 174.02 218.241C174.02 215.183 176.402 212.695 179.331 212.695H354.622C357.551 212.695 359.934 215.183 359.934 218.241C359.934 221.298 357.551 223.786 354.622 223.786Z" fill="#E6E6E6"/>
<path d="M362.259 345.093H171.692C169.921 345.093 168.48 343.589 168.48 341.74C168.48 339.891 169.921 338.387 171.692 338.387H362.259C364.031 338.387 365.471 339.891 365.471 341.74C365.471 343.589 364.031 345.093 362.259 345.093Z" fill="#E6E6E6"/>
<path d="M364.029 19.7761H173.462C171.691 19.7761 170.25 18.2721 170.25 16.4232C170.25 14.5743 171.691 13.0703 173.462 13.0703H364.029C365.8 13.0703 367.241 14.5743 367.241 16.4232C367.241 18.2721 365.8 19.7761 364.029 19.7761Z" fill="white"/>
</svg>
