<svg width="509" height="515" viewBox="0 0 509 515" fill="none" xmlns="http://www.w3.org/2000/svg">
<g clip-path="url(#clip0_128_4464)">
<path d="M114.162 86.0039L110.281 106.356L129.628 111.804L127.224 90.0764L114.162 86.0039Z" fill="#A0616A"/>
<path d="M0 507.294C0 507.934 0.5142 508.447 1.15452 508.447H507.846C508.486 508.447 509 507.934 509 507.294C509 506.654 508.486 506.141 507.846 506.141H1.15452C0.5142 506.141 0 506.654 0 507.294Z" fill="white"/>
<path d="M345.401 230.957H145.875C123.249 230.957 104.906 249.281 104.906 271.884V465.163C104.906 487.766 123.249 506.09 145.875 506.09H345.401C368.028 506.09 386.37 487.766 386.37 465.163V271.884C386.37 249.281 368.028 230.957 345.401 230.957Z" fill="white"/>
<path d="M345.403 507.059H145.876C122.751 507.059 103.938 488.265 103.938 465.163V271.884C103.938 248.783 122.751 229.988 145.876 229.988H345.403C368.528 229.988 387.342 248.783 387.342 271.884V465.163C387.342 488.265 368.528 507.059 345.403 507.059ZM145.876 231.927C123.821 231.927 105.878 249.851 105.878 271.884V465.163C105.878 487.196 123.821 505.121 145.876 505.121H345.403C367.458 505.121 385.401 487.196 385.401 465.163V271.884C385.401 249.851 367.458 231.927 345.403 231.927L145.876 231.927Z" fill="#3F3D56"/>
<path d="M359.856 314.751H279.657C276.256 314.751 273.488 311.987 273.488 308.589C273.488 305.19 276.256 302.426 279.657 302.426H359.856C363.258 302.426 366.025 305.19 366.025 308.589C366.025 311.987 363.258 314.751 359.856 314.751Z" fill="#AD63FF"/>
<path d="M284.619 363.215H206.662C204.697 363.215 203.098 361.617 203.098 359.654C203.098 357.691 204.697 356.094 206.662 356.094H284.619C286.585 356.094 288.183 357.691 288.183 359.654C288.183 361.617 286.585 363.215 284.619 363.215Z" fill="#AD63FF"/>
<path d="M174.433 244.195H129.926C129.76 244.195 129.625 244.33 129.625 244.496V249.672C129.625 249.838 129.76 249.973 129.926 249.973H174.433C174.6 249.973 174.734 249.838 174.734 249.672V244.496C174.734 244.33 174.6 244.195 174.433 244.195Z" fill="#AD63FF"/>
<path d="M324.349 249.97C326.904 249.97 328.976 247.901 328.976 245.348C328.976 242.796 326.904 240.727 324.349 240.727C321.794 240.727 319.723 242.796 319.723 245.348C319.723 247.901 321.794 249.97 324.349 249.97Z" fill="#3F3D56"/>
<path d="M337.072 249.97C339.627 249.97 341.699 247.901 341.699 245.348C341.699 242.796 339.627 240.727 337.072 240.727C334.517 240.727 332.445 242.796 332.445 245.348C332.445 247.901 334.517 249.97 337.072 249.97Z" fill="#3F3D56"/>
<path d="M349.795 249.97C352.35 249.97 354.421 247.901 354.421 245.348C354.421 242.796 352.35 240.727 349.795 240.727C347.239 240.727 345.168 242.796 345.168 245.348C345.168 247.901 347.239 249.97 349.795 249.97Z" fill="#3F3D56"/>
<path d="M145.391 382.274C145.391 382.914 145.905 383.428 146.545 383.428H344.734C345.374 383.428 345.888 382.914 345.888 382.274C345.888 381.635 345.374 381.121 344.734 381.121H146.545C145.905 381.121 145.391 381.635 145.391 382.274Z" fill="#3F3D56"/>
<path d="M205.837 97.802C210.056 94.3192 215.275 93.6709 217.493 96.3537C219.712 99.0365 218.089 104.034 213.868 107.517C212.201 108.932 210.219 109.927 208.088 110.419L190.024 124.951L183.379 116.337L201.892 102.926C202.778 100.928 204.131 99.1709 205.837 97.802Z" fill="#A0616A"/>
<path d="M101.43 130.59C101.421 129.947 101.427 124.342 105.582 120.799C110.354 116.729 117.087 118.376 119.449 118.954C124.905 120.288 125.352 122.626 130.475 125.029C140.061 129.523 128.051 127.223 133.754 125.781C135.729 125.283 164.131 123.315 171.201 118.968C184.951 110.513 194.32 105.387 194.32 105.387L200.445 117.624C200.445 117.624 191.589 129.925 179.124 139.039C166.339 148.387 159.946 153.061 150.23 154.867C149.394 155.023 128.817 158.532 112.245 146.164C108.465 143.342 101.538 138.173 101.43 130.59Z" fill="#E6E6E6"/>
<path d="M120.43 99.4679C132.213 99.4679 141.765 89.9253 141.765 78.1539C141.765 66.3825 132.213 56.8398 120.43 56.8398C108.646 56.8398 99.0938 66.3825 99.0938 78.1539C99.0938 89.9253 108.646 99.4679 120.43 99.4679Z" fill="#A0616A"/>
<path d="M287.519 221.352L265.546 198.883L254.203 210.702L270.574 232.246L286.812 234.101L287.519 221.352Z" fill="#A0616A"/>
<path d="M162.054 179.217C163.339 179.324 167.424 180.141 171.327 177.996C173.991 176.532 175.358 174.354 175.819 173.662C181.544 165.072 203.519 151.677 223.24 150.853C227.706 150.666 230.646 151.183 233.318 152.575C237.106 154.548 238.619 157.374 243.427 163.994C246.057 167.615 248.967 171.027 251.628 174.625C267.211 195.691 273.118 197.345 272.514 204.098C271.844 211.591 263.755 218.7 258.378 217.879C256.176 217.543 255.323 216.014 252.382 212.917C243.756 203.839 240.187 205.516 234.046 198.562C226.877 190.444 227.815 183.712 224.074 183.452C220.606 183.211 219.131 188.954 211.726 196.582C208.337 200.073 205.924 201.674 198.572 206.769C169.943 226.611 169.486 228.005 163.708 229.587C161.18 230.28 143.239 235.194 136.847 227.374C126.846 215.137 150.474 178.256 162.054 179.217Z" fill="#2F2E41"/>
<path d="M280.803 226.428C282.419 225.703 284.309 224.856 284.917 222.906C285.328 221.588 285.091 219.961 284.241 218.838C283.26 217.541 281.808 217.37 281.867 217.141C281.956 216.791 285.39 216.928 289.159 218.259C289.871 218.51 293.093 219.686 297.192 222.883C300.476 225.445 300.035 225.958 302.094 227.435C308.416 231.969 314.345 228.396 317.766 232.647C319.086 234.288 319.649 236.618 319.093 238.501C317.978 242.284 312.552 243.586 309.587 244.258C302.445 245.877 297.039 244.555 291.395 243.605C272.199 240.374 261.414 243.317 259.971 238.874C259.697 238.033 260.141 238.105 261.621 231.935C263.082 225.845 263.034 224.172 264.278 223.685C266.151 222.951 267.408 226.29 272.126 227.433C276.307 228.445 279.756 226.898 280.803 226.428Z" fill="#2F2E41"/>
<path d="M248.46 294.856L242.908 263.938L226.879 267.355L228.315 294.365L240.708 305.009L248.46 294.856Z" fill="#A0616A"/>
<path d="M168.325 189.608C169.329 190.417 172.249 193.385 176.685 193.799C179.713 194.082 182.067 193.047 182.838 192.733C192.404 188.837 218.116 190.08 234.898 200.461C238.698 202.812 240.84 204.889 242.269 207.539C244.295 211.297 243.958 214.484 244.214 222.659C244.355 227.131 244.845 231.586 245.025 236.056C246.077 262.228 250.036 266.91 245.74 272.16C240.974 277.984 230.284 279.329 226.296 275.633C224.663 274.12 224.818 272.376 224.124 268.164C222.09 255.813 218.194 255.199 217.021 246C215.652 235.261 220.213 230.217 217.264 227.903C214.529 225.758 210.081 229.683 199.665 231.841C194.899 232.828 192.002 232.8 183.055 232.891C148.212 233.249 147.051 234.146 141.38 232.215C138.9 231.37 121.292 225.371 120.399 215.315C119.002 199.579 159.284 182.317 168.325 189.608Z" fill="#2F2E41"/>
<path d="M240.046 295.288C241.791 295.595 243.831 295.954 245.429 294.682C246.511 293.821 247.229 292.343 247.157 290.936C247.074 289.313 245.969 288.357 246.146 288.2C246.417 287.961 249.181 290 251.552 293.216C251.999 293.823 254.005 296.604 255.599 301.549C256.877 305.511 256.223 305.688 257.097 308.065C259.779 315.362 266.694 315.732 267.135 321.169C267.305 323.267 266.461 325.511 264.943 326.758C261.893 329.262 256.672 327.295 253.84 326.188C247.021 323.521 243.291 319.395 239.155 315.443C225.088 302.001 214.509 298.386 215.812 293.9C216.058 293.051 216.385 293.36 221.078 289.084C225.71 284.865 226.611 283.454 227.914 283.748C229.876 284.192 229.04 287.66 232.301 291.252C235.191 294.435 238.915 295.09 240.046 295.288Z" fill="#2F2E41"/>
<path d="M123.337 82.2284C124.168 79.2602 123.125 78.1785 124.188 76.8462C124.188 76.8461 124.616 76.31 128.442 74.8633C127.313 68.3211 128.158 67.2149 128.158 67.2149C129.132 65.9399 131.083 65.6317 132.411 65.7985C135.221 66.1513 135.718 68.6882 137.516 68.6313C139.999 68.5526 142.977 63.587 142.053 59.2832C141.298 55.7725 138.047 53.1653 137.232 53.6178C136.424 54.0663 133.515 52.0883 132.411 52.4847C131.658 52.7553 128.111 52.3952 127.307 52.7679C126.429 53.175 123.914 55.7091 123.674 55.3898C122.003 53.171 122.038 52.3963 121.069 51.9181C119.351 51.0707 117.484 52.6369 114.263 54.1843C107.638 57.368 105.698 55.4689 102.637 58.1501C101.091 59.5046 100.262 62.0931 98.6674 67.2149C96.437 74.3776 95.3217 77.959 96.3989 81.3786C97.4975 84.8659 99.1153 84.1069 101.503 89.0269C104.161 94.5038 103.245 97.6873 105.757 98.9415C107.698 99.9109 110.817 99.2939 111.995 97.5251C114.011 94.4968 108.799 90.4002 110.577 85.6277C111.668 82.6981 115.035 80.4767 117.099 81.0953C119.433 81.7947 119.605 85.9756 121.069 85.9109C122.322 85.8555 123.193 82.7456 123.337 82.2284Z" fill="#2F2E41"/>
<path d="M107.172 102.623C111.538 97.7325 129.322 102.794 130.991 110.555C131.678 113.747 129.143 115.094 129.857 118.77C130.901 124.145 136.812 123.779 141.2 129.251C147.429 137.019 141.011 144.613 148.005 157.578C149.499 160.348 150.759 162.683 153.393 164.943C159.436 170.129 165.061 168.35 168.138 173.158C170.439 176.753 169.494 181.185 169.272 182.223C168.364 186.479 165.903 187.517 164.168 191.004C161.282 196.807 164.55 201.068 164.735 208.001C164.967 216.675 160.353 228.7 151.124 232.646C140.756 237.078 128.252 229.737 122.201 222.448C118.59 218.098 117.542 214.086 115.962 209.134C108.903 187.001 104.914 189.003 99.5158 171.458C93.3441 151.402 92.1308 127.905 99.5158 120.469C100.495 119.484 103.188 117.206 104.903 113.104C107.211 107.585 105.218 104.812 107.172 102.623Z" fill="#E6E6E6"/>
<path d="M171.687 216.463C175.072 220.759 175.597 225.987 172.86 228.138C170.122 230.29 165.16 228.551 161.774 224.252C160.398 222.554 159.449 220.551 159.007 218.411L144.895 200.025L152.187 194.469L166.653 212.401C168.632 213.334 170.358 214.727 171.687 216.463Z" fill="#A0616A"/>
<path d="M120.002 121.26C120.63 121.12 126.124 119.982 130.444 123.322C135.406 127.158 135.166 134.079 135.081 136.507C134.887 142.115 132.687 143.029 131.378 148.53C128.93 158.821 133.593 168.385 136.169 173.669C137.06 175.498 139.925 181.094 145.628 187.122C156.718 198.844 166.614 205.012 166.614 205.012L155.983 214.452C155.983 214.452 139.05 209.296 127.575 198.966C115.806 188.369 97.7057 150.878 93.9535 141.745C93.6304 140.958 98.2075 153.745 106.947 135.014C108.94 130.741 112.593 122.913 120.002 121.26Z" fill="#E6E6E6"/>
<path d="M265.763 408.675C259.006 409.71 254.063 414.031 254.723 418.327C255.383 422.623 261.395 425.265 268.154 424.23C270.86 423.853 273.436 422.834 275.667 421.259L304.241 416.514L302.334 405.23L273.824 409.261C271.223 408.425 268.458 408.224 265.763 408.675Z" fill="#FFB6B6"/>
<path d="M388.895 373.503L377.815 396.99L322.116 415.722L275.896 418.185L274.738 407.095L324.83 396.632L376.23 372.367L388.895 373.503Z" fill="#E6E6E6"/>
<path d="M286.164 462.687L276.217 487.823L263.344 479.055L270.951 452.75L286.164 462.687Z" fill="#FFB6B6"/>
<path d="M244.62 453.332L218.289 478.468L228.822 489.574L255.738 468.53L244.62 453.332Z" fill="#FFB6B6"/>
<path d="M393.831 371.495L393.539 369.449L386.81 356.297L364.574 362.142L368.67 380.263L393.831 371.495Z" fill="#FFB6B6"/>
<path d="M384.468 459.177L385.152 467.956C385.152 467.956 387.979 504.771 365.159 507.694C342.338 510.617 332.391 513.539 318.932 490.742L297.867 453.331L285.563 467.956L269.195 455.085C269.195 455.085 280.898 409.49 290.26 407.737C291.431 407.517 292.601 407.408 293.753 407.384C301.504 407.223 308.81 411.01 313.448 417.216L339.998 452.747L349.652 448.363L384.468 459.177Z" fill="#2F2E41"/>
<path d="M258.078 486.652L263.344 476.715L278.558 487.237C278.558 487.237 282.069 500.097 276.803 501.85C271.536 503.604 256.908 501.266 256.908 501.266C256.908 501.266 229.991 507.111 229.406 501.85C228.821 496.589 241.694 495.42 241.694 495.42L258.078 486.652Z" fill="#2F2E41"/>
<path d="M315.421 479.636L274.754 454.038L253.981 472.621L239.938 456.254C239.938 456.254 265.684 418.258 273.291 416.505C280.897 414.751 293.186 413.582 293.186 413.582L330.635 448.07L315.421 479.636Z" fill="#2F2E41"/>
<path d="M217.704 476.129L231.162 490.743L229.387 492.259C229.387 492.259 225.896 507.45 217.704 502.312C209.512 497.173 208.927 496.003 208.927 496.003C208.927 496.003 185.521 501.264 183.18 491.912C180.84 482.559 187.276 484.313 187.276 484.313L193.121 487.82L217.704 476.129Z" fill="#2F2E41"/>
<path d="M371.596 368.575C381.937 368.575 390.32 360.2 390.32 349.87C390.32 339.539 381.937 331.164 371.596 331.164C361.254 331.164 352.871 339.539 352.871 349.87C352.871 360.2 361.254 368.575 371.596 368.575Z" fill="#FFB6B6"/>
<path d="M367.208 376.465L394.124 368.281C394.124 368.281 404.657 392.832 402.902 403.939C401.146 415.045 385.153 467.958 385.153 467.958L349.654 448.364C349.654 448.364 349.068 436.673 347.313 431.412C345.558 426.151 339.999 410.076 352.287 396.632C364.575 383.187 367.208 376.465 367.208 376.465Z" fill="#E6E6E6"/>
<path d="M307.966 499.208C303.585 504.451 302.742 510.959 306.083 513.743C309.423 516.527 315.681 514.534 320.062 509.289C321.841 507.218 323.098 504.751 323.727 502.095L342.006 479.648L333.102 472.449L314.397 494.318C311.893 495.412 309.688 497.089 307.966 499.208Z" fill="#FFB6B6"/>
<path d="M387.855 388.258L394.217 413.433L363.079 463.226L331.291 495.141L320.988 486.602L353.047 446.754L377.347 395.411L387.855 388.258Z" fill="#E6E6E6"/>
<path d="M354.333 346.653C359.135 346.642 359.408 346.674 360.185 346.653C366.141 346.497 367.698 344.156 370.717 344.315C376.106 344.6 368.994 371.588 366.036 384.064C363.135 396.301 372.939 407.265 373.643 408.031C383.593 418.841 401.071 420.818 404.07 416.214C406.498 412.488 397.895 406.822 399.974 398.678C402.007 390.717 411.394 391.564 414.018 384.064C416.766 376.21 407.531 372.248 401.73 353.083C398.398 342.077 398.987 340.026 395.879 333.209C387.568 314.987 346.835 322.745 351.408 339.639C352.292 342.907 349.938 346.664 354.333 346.653Z" fill="#2F2E41"/>
<path d="M414.127 124.594H217.335C211.77 124.594 207.242 120.071 207.242 114.511V10.0825C207.242 4.52331 211.77 0 217.335 0H414.127C419.692 0 424.22 4.5233 424.22 10.0825V114.511C424.22 120.071 419.692 124.594 414.127 124.594Z" fill="white"/>
<path d="M414.127 124.594H217.335C211.77 124.594 207.242 120.071 207.242 114.511V10.0825C207.242 4.52331 211.77 0 217.335 0H414.127C419.692 0 424.22 4.5233 424.22 10.0825V114.511C424.22 120.071 419.692 124.594 414.127 124.594ZM217.335 1.6837C212.699 1.6837 208.928 5.45148 208.928 10.0825V114.511C208.928 119.142 212.699 122.91 217.335 122.91H414.127C418.763 122.91 422.534 119.142 422.534 114.511V10.0825C422.534 5.45148 418.763 1.6837 414.127 1.6837H217.335Z" fill="#3F3D56"/>
<path d="M398.938 12.6292C400.335 12.6292 401.466 11.4985 401.466 10.1037C401.466 8.70885 400.335 7.57812 398.938 7.57812C397.542 7.57812 396.41 8.70885 396.41 10.1037C396.41 11.4985 397.542 12.6292 398.938 12.6292Z" fill="#3F3D56"/>
<path d="M405.68 12.6292C407.077 12.6292 408.209 11.4985 408.209 10.1037C408.209 8.70885 407.077 7.57812 405.68 7.57812C404.284 7.57812 403.152 8.70885 403.152 10.1037C403.152 11.4985 404.284 12.6292 405.68 12.6292Z" fill="#3F3D56"/>
<path d="M412.423 12.6292C413.819 12.6292 414.951 11.4985 414.951 10.1037C414.951 8.70885 413.819 7.57812 412.423 7.57812C411.026 7.57812 409.895 8.70885 409.895 10.1037C409.895 11.4985 411.026 12.6292 412.423 12.6292Z" fill="#3F3D56"/>
<path d="M221.569 50.9336C220.872 50.9336 220.305 51.5 220.305 52.1964C220.305 52.5359 220.436 52.85 220.674 53.0818C220.914 53.3276 221.229 53.4591 221.569 53.4591H410.737C411.434 53.4591 412.001 52.8927 412.001 52.1964C412.001 51.8568 411.87 51.5428 411.632 51.3109C411.391 51.0651 411.076 50.9336 410.737 50.9336H221.569Z" fill="#E6E6E6"/>
<path d="M387.141 50.5117V53.8791H221.568C221.105 53.8791 220.683 53.6939 220.38 53.3824C220.068 53.0794 219.883 52.6584 219.883 52.1954C219.883 51.2694 220.641 50.5117 221.568 50.5117H387.141Z" fill="#AD63FF"/>
<path d="M408.631 44.1958H391.777C389.918 44.1958 388.406 42.6855 388.406 40.8283C388.406 38.9712 389.918 37.4609 391.777 37.4609H408.631C410.49 37.4609 412.002 38.9712 412.002 40.8283C412.002 42.6855 410.49 44.1958 408.631 44.1958Z" fill="#E6E6E6"/>
<path d="M298.234 26.52H222.832C220.973 26.52 219.461 25.0097 219.461 23.1526C219.461 21.2954 220.973 19.7852 222.832 19.7852H298.234C300.093 19.7852 301.605 21.2954 301.605 23.1526C301.605 25.0097 300.093 26.52 298.234 26.52Z" fill="#E6E6E6"/>
<path d="M221.569 88.8164C220.872 88.8164 220.305 89.3828 220.305 90.0792C220.305 90.4187 220.436 90.7328 220.674 90.9646C220.914 91.2104 221.229 91.342 221.569 91.342H410.737C411.434 91.342 412.001 90.7755 412.001 90.0792C412.001 89.7396 411.87 89.4256 411.632 89.1938C411.391 88.948 411.076 88.8164 410.737 88.8164H221.569Z" fill="#E6E6E6"/>
<path d="M322.252 88.3945V91.7619H221.568C221.105 91.7619 220.683 91.5767 220.38 91.2652C220.068 90.9622 219.883 90.5412 219.883 90.0782C219.883 89.1522 220.641 88.3945 221.568 88.3945H322.252Z" fill="#AD63FF"/>
<path d="M408.631 82.0786H391.777C389.918 82.0786 388.406 80.5683 388.406 78.7112C388.406 76.854 389.918 75.3438 391.777 75.3438H408.631C410.49 75.3438 412.002 76.854 412.002 78.7112C412.002 80.5683 410.49 82.0786 408.631 82.0786Z" fill="#E6E6E6"/>
</g>
<defs>
<clipPath id="clip0_128_4464">
<rect width="509" height="515" fill="white"/>
</clipPath>
</defs>
</svg>
