<svg width="667" height="390" viewBox="0 0 667 390" fill="none" xmlns="http://www.w3.org/2000/svg">
<g clip-path="url(#clip0_132_2493)">
<path d="M148.601 385.325C155.845 379.202 160.244 369.529 159.09 360.113C157.937 350.697 150.79 342.041 141.52 340.041C132.25 338.042 121.683 343.577 118.868 352.636C117.318 335.171 115.533 316.974 106.251 302.101C97.846 288.634 83.2891 278.997 67.5127 277.273C51.7363 275.549 35.1257 282.061 25.2865 294.517C15.4473 306.974 13.0382 325.084 19.9294 339.385C25.0058 349.921 34.3584 357.761 44.1575 364.14C75.8222 384.578 113.8 392.89 151.103 387.545L148.601 385.325Z" fill="#F2F2F2"/>
<path d="M44.6119 284.359C57.6294 294.966 69.5716 306.829 80.2657 319.776C97.002 339.97 110.545 362.611 120.423 386.91C121.147 388.682 118.269 389.454 117.554 387.701C101.392 348.21 75.5895 313.403 42.5078 286.464C41.0222 285.254 43.1386 283.159 44.6119 284.359Z" fill="white"/>
<path d="M404.753 216.756H13.6932C10.0628 216.752 6.58222 215.308 4.01514 212.74C1.44807 210.171 0.0040869 206.69 0 203.058V13.6983C0.0040869 10.0666 1.44807 6.58472 4.01514 4.01667C6.58222 1.44861 10.0628 0.00408845 13.6932 0H404.753C408.384 0.00408845 411.864 1.44861 414.431 4.01667C416.999 6.58472 418.443 10.0666 418.447 13.6983V203.058C418.443 206.69 416.999 210.171 414.431 212.74C411.864 215.308 408.384 216.752 404.753 216.756ZM13.6932 1.61157C10.4899 1.6152 7.41881 2.88978 5.15375 5.1557C2.88868 7.42163 1.61458 10.4938 1.61096 13.6983V203.058C1.61458 206.262 2.88868 209.335 5.15375 211.6C7.41881 213.866 10.4899 215.141 13.6932 215.145H404.753C407.957 215.141 411.028 213.866 413.293 211.6C415.558 209.335 416.832 206.262 416.836 203.058V13.6983C416.832 10.4938 415.558 7.42163 413.293 5.1557C411.028 2.88978 407.957 1.6152 404.753 1.61157H13.6932Z" fill="#3F3D56"/>
<path d="M75.1126 47.1369C79.1163 47.1369 82.3619 43.8901 82.3619 39.8849C82.3619 35.8797 79.1163 32.6328 75.1126 32.6328C71.1089 32.6328 67.8633 35.8797 67.8633 39.8849C67.8633 43.8901 71.1089 47.1369 75.1126 47.1369Z" fill="#CCCCCC"/>
<path d="M75.1126 74.5354C79.1163 74.5354 82.3619 71.2885 82.3619 67.2833C82.3619 63.2781 79.1163 60.0312 75.1126 60.0312C71.1089 60.0312 67.8633 63.2781 67.8633 67.2833C67.8633 71.2885 71.1089 74.5354 75.1126 74.5354Z" fill="#CCCCCC"/>
<path d="M75.1126 101.93C79.1163 101.93 82.3619 98.6831 82.3619 94.6778C82.3619 90.6726 79.1163 87.4258 75.1126 87.4258C71.1089 87.4258 67.8633 90.6726 67.8633 94.6778C67.8633 98.6831 71.1089 101.93 75.1126 101.93Z" fill="#CCCCCC"/>
<path d="M75.1126 129.328C79.1163 129.328 82.3619 126.081 82.3619 122.076C82.3619 118.071 79.1163 114.824 75.1126 114.824C71.1089 114.824 67.8633 118.071 67.8633 122.076C67.8633 126.081 71.1089 129.328 75.1126 129.328Z" fill="#CCCCCC"/>
<path d="M197.14 184.121C201.144 184.121 204.389 180.874 204.389 176.869C204.389 172.864 201.144 169.617 197.14 169.617C193.136 169.617 189.891 172.864 189.891 176.869C189.891 180.874 193.136 184.121 197.14 184.121Z" fill="#CCCCCC"/>
<path d="M144.784 184.121C148.788 184.121 152.034 180.874 152.034 176.869C152.034 172.864 148.788 169.617 144.784 169.617C140.781 169.617 137.535 172.864 137.535 176.869C137.535 180.874 140.781 184.121 144.784 184.121Z" fill="#CCCCCC"/>
<path d="M305.074 184.121C309.077 184.121 312.323 180.874 312.323 176.869C312.323 172.864 309.077 169.617 305.074 169.617C301.07 169.617 297.824 172.864 297.824 176.869C297.824 180.874 301.07 184.121 305.074 184.121Z" fill="#CCCCCC"/>
<path d="M250.304 184.121C254.308 184.121 257.553 180.874 257.553 176.869C257.553 172.864 254.308 169.617 250.304 169.617C246.3 169.617 243.055 172.864 243.055 176.869C243.055 180.874 246.3 184.121 250.304 184.121Z" fill="#CCCCCC"/>
<path d="M349.778 40.6936H111.356C111.143 40.6936 110.938 40.6087 110.787 40.4576C110.636 40.3065 110.551 40.1015 110.551 39.8878C110.551 39.6741 110.636 39.4692 110.787 39.3181C110.938 39.1669 111.143 39.082 111.356 39.082H349.778C349.992 39.082 350.197 39.1669 350.348 39.3181C350.499 39.4692 350.584 39.6741 350.584 39.8878C350.584 40.1015 350.499 40.3065 350.348 40.4576C350.197 40.6087 349.992 40.6936 349.778 40.6936Z" fill="#CCCCCC"/>
<path d="M349.778 68.0881H111.356C111.143 68.0881 110.938 68.0032 110.787 67.8521C110.636 67.701 110.551 67.4961 110.551 67.2823C110.551 67.0686 110.636 66.8637 110.787 66.7126C110.938 66.5615 111.143 66.4766 111.356 66.4766H349.778C349.992 66.4766 350.197 66.5615 350.348 66.7126C350.499 66.8637 350.584 67.0686 350.584 67.2823C350.584 67.4961 350.499 67.701 350.348 67.8521C350.197 68.0032 349.992 68.0881 349.778 68.0881Z" fill="#CCCCCC"/>
<path d="M349.778 95.4866H111.356C111.143 95.4866 110.938 95.4017 110.787 95.2505C110.636 95.0994 110.551 94.8945 110.551 94.6808C110.551 94.4671 110.636 94.2621 110.787 94.111C110.938 93.9599 111.143 93.875 111.356 93.875H349.778C349.992 93.875 350.197 93.9599 350.348 94.111C350.499 94.2621 350.584 94.4671 350.584 94.6808C350.584 94.8945 350.499 95.0994 350.348 95.2505C350.197 95.4017 349.992 95.4866 349.778 95.4866Z" fill="#CCCCCC"/>
<path d="M349.778 122.881H111.356C111.143 122.881 110.938 122.796 110.787 122.645C110.636 122.494 110.551 122.289 110.551 122.075C110.551 121.862 110.636 121.657 110.787 121.506C110.938 121.354 111.143 121.27 111.356 121.27H349.778C349.992 121.27 350.197 121.354 350.348 121.506C350.499 121.657 350.584 121.862 350.584 122.075C350.584 122.289 350.499 122.494 350.348 122.645C350.197 122.796 349.992 122.881 349.778 122.881Z" fill="#CCCCCC"/>
<path d="M156.464 150.279H133.106C132.038 150.278 131.014 149.853 130.259 149.097C129.504 148.342 129.079 147.318 129.078 146.25V124.494C129.079 123.426 129.504 122.402 130.259 121.646C131.014 120.891 132.038 120.466 133.106 120.465H156.464C157.532 120.466 158.556 120.891 159.311 121.646C160.066 122.402 160.491 123.426 160.492 124.494V146.25C160.491 147.318 160.066 148.342 159.311 149.097C158.556 149.853 157.532 150.278 156.464 150.279Z" fill="#434097"/>
<path d="M208.82 150.277H185.461C184.393 150.276 183.37 149.851 182.615 149.096C181.86 148.34 181.435 147.316 181.434 146.248V97.0953C181.435 96.0272 181.86 95.0031 182.615 94.2478C183.37 93.4925 184.393 93.0676 185.461 93.0664H208.82C209.888 93.0676 210.911 93.4925 211.666 94.2478C212.421 95.0031 212.846 96.0272 212.847 97.0953V146.248C212.846 147.316 212.421 148.34 211.666 149.096C210.911 149.851 209.888 150.276 208.82 150.277Z" fill="#434097"/>
<path d="M261.984 150.279H238.625C237.557 150.278 236.534 149.853 235.779 149.098C235.024 148.343 234.599 147.319 234.598 146.25V69.7008C234.599 68.6326 235.024 67.6086 235.779 66.8533C236.534 66.098 237.557 65.6731 238.625 65.6719H261.984C263.052 65.6731 264.075 66.098 264.83 66.8533C265.585 67.6086 266.01 68.6326 266.011 69.7008V146.25C266.01 147.319 265.585 148.343 264.83 149.098C264.075 149.853 263.052 150.278 261.984 150.279Z" fill="#434097"/>
<path d="M316.753 150.28H293.395C292.327 150.279 291.303 149.854 290.548 149.099C289.793 148.344 289.368 147.32 289.367 146.251V43.111C289.368 42.0428 289.793 41.0187 290.548 40.2634C291.303 39.5081 292.327 39.0833 293.395 39.082H316.753C317.821 39.0833 318.845 39.5081 319.6 40.2634C320.355 41.0187 320.78 42.0428 320.781 43.111V146.251C320.78 147.32 320.355 148.344 319.6 149.099C318.845 149.854 317.821 150.279 316.753 150.28Z" fill="#434097"/>
<path d="M534.399 385.442C527.155 379.319 522.756 369.647 523.91 360.23C525.063 350.814 532.21 342.158 541.48 340.158C550.75 338.159 561.317 343.694 564.132 352.753C565.682 335.288 567.467 317.091 576.749 302.218C585.154 288.751 599.711 279.114 615.487 277.391C631.264 275.667 647.874 282.178 657.714 294.635C667.553 307.091 669.962 325.201 663.071 339.503C657.994 350.038 648.642 357.879 638.842 364.257C607.178 384.696 569.2 393.007 531.897 387.662L534.399 385.442Z" fill="#F2F2F2"/>
<path d="M642.111 282.539C629.093 293.146 617.151 305.009 606.457 317.956C589.721 338.15 576.177 360.79 566.299 385.089C565.576 386.862 568.453 387.634 569.169 385.881C585.331 346.39 611.133 311.583 644.215 284.643C645.7 283.433 643.584 281.338 642.111 282.539Z" fill="white"/>
<path d="M458.003 163.619C457.087 163.617 456.174 163.525 455.276 163.346C455.112 163.313 454.947 163.278 454.783 163.24L257.524 117.294C255.381 116.795 253.958 115.447 254.213 114.157C254.321 113.778 254.531 113.435 254.821 113.168C255.111 112.9 255.469 112.718 255.856 112.641C256.808 112.378 257.81 112.356 258.773 112.576L457.257 154.043C461.727 154.976 464.829 157.72 464.321 160.289C464.055 161.633 462.871 162.676 460.988 163.224C460.017 163.495 459.012 163.628 458.003 163.619Z" fill="#3F3D56"/>
<path d="M416.219 157.266C417.24 157.866 418.38 158.235 419.558 158.347C420.737 158.459 421.926 158.311 423.042 157.913C424.157 157.515 425.172 156.878 426.014 156.046C426.857 155.213 427.507 154.206 427.918 153.095L456.696 153.696L448.723 141.035L422.618 142.406C420.707 141.838 418.654 141.992 416.848 142.837C415.043 143.682 413.61 145.161 412.821 146.992C412.032 148.824 411.942 150.881 412.568 152.775C413.195 154.668 414.494 156.266 416.219 157.266Z" fill="#FFB8B8"/>
<path d="M428.716 152.665L428.567 143.841C428.556 142.93 428.886 142.048 429.492 141.369C430.099 140.689 430.937 140.262 431.843 140.17L483.555 135.177L526.641 121.045C527.941 120.619 529.314 120.455 530.678 120.564C532.042 120.673 533.371 121.051 534.588 121.679C535.804 122.306 536.884 123.169 537.764 124.217C538.644 125.265 539.308 126.478 539.715 127.785C540.123 129.092 540.266 130.467 540.138 131.83C540.009 133.193 539.611 134.517 538.967 135.725C538.322 136.932 537.444 138 536.384 138.865C535.323 139.731 534.101 140.376 532.789 140.765L485.099 154.89L432.432 156.228C431.636 156.248 430.855 156.005 430.211 155.537C429.566 155.069 429.093 154.402 428.865 153.639C428.771 153.322 428.721 152.995 428.716 152.665Z" fill="#3F3D56"/>
<path d="M505.245 380.156L495.369 380.155L490.672 342.051L505.246 342.052L505.245 380.156Z" fill="#FFB8B8"/>
<path d="M507.763 389.732L475.922 389.731V389.328C475.922 387.7 476.242 386.087 476.865 384.583C477.488 383.079 478.401 381.712 479.552 380.561C480.703 379.41 482.069 378.496 483.573 377.873C485.076 377.25 486.688 376.93 488.315 376.93H488.316L507.764 376.93L507.763 389.732Z" fill="#2F2E41"/>
<path d="M534.241 380.156L524.366 380.155L519.668 342.051L534.242 342.052L534.241 380.156Z" fill="#FFB8B8"/>
<path d="M536.759 389.732L504.918 389.731V389.328C504.918 387.7 505.239 386.087 505.861 384.583C506.484 383.079 507.397 381.712 508.548 380.561C509.699 379.41 511.065 378.496 512.569 377.873C514.072 377.25 515.684 376.93 517.311 376.93H517.312L536.76 376.93L536.759 389.732Z" fill="#2F2E41"/>
<path d="M540.867 226.163L538.509 366.123C538.502 366.566 538.403 367.003 538.219 367.407C538.035 367.81 537.77 368.171 537.44 368.467C537.111 368.763 536.723 368.988 536.303 369.128C535.882 369.268 535.437 369.319 534.996 369.279L523.44 368.228C522.682 368.159 521.973 367.824 521.439 367.282C520.904 366.74 520.579 366.026 520.52 365.267L513.755 277.964C513.739 277.759 513.645 277.568 513.493 277.43C513.341 277.291 513.141 277.217 512.936 277.221C512.73 277.225 512.534 277.307 512.387 277.451C512.241 277.596 512.155 277.79 512.147 277.996L508.765 367.298C508.734 368.131 508.381 368.919 507.781 369.497C507.18 370.076 506.379 370.399 505.546 370.399H493.153C492.333 370.399 491.543 370.086 490.945 369.523C490.348 368.961 489.987 368.191 489.937 367.372L481.262 225.357L532.812 212.465L540.867 226.163Z" fill="#2F2E41"/>
<path d="M503.479 94.742C514.405 94.742 523.262 85.8813 523.262 74.9511C523.262 64.0208 514.405 55.1602 503.479 55.1602C492.553 55.1602 483.695 64.0208 483.695 74.9511C483.695 85.8813 492.553 94.742 503.479 94.742Z" fill="#FFB8B8"/>
<path d="M479.499 230.325C479.156 229.994 478.883 229.598 478.694 229.16C478.505 228.723 478.405 228.252 478.4 227.775L477.066 132.336C476.985 127.481 478.445 122.726 481.236 118.753C484.026 114.78 488.004 111.794 492.597 110.224C494.45 101.812 504.315 100.758 510.066 100.884C511.501 100.915 512.908 101.292 514.166 101.982C515.425 102.673 516.499 103.657 517.297 104.851L521.419 111.037L530.505 116.365C534.71 118.82 538.027 122.548 539.977 127.011C541.927 131.474 542.41 136.441 541.355 141.196L539.956 147.562C535.03 170.091 535.499 193.466 541.324 215.78L544.139 226.516C544.285 227.075 544.296 227.661 544.17 228.225C544.045 228.79 543.786 229.316 543.415 229.759C543.045 230.203 542.574 230.552 542.042 230.777C541.509 231.001 540.931 231.095 540.355 231.051L537.085 230.799C536.237 230.735 535.438 230.373 534.829 229.778C534.22 229.183 533.841 228.393 533.757 227.545L533.216 222.133C533.206 222.034 533.159 221.941 533.085 221.874C533.011 221.807 532.915 221.77 532.815 221.77C532.715 221.77 532.619 221.807 532.545 221.874C532.471 221.941 532.424 222.034 532.414 222.133L531.891 227.373C531.802 228.258 531.392 229.08 530.737 229.682C530.082 230.284 529.229 230.624 528.34 230.638L482.08 231.35C482.061 231.35 482.042 231.351 482.023 231.351C481.08 231.353 480.174 230.984 479.499 230.325Z" fill="#3F3D56"/>
<path d="M505.025 86.3589C505.107 89.1566 507.048 90.7751 509.432 92.2405C511.815 93.7059 514.602 94.3413 517.332 94.9542C517.699 95.149 518.109 95.246 518.524 95.2358C518.939 95.2256 519.345 95.1086 519.701 94.896C520.058 94.6835 520.354 94.3825 520.56 94.0223C520.767 93.662 520.877 93.2546 520.88 92.8393L523.384 83.3123C524.27 80.2691 524.914 77.1606 525.311 74.016C525.914 67.9652 524.481 61.4562 520.259 57.0813C516.038 52.7065 508.716 51.1524 503.657 54.5232C497.653 46.8523 470.211 63.8002 476.98 69.1343C478.185 70.0833 480.026 68.8825 481.554 68.7661C483.083 68.6497 484.796 68.9187 485.767 70.1055C487.035 71.656 486.483 73.9656 487.006 75.8998C487.222 76.5804 487.571 77.2113 488.032 77.7564C488.493 78.3014 489.058 78.7497 489.693 79.0755C490.328 79.4012 491.022 79.5979 491.733 79.6542C492.445 79.7105 493.161 79.6254 493.839 79.4036C495.103 78.7806 496.292 78.016 497.383 77.1244C498.556 76.3431 500.037 75.7658 501.357 76.2586C503.097 76.9081 503.715 79.0388 503.872 80.8899C504.137 82.736 504.523 84.5629 505.025 86.3589Z" fill="#2F2E41"/>
<path d="M650.384 390H34.6162C34.1875 390 33.7764 389.895 33.4733 389.707C33.1702 389.52 33 389.265 33 389C33 388.735 33.1702 388.48 33.4733 388.293C33.7764 388.105 34.1875 388 34.6162 388H650.384C650.812 388 651.224 388.105 651.527 388.293C651.83 388.48 652 388.735 652 389C652 389.265 651.83 389.52 651.527 389.707C651.224 389.895 650.812 390 650.384 390Z" fill="#3F3D56"/>
<path opacity="0.2" d="M500.403 139.402L497.181 178.886L480.266 219.981L505.235 179.692L500.403 139.402Z" fill="black"/>
<path d="M476.311 235.283C477.234 234.541 477.983 233.606 478.506 232.543C479.029 231.48 479.313 230.316 479.337 229.131C479.362 227.947 479.126 226.772 478.648 225.688C478.169 224.605 477.458 223.64 476.566 222.861L487.343 196.16L472.681 199.122L464.696 224.023C463.487 225.609 462.901 227.583 463.05 229.572C463.199 231.561 464.072 233.426 465.504 234.814C466.936 236.202 468.826 237.016 470.818 237.102C472.81 237.189 474.764 236.541 476.311 235.283Z" fill="#FFB8B8"/>
<path d="M475.527 223.508L467.228 220.516C466.373 220.203 465.666 219.581 465.246 218.773C464.826 217.965 464.724 217.029 464.96 216.149L478.651 166.013L480.739 120.702C480.801 119.334 481.135 117.993 481.721 116.756C482.307 115.518 483.133 114.41 484.151 113.495C485.169 112.579 486.358 111.876 487.651 111.425C488.943 110.973 490.312 110.784 491.678 110.867C493.044 110.949 494.38 111.303 495.608 111.907C496.836 112.511 497.932 113.353 498.832 114.385C499.732 115.416 500.418 116.617 500.85 117.916C501.282 119.215 501.452 120.587 501.349 121.952L497.621 171.567L480.176 221.299C479.912 222.05 479.408 222.694 478.742 223.13C478.076 223.567 477.285 223.773 476.49 223.716C476.161 223.69 475.837 223.621 475.527 223.508Z" fill="#3F3D56"/>
<path d="M349.778 150.28H111.356C111.143 150.28 110.938 150.195 110.787 150.044C110.636 149.892 110.551 149.687 110.551 149.474C110.551 149.26 110.636 149.055 110.787 148.904C110.938 148.753 111.143 148.668 111.356 148.668H349.778C349.992 148.668 350.197 148.753 350.348 148.904C350.499 149.055 350.584 149.26 350.584 149.474C350.584 149.687 350.499 149.892 350.348 150.044C350.197 150.195 349.992 150.28 349.778 150.28Z" fill="#3F3D56"/>
</g>
<defs>
<clipPath id="clip0_132_2493">
<rect width="667" height="390" fill="white"/>
</clipPath>
</defs>
</svg>
