<svg width="569" height="418" viewBox="0 0 569 418" fill="none" xmlns="http://www.w3.org/2000/svg">
<g clip-path="url(#clip0_128_4621)">
<path d="M554.822 147.174C554.981 144.744 549.281 143.557 549.54 141.43C549.798 139.311 555.547 139.751 561.625 135.923C562.721 135.233 569.628 130.883 568.955 127.619C567.678 121.432 540.29 124.59 537.625 115.589C537.04 113.614 537.583 110.843 535.97 104.635C535.328 102.166 534.795 100.884 533.707 100.479C532.163 99.9053 530.85 101.599 527.06 104.101C521.376 107.854 520.337 106.68 516.258 109.987C513.231 112.441 512.213 114.377 510.895 113.987C509.029 113.435 509.862 109.202 507.727 108.169C505.547 107.114 501.746 110.104 499.418 112.696C495.047 117.56 494.594 122.436 493.142 126.893C491.563 131.737 488.065 138.353 479.387 145.165L400.176 202.845C416.851 191.298 463.482 160.274 481.65 149.321C486.895 146.159 492.403 143.081 498.417 144.497C504.206 145.86 509.767 151.224 519.101 154.782C520.191 155.198 523.24 156.316 524.613 155.012C525.748 153.934 524.703 152.183 525.748 151.16C527.149 149.789 530.166 151.828 535.111 152.526C538.597 153.018 541.27 152.594 543.568 152.229C544.261 152.119 554.611 150.41 554.822 147.174Z" fill="#F2F2F2"/>
<path d="M420.983 114.409C419.836 113.63 417.609 116.087 416.641 115.346C415.675 114.607 417.55 111.912 417.426 107.823C417.403 107.086 417.262 102.439 415.466 101.828C412.062 100.67 405.709 115.028 400.524 113.74C399.386 113.457 398.183 112.391 394.672 111.392C393.275 110.994 392.493 110.886 391.98 111.303C391.253 111.896 391.705 113.029 391.839 115.612C392.04 119.486 391.165 119.657 391.61 122.614C391.941 124.808 392.597 125.867 392.025 126.401C391.216 127.158 389.38 125.527 388.257 126.278C387.11 127.044 387.48 129.772 388.08 131.664C389.206 135.213 391.467 136.842 393.235 138.841C395.156 141.014 397.393 144.64 398.232 150.866L403.676 206.4C402.822 194.881 401.055 163.035 400.924 150.955C400.885 147.467 400.965 143.875 403.394 141.331C405.733 138.881 409.97 137.699 414.409 134.143C414.927 133.728 416.356 132.553 416.112 131.503C415.911 130.635 414.75 130.642 414.55 129.834C414.281 128.751 416.152 127.858 417.921 125.631C419.168 124.062 419.731 122.627 420.216 121.393C420.361 121.021 422.509 115.447 420.983 114.409Z" fill="#F2F2F2"/>
<path d="M440.293 135.167L443.817 128.542L444.451 128.291C447.385 127.132 449.57 125.534 450.948 123.541C451.167 123.224 451.369 122.896 451.576 122.562C452.396 121.238 453.414 119.591 455.519 118.301C456.695 117.584 459.649 116.08 461.414 117.727C461.894 118.164 462.128 118.683 462.237 119.176C462.33 119.136 462.425 119.096 462.527 119.052C463.781 118.536 464.542 118.468 465.274 118.402C465.837 118.351 466.417 118.3 467.496 117.974C467.969 117.831 468.359 117.688 468.688 117.568C469.683 117.207 470.928 116.816 472.091 117.635C473.304 118.553 473.251 120.039 473.216 121.024C473.154 122.78 472.902 123.904 472.735 124.649C472.673 124.921 472.604 125.227 472.603 125.335C472.6 126.206 476.264 127.9 477.639 128.546C480.735 129.986 483.414 131.232 483.204 133.664C483.056 135.404 481.393 136.701 478.126 137.618C477.108 137.903 476.165 138.003 475.363 138.039C475.622 138.6 475.74 139.27 475.467 140.009C474.821 141.757 472.516 142.373 468.615 141.848C467.644 141.72 466.341 141.543 464.821 140.846C464.106 140.518 463.511 140.15 463.008 139.827C462.802 140.105 462.524 140.368 462.133 140.567C460.982 141.154 459.617 140.873 458.092 139.671C456.397 138.375 455.179 137.047 454.103 135.878C453.163 134.858 452.351 133.983 451.562 133.516C450.085 132.671 448.24 133.052 445.98 133.638L440.293 135.167Z" fill="#F2F2F2"/>
<path d="M468.571 100.718L461.271 98.9888L460.868 98.4387C459.003 95.8939 456.904 94.1851 454.627 93.3574C454.265 93.2257 453.896 93.1127 453.52 92.9973C452.032 92.5403 450.182 91.9727 448.4 90.263C447.408 89.3068 445.206 86.8302 446.35 84.704C446.651 84.1293 447.093 83.7712 447.543 83.5403C447.48 83.4603 447.417 83.3786 447.349 83.2911C446.532 82.2084 446.273 81.4901 446.024 80.7982C445.832 80.2665 445.635 79.7176 445.046 78.7568C444.788 78.3353 444.55 77.9939 444.351 77.7064C443.75 76.8347 443.056 75.7291 443.552 74.396C444.133 72.9897 445.584 72.6645 446.545 72.4484C448.258 72.0624 449.409 72.0214 450.172 71.9946C450.45 71.9854 450.764 71.9736 450.869 71.9481C451.712 71.73 452.421 67.755 452.696 66.2604C453.303 62.8994 453.829 59.9911 456.233 59.5772C457.954 59.2796 459.629 60.5592 461.345 63.4885C461.878 64.4009 462.214 65.2883 462.452 66.0546C462.93 65.6615 463.548 65.3779 464.331 65.4541C466.185 65.6368 467.366 67.7106 467.848 71.6188C467.97 72.5903 468.129 73.8964 467.841 75.5434C467.705 76.3189 467.5 76.9875 467.315 77.5564C467.636 77.6849 467.962 77.8875 468.253 78.2158C469.112 79.1798 469.187 80.5723 468.412 82.3525C467.588 84.3218 466.613 85.8372 465.755 87.1747C465.008 88.3433 464.368 89.3513 464.117 90.2331C463.674 91.876 464.511 93.5645 465.65 95.6028L468.571 100.718Z" fill="#F2F2F2"/>
<path d="M477.785 80.4016L481.309 73.7762L481.943 73.5254C484.877 72.3665 487.062 70.7687 488.44 68.7752C488.659 68.4583 488.862 68.1302 489.069 67.7962C489.888 66.472 490.906 64.8256 493.011 63.5355C494.187 62.818 497.141 61.3148 498.907 62.961C499.386 63.3986 499.62 63.9169 499.729 64.4107C499.823 64.3699 499.918 64.3302 500.019 64.2865C501.274 63.7708 502.034 63.7024 502.766 63.6366C503.329 63.5858 503.91 63.5341 504.988 63.208C505.461 63.0651 505.851 62.9221 506.18 62.8024C507.175 62.4413 508.421 62.0503 509.584 62.869C510.796 63.7872 510.743 65.2738 510.708 66.2583C510.647 68.0145 510.394 69.1381 510.227 69.8831C510.165 70.1551 510.097 70.4619 510.095 70.5697C510.092 71.4407 513.756 73.1347 515.131 73.7802C518.227 75.2204 520.906 76.4666 520.696 78.8983C520.548 80.6385 518.885 81.9352 515.618 82.8522C514.6 83.1371 513.657 83.2371 512.856 83.2731C513.115 83.8347 513.232 84.5043 512.96 85.2432C512.313 86.9911 510.008 87.6075 506.107 87.0822C505.136 86.9541 503.833 86.777 502.313 86.0808C501.598 85.7522 501.004 85.3841 500.5 85.0612C500.295 85.3393 500.016 85.6025 499.625 85.8014C498.475 86.3883 497.109 86.1075 495.585 84.9057C493.889 83.6089 492.671 82.2811 491.595 81.112C490.655 80.0923 489.843 79.2171 489.054 78.7508C487.578 77.9052 485.732 78.2866 483.473 78.8727L477.785 80.4016Z" fill="#F2F2F2"/>
<path d="M402.302 204.155L401.566 202.464L399.945 201.607C400.017 201.451 400.155 201.074 400.376 200.487C401.587 197.275 405.268 187.497 412.586 173.139C417.694 163.116 423.497 153.19 429.836 143.632C436.186 134.058 441.547 127.19 445.855 121.669C449.105 117.506 452.27 113.59 455.357 109.777C463.598 99.5875 471.382 89.9619 478.495 78.2753C480.085 75.6671 483.39 70.2367 484.147 62.5668C484.586 58.1183 484.107 53.5734 482.719 49.0611L486.246 47.9766C487.775 52.9611 488.302 57.9931 487.815 62.9325C486.976 71.4363 483.374 77.3536 481.644 80.1966C474.404 92.0895 466.545 101.807 458.223 112.094C455.15 115.894 451.997 119.792 448.76 123.939C444.492 129.408 439.178 136.217 432.91 145.668C426.645 155.112 420.914 164.917 415.869 174.812C408.645 188.99 405.019 198.623 403.827 201.787C403.19 203.476 403.057 203.83 402.302 204.155Z" fill="#F2F2F2"/>
<path d="M473.835 50.0719C473.71 49.9864 473.586 49.897 473.464 49.8006C470.97 47.8864 469.633 44.6923 469.489 40.3074C469.425 38.2469 469.983 36.3291 471.097 32.5043C471.267 31.9141 472.167 28.9428 473.999 25.2609C475.195 22.8545 475.862 21.9629 476.852 21.4499C477.953 20.8774 479.166 20.7827 480.336 20.9602C480.497 20.6425 480.733 20.3638 481.069 20.1443C482.456 19.2307 483.72 20.3413 484.411 20.9323C484.755 21.2383 485.183 21.6232 485.71 21.9444C486.535 22.4532 487.127 22.5096 488.022 22.5987C488.878 22.6833 489.942 22.7885 491.251 23.3403C493.838 24.4186 495.295 26.3596 495.775 26.9989C498.314 30.349 498.184 34.0182 498.033 38.2665C498.001 39.1172 497.804 42.1603 496.622 45.7065C495.769 48.2649 495.032 49.1567 494.364 49.7376C492.995 50.9341 491.542 51.1606 488.041 51.4594C484.381 51.7762 482.546 51.933 481.135 51.8264C477.855 51.5736 475.795 51.415 473.835 50.0719Z" fill="#F2F2F2"/>
<path d="M459.301 -35H252.647C245.067 -35 238.902 -28.8335 238.902 -21.2501V191.982C238.902 199.566 245.067 205.732 252.647 205.732H459.301C466.882 205.732 473.047 199.566 473.047 191.982V-21.2501C473.047 -28.8335 466.882 -35 459.301 -35ZM471.601 191.982C471.601 198.777 466.094 204.286 459.301 204.286H252.647C245.854 204.286 240.348 198.777 240.348 191.982V-21.2501C240.348 -28.0454 245.854 -33.5542 252.647 -33.5542H362.111C422.581 -33.5542 471.601 15.4832 471.601 75.9738V191.982Z" fill="#3F3D56"/>
<path d="M234.529 125.259C227.286 127.217 222.425 132.543 223.672 137.154C224.918 141.765 231.8 143.914 239.045 141.954C241.95 141.211 244.635 139.782 246.875 137.788L277.459 129.103L273.079 114.832L243.393 124.91C240.453 124.316 237.413 124.436 234.529 125.259Z" fill="#FFB6B6"/>
<path d="M362.695 82.4484C362.695 82.4484 371.33 95.1197 351.869 104.678C332.409 114.237 296.436 127.88 296.436 127.88L246.766 139.391L239.266 122.941L298.203 106.878L346.229 80.0664L362.695 82.4484Z" fill="#3F3D56"/>
<path d="M356.918 48.7206C356.697 54.7271 361.02 61.8572 365.59 62.0035C371.088 62.1797 397.079 64.0315 397.915 61.875C403.716 46.9026 376.395 15.8439 370.237 14.9479C366.927 14.4664 362.964 19.2198 361.44 23.1438C359.305 28.6428 362.456 31.236 360.678 38.6442C359.322 44.2935 357.073 44.5216 356.918 48.7206Z" fill="#2F2E41"/>
<path d="M311.675 285.5L293.434 289.682L311.763 344.089L324.124 341.256L311.675 285.5Z" fill="#FFB6B6"/>
<path d="M305.157 327.121L312.212 328.156L313.3 331.937C313.3 331.937 313.535 327.128 321.327 323.832L323.352 327.216C323.352 327.216 327.524 329.901 328.872 336.556L331.865 354.557L325.74 356.183L321.244 344.357C321.244 344.357 318.771 342.095 314.837 357.395C314.837 357.395 313.244 362.537 298.791 361.941C296.804 361.859 295.057 360.534 294.526 358.617C294.234 357.559 294.363 356.465 295.583 355.733C298.688 353.867 302.299 354.042 303.693 350.726C305.086 347.411 305.157 327.121 305.157 327.121Z" fill="#2F2E41"/>
<path d="M351.305 310.235L335.016 309.832L337.296 367.123L349.975 367.349L351.305 310.235Z" fill="#FFB6B6"/>
<path d="M334.967 349.062L341.566 351.766L341.712 355.697C341.712 355.697 343.097 351.086 351.453 349.763L352.605 353.535C352.605 353.535 356.008 357.145 355.715 363.93L354.29 382.122L347.953 382.226L346.435 369.665C346.435 369.665 344.579 366.874 337.079 380.777C337.079 380.777 334.296 385.385 320.411 381.327C318.503 380.769 317.125 379.062 317.072 377.074C317.042 375.977 317.431 374.946 318.791 374.529C322.254 373.466 325.717 374.505 327.867 371.622C330.017 368.739 334.967 349.062 334.967 349.062Z" fill="#2F2E41"/>
<path d="M384.917 247.66L298.766 240.992L323.01 141.568L381.015 133.207L384.917 247.66Z" fill="#2F2E41"/>
<path d="M373.038 64.9005L391.19 55.2266L405.849 72.5401L376.393 166.982L322.512 143.115L363.436 73.126L373.038 64.9005Z" fill="#AD63FF"/>
<path d="M375.34 149.932C375.34 149.932 381.121 179.748 363.221 195.245L357.742 212.67L351.826 244.834L352.361 327.906L330.681 325.737L322.009 246.219L321.906 206.643L289.9 234.061L323.397 299.875L296.102 311.831L262.767 232.52C260.45 227.689 261.068 221.962 264.361 217.736L322.513 143.117L375.34 149.932Z" fill="#2F2E41"/>
<path d="M397.812 63.0508L362.222 96.2658C353.799 164.639 358.397 227.422 382.632 281.775L442.438 254.046C393.123 239.084 397.96 156.927 407.528 68.8974L397.812 63.0508Z" fill="#3F3D56"/>
<path d="M367.118 73.2359L372.593 64.7617L342.312 82.5707L318.367 148.95L362.538 93.8085L367.118 73.2359Z" fill="#3F3D56"/>
<path d="M442.865 198.093C444.952 205.303 450.362 210.069 454.949 208.74C459.535 207.41 461.56 200.489 459.471 193.277C458.676 190.385 457.2 187.725 455.167 185.521L445.939 155.086L431.754 159.723L442.358 189.234C441.817 192.185 441.991 195.223 442.865 198.093Z" fill="#FFB6B6"/>
<path d="M396.43 69.6043C396.43 69.6043 408.844 60.6058 418.955 79.7905C429.065 98.9751 443.732 134.554 443.732 134.554L456.661 183.889L440.439 191.862L422.694 133.39L394.523 86.1375L396.43 69.6043Z" fill="#3F3D56"/>
<path d="M381.667 54.4498C392.801 54.4498 401.826 45.421 401.826 34.2835C401.826 23.146 392.801 14.1172 381.667 14.1172C370.533 14.1172 361.508 23.146 361.508 34.2835C361.508 45.421 370.533 54.4498 381.667 54.4498Z" fill="#FFB6B6"/>
<path d="M381.736 26.4151C380.601 26.3031 380.018 27.5034 375.684 29.1781C374.149 29.7714 373.363 30.0692 372.461 30.1272C369.72 30.3034 367.589 28.7888 366.165 27.7766C363.851 26.1313 362.36 25.0715 362.069 23.3771C361.689 21.166 364.191 18.6959 369.211 13.8462C371.67 11.4711 373.168 10.0365 375.573 8.32904C379.608 5.46507 381.626 4.03312 384.454 3.75211C388.199 3.38 391.047 5.16801 395.156 7.7481C396.266 8.44512 397.867 8.78033 399.563 8.90807C405.118 9.32622 409.88 13.0297 411.39 18.393C411.506 18.8028 411.603 19.1737 411.675 19.4913C414.657 32.5138 413.825 46.0584 409.745 58.7793C409.635 59.1217 409.543 59.4406 409.472 59.7311C407.576 67.4782 381.536 70.4981 378.49 63.9488C376.573 59.8247 385.536 55.6983 386.874 43.4013C387.806 34.8405 384.566 26.6943 381.736 26.4151Z" fill="#2F2E41"/>
<path d="M303.217 30.9688H84.7891V32.0888H303.217V30.9688Z" fill="#E6E6E6"/>
<path d="M272.382 14.5933H115.627C113.158 14.5933 111.148 12.5835 111.148 10.1131C111.148 7.64269 113.158 5.63281 115.627 5.63281H272.382C274.851 5.63281 276.861 7.64269 276.861 10.1131C276.861 12.5835 274.851 14.5933 272.382 14.5933Z" fill="#E6E6E6"/>
<path d="M85.2736 39.8818C90.4621 39.8818 94.6683 35.6742 94.6683 30.4839C94.6683 25.2935 90.4621 21.0859 85.2736 21.0859C80.085 21.0859 75.8789 25.2935 75.8789 30.4839C75.8789 35.6742 80.085 39.8818 85.2736 39.8818Z" fill="#E6E6E6"/>
<path d="M114.18 19.6396C119.368 19.6396 123.575 15.432 123.575 10.2417C123.575 5.05135 119.368 0.84375 114.18 0.84375C108.991 0.84375 104.785 5.05135 104.785 10.2417C104.785 15.432 108.991 19.6396 114.18 19.6396Z" fill="#E6E6E6"/>
<path d="M229.506 135.793H11.0781V136.913H229.506V135.793Z" fill="#3F3D56"/>
<path d="M198.671 119.418H41.9162C39.4467 119.418 37.4375 117.408 37.4375 114.937C37.4375 112.467 39.4467 110.457 41.9162 110.457H198.671C201.14 110.457 203.15 112.467 203.15 114.937C203.15 117.408 201.14 119.418 198.671 119.418Z" fill="#AD63FF"/>
<path d="M9.39468 144.706C14.5832 144.706 18.7894 140.498 18.7894 135.308C18.7894 130.118 14.5832 125.91 9.39468 125.91C4.20614 125.91 0 130.118 0 135.308C0 140.498 4.20614 144.706 9.39468 144.706Z" fill="#AD63FF"/>
<path d="M38.3009 124.464C43.4895 124.464 47.6956 120.256 47.6956 115.066C47.6956 109.876 43.4895 105.668 38.3009 105.668C33.1124 105.668 28.9062 109.876 28.9062 115.066C28.9062 120.256 33.1124 124.464 38.3009 124.464Z" fill="#AD63FF"/>
<path d="M255.521 251.457H37.0938V252.577H255.521V251.457Z" fill="#E6E6E6"/>
<path d="M224.687 235.086H67.9318C65.4623 235.086 63.4531 233.076 63.4531 230.605C63.4531 228.135 65.4623 226.125 67.9318 226.125H224.687C227.156 226.125 229.165 228.135 229.165 230.605C229.165 233.076 227.156 235.086 224.687 235.086Z" fill="#E6E6E6"/>
<path d="M63.5939 239.409C68.7824 239.409 72.9886 235.202 72.9886 230.011C72.9886 224.821 68.7824 220.613 63.5939 220.613C58.4054 220.613 54.1992 224.821 54.1992 230.011C54.1992 235.202 58.4054 239.409 63.5939 239.409Z" fill="#E6E6E6"/>
<path d="M35.4103 261.097C40.5988 261.097 44.805 256.889 44.805 251.699C44.805 246.508 40.5988 242.301 35.4103 242.301C30.2218 242.301 26.0156 246.508 26.0156 251.699C26.0156 256.889 30.2218 261.097 35.4103 261.097Z" fill="#E6E6E6"/>
</g>
<defs>
<clipPath id="clip0_128_4621">
<rect width="569" height="418" fill="white"/>
</clipPath>
</defs>
</svg>
