<svg width="501" height="403" viewBox="0 0 501 403" fill="none" xmlns="http://www.w3.org/2000/svg">
<g clip-path="url(#clip0_132_2707)">
<path d="M348.865 392.252L339.591 392.252L335.18 356.473H348.866L348.865 392.252Z" fill="#FFB6B6"/>
<path d="M348.619 389.223L338.717 385.194L338.434 385.078L332.967 389.223C329.88 389.224 326.92 390.45 324.738 392.633C322.555 394.817 321.329 397.777 321.328 400.865V401.243H351.228V389.223H348.619Z" fill="#2F2E41"/>
<path d="M432.658 380.195L424.358 384.333L404.453 354.279L416.703 348.172L432.658 380.195Z" fill="#FFB6B6"/>
<path d="M433.427 376.426L431.304 377.48L431.086 377.589L420.443 378.411L420.124 378.433L417.078 384.577C415.71 385.259 414.489 386.204 413.487 387.358C412.484 388.512 411.718 389.852 411.233 391.302C410.749 392.751 410.554 394.283 410.661 395.808C410.769 397.333 411.175 398.822 411.858 400.19L412.025 400.524L438.785 387.188L433.427 376.426Z" fill="#2F2E41"/>
<path d="M342.576 199.941L393.712 201.732L394.069 201.214C394.069 201.214 398.43 211.394 398.43 220.12C398.43 223.021 396.413 241.997 397.439 245.587C397.566 246.033 396.689 247.128 396.977 249.207C397.163 250.556 398.194 249.518 398.43 251.388C398.6 252.731 396.787 253.472 396.977 255.024C397.184 256.72 399.679 262.215 399.903 264.102C402.294 284.191 405.477 313.293 405.477 313.293C405.477 313.293 418.262 347.545 420.967 348.102C425.506 349.036 428.571 357.292 426.055 359.009C424.857 359.827 409.375 365.327 409.375 365.327C408.525 365.481 405.863 364.146 407.559 360.989C407.871 360.408 406.01 361.887 405.7 361.191C405.371 360.451 406.017 357.506 405.64 356.685C402.257 349.309 397.062 339.088 392.139 333.839C384.865 326.085 380.259 316.208 378.992 305.65L367.7 243.023L363.83 260.585L360.628 263.75L361.507 271.13L361.355 278.294L353.358 308.108C353.358 308.108 352.159 363.786 354.085 365.554C355.129 366.512 359.555 378.307 351.177 379.37L335.956 378.195C335.956 378.195 333.905 373.872 334.931 372.334C335.956 370.795 335.894 371.215 334.643 368.697C333.392 366.179 333.905 361.913 333.905 361.913C331.911 341.862 331.124 321.709 331.549 301.563C332.312 268.475 336.936 230.463 336.936 229.688C336.975 228.896 336.829 228.106 336.51 227.381V225.292L338.475 217.892L342.576 199.941Z" fill="#2F2E41"/>
<path d="M414.535 206.194C425.689 206.194 434.73 197.15 434.73 185.994C434.73 174.837 425.689 165.793 414.535 165.793C403.382 165.793 394.34 174.837 394.34 185.994C394.34 197.15 403.382 206.194 414.535 206.194Z" fill="#7508CC"/>
<path d="M411.779 196.51C411.43 196.51 411.087 196.428 410.775 196.272C410.463 196.116 410.191 195.89 409.982 195.611L404.473 188.262C404.296 188.026 404.167 187.758 404.094 187.472C404.021 187.186 404.004 186.889 404.046 186.596C404.088 186.304 404.187 186.023 404.337 185.769C404.487 185.515 404.686 185.294 404.922 185.117C405.158 184.94 405.427 184.811 405.712 184.738C405.998 184.664 406.296 184.648 406.588 184.69C406.88 184.732 407.161 184.83 407.414 184.981C407.668 185.131 407.89 185.33 408.067 185.566L411.672 190.373L420.929 176.483C421.093 176.237 421.303 176.026 421.548 175.861C421.794 175.697 422.069 175.582 422.358 175.524C422.647 175.466 422.946 175.466 423.235 175.523C423.525 175.58 423.8 175.694 424.046 175.858C424.291 176.022 424.502 176.232 424.667 176.478C424.831 176.723 424.945 176.998 425.003 177.288C425.06 177.577 425.061 177.876 425.003 178.165C424.946 178.455 424.832 178.73 424.668 178.976L413.649 195.509C413.449 195.808 413.181 196.055 412.867 196.229C412.552 196.403 412.201 196.499 411.842 196.509C411.821 196.509 411.8 196.51 411.779 196.51Z" fill="white"/>
<path d="M424.523 207.35C424.72 206.524 424.733 205.664 424.562 204.833C424.391 204.001 424.04 203.217 423.533 202.535C423.026 201.854 422.376 201.292 421.629 200.889C420.882 200.487 420.055 200.253 419.208 200.204L408.86 164.938L401.859 173.064L412.997 206.084C413.009 207.513 413.545 208.889 414.504 209.949C415.463 211.01 416.777 211.682 418.198 211.838C419.618 211.994 421.047 211.623 422.213 210.796C423.379 209.969 424.201 208.743 424.523 207.35Z" fill="#FFB8B8"/>
<path d="M417.222 190.146L415.877 185.216L417.419 182.271L417.302 181.929L416.837 180.606L414.423 178.671L415.289 176.206L412.235 167.531L411.487 166.026L393.959 130.824L389.757 122.381L388.783 120.854L385.752 116.098L381.608 109.605C380.949 108.567 380.091 107.67 379.082 106.968C378.074 106.265 376.936 105.77 375.734 105.511C375.346 105.425 374.952 105.365 374.556 105.329L374.273 105.307C373.565 105.268 372.856 105.31 372.157 105.431H372.143C370.912 105.644 369.739 106.11 368.697 106.798C367.877 107.329 367.146 107.987 366.531 108.747C365.116 110.503 364.38 112.71 364.459 114.964L364.59 118.513L364.721 121.741L370.871 132.867L371.271 133.594L371.278 133.616L390.201 167.866L395.908 178.191L396.773 179.762L400.611 182.307L399.586 184.867L399.884 188.852L403.148 191.317L407.881 196.123L408.07 196.516L409.524 195.782L409.662 195.709L409.989 195.614L414.489 194.254L417.222 193.433L417.31 193.404L418.058 193.215L417.222 190.146Z" fill="#E6E6E6"/>
<path d="M495.015 350.238C493.645 348.495 491.783 347.202 489.671 346.527C487.559 345.852 485.293 345.825 483.166 346.45L482.7 346.588L478.528 362.884C477.902 360.455 476.565 354.972 475.721 349.606L475.649 349.162L475.234 349.344C470.872 351.273 466.771 353.745 463.029 356.703C456.398 362.023 451.006 368.723 447.226 376.338C443.446 383.953 441.369 392.3 441.14 400.798L441.132 401.111L441.125 401.307L441.678 401.111L453.534 396.872C458.784 397.334 464.07 396.619 469.008 394.777C473.946 392.935 478.41 390.014 482.075 386.226C486.866 381.172 490.152 374.671 493.329 368.381C494.259 366.549 495.211 364.658 496.186 362.84C497.272 360.863 497.742 358.606 497.533 356.36C497.324 354.113 496.447 351.981 495.015 350.238Z" fill="#F2F2F2"/>
<path d="M190.747 79.7264H189.293V23.7031H294.454V25.1575H190.747V79.7264Z" fill="#3F3D56"/>
<path d="M310.578 40.4015C321.732 40.4015 330.773 31.3573 330.773 20.2008C330.773 9.04419 321.732 0 310.578 0C299.425 0 290.383 9.04419 290.383 20.2008C290.383 31.3573 299.425 40.4015 310.578 40.4015Z" fill="#7508CC"/>
<path d="M307.826 30.7128C307.477 30.7128 307.133 30.6315 306.821 30.4755C306.51 30.3194 306.238 30.0929 306.029 29.8138L300.52 22.4655C300.343 22.2295 300.214 21.9608 300.141 21.675C300.067 21.3891 300.051 21.0917 300.093 20.7995C300.135 20.5074 300.233 20.2264 300.384 19.9725C300.534 19.7186 300.733 19.4968 300.969 19.3197C301.205 19.1427 301.474 19.0139 301.759 18.9407C302.045 18.8674 302.342 18.8512 302.634 18.893C302.927 18.9347 303.207 19.0336 303.461 19.1839C303.715 19.3343 303.937 19.5332 304.114 19.7692L307.718 24.5763L316.976 10.6859C317.14 10.4401 317.35 10.2289 317.595 10.0645C317.84 9.89999 318.116 9.78547 318.405 9.72743C318.694 9.6694 318.992 9.66898 319.282 9.72621C319.572 9.78345 319.847 9.89721 320.093 10.061C320.338 10.2248 320.549 10.4354 320.713 10.6807C320.878 10.9261 320.992 11.2014 321.05 11.491C321.107 11.7806 321.108 12.0787 321.05 12.3683C320.993 12.6579 320.879 12.9333 320.715 13.1788L309.695 29.7121C309.496 30.0111 309.228 30.2579 308.914 30.4319C308.599 30.6059 308.248 30.702 307.889 30.712C307.868 30.7124 307.847 30.7128 307.826 30.7128Z" fill="white"/>
<path d="M119.505 215.738H118.051V271.762H223.212V270.307H119.505V215.738Z" fill="#3F3D56"/>
<path d="M239.336 292.003C250.489 292.003 259.531 282.959 259.531 271.802C259.531 260.646 250.489 251.602 239.336 251.602C228.182 251.602 219.141 260.646 219.141 271.802C219.141 282.959 228.182 292.003 239.336 292.003Z" fill="#7508CC"/>
<path d="M236.58 282.314C236.231 282.314 235.887 282.233 235.575 282.077C235.263 281.921 234.992 281.694 234.783 281.415L229.273 274.067C229.096 273.831 228.968 273.562 228.894 273.277C228.821 272.991 228.805 272.693 228.847 272.401C228.889 272.109 228.987 271.828 229.138 271.574C229.288 271.32 229.487 271.098 229.723 270.921C229.959 270.744 230.227 270.615 230.513 270.542C230.799 270.469 231.096 270.453 231.388 270.495C231.68 270.536 231.961 270.635 232.215 270.786C232.469 270.936 232.691 271.135 232.868 271.371L236.472 276.178L245.73 262.287C245.894 262.042 246.104 261.83 246.349 261.666C246.594 261.502 246.869 261.387 247.159 261.329C247.448 261.271 247.746 261.271 248.036 261.328C248.325 261.385 248.601 261.499 248.847 261.663C249.092 261.826 249.303 262.037 249.467 262.282C249.631 262.528 249.746 262.803 249.803 263.093C249.861 263.382 249.861 263.68 249.804 263.97C249.746 264.259 249.632 264.535 249.468 264.78L238.449 281.314C238.25 281.613 237.982 281.86 237.668 282.034C237.353 282.207 237.002 282.304 236.643 282.314C236.622 282.314 236.601 282.314 236.58 282.314Z" fill="white"/>
<path d="M399.158 217.801C399.179 219.332 398.933 220.856 398.431 222.302L398.322 222.281C385.41 224.514 373.893 224.88 368.564 216.952C361.613 208.098 352.051 208.199 341.385 212.086L340.121 210.719L337.969 208.399L339.946 206.159L337.969 201.84L339.619 196.51L341.727 196.124L341.16 191.536L340.273 188.853L342.876 185.995L345.086 178.861L343.494 163.932C341.315 143.469 345.536 122.834 355.576 104.872L361.617 99.4471L364.125 97.1929L367.491 90.9102L371.046 91.3246L380.671 92.4372L380.998 93.2225L383.361 98.9236L395.806 112.296L395.247 117.939L394.999 120.426L394.818 122.215L393.96 130.824L390.463 165.998L390.201 167.866L387.388 188.089C391.961 192.51 396.003 201.025 397.944 208.806C398.162 209.671 397.544 210.551 397.704 211.395C397.929 212.587 398.911 213.722 399.02 214.834C399.121 215.82 399.167 216.81 399.158 217.801Z" fill="#E6E6E6"/>
<path d="M374.507 88.6591C383.739 88.6591 391.224 81.1723 391.224 71.937C391.224 62.7016 383.739 55.2148 374.507 55.2148C365.274 55.2148 357.789 62.7016 357.789 71.937C357.789 81.1723 365.274 88.6591 374.507 88.6591Z" fill="#FFB6B6"/>
<path d="M394.658 67.374C393.669 64.2886 390.955 61.678 387.733 61.3368C387.977 59.2875 387.655 57.2105 386.801 55.332C385.946 53.4534 384.593 51.8453 382.888 50.6827C381.184 49.5201 379.193 48.8476 377.133 48.7384C375.072 48.6293 373.021 49.0876 371.203 50.0636C370.817 49.5993 370.318 49.2427 369.754 49.0281C369.189 48.8136 368.579 48.7485 367.982 48.839C366.789 49.0358 365.664 49.5288 364.71 50.2731C362.341 52.0058 360.487 54.3485 359.344 57.0518C358.201 59.7552 357.812 62.7179 358.219 65.6247C358.212 64.1502 358.865 67.0029 360.737 67.255C362.298 67.569 363.783 68.1818 365.112 69.0598C366.44 69.9377 367.92 70.5585 369.477 70.8902C371.048 71.12 371.453 77.4201 370.331 81.4778C370.118 82.2468 370.01 83.2785 370.719 83.645C371.592 84.0963 372.474 82.9617 373.45 82.851C373.888 82.8441 374.311 83.0076 374.631 83.3069C374.951 83.6063 375.142 84.0181 375.164 84.4557C375.165 84.8947 375.061 85.3276 374.861 85.7184C374.661 86.1091 374.371 86.4463 374.014 86.7021C373.296 87.2062 372.502 87.5911 371.662 87.8419L371.943 88.2421C372.19 88.6997 372.588 89.0572 373.069 89.2534C373.55 89.4495 374.085 89.4722 374.581 89.3175C375.699 90.6663 387.219 86.9211 387.781 84.4592C390.194 82.2848 392.197 79.6957 393.697 76.8145C395.196 73.9014 395.539 70.5295 394.658 67.374Z" fill="#2F2E41"/>
<path d="M408.179 118.301C407.946 120.25 406.121 121.704 404.202 122.111C403.226 122.299 402.225 122.316 401.243 122.162C400.284 122.02 399.337 121.808 398.408 121.529C397.259 121.202 396.123 120.834 394.999 120.424C391.787 119.277 388.69 117.828 385.752 116.098C383.529 114.8 381.401 113.347 379.383 111.749C378.336 110.92 377.321 110.055 376.337 109.153L377.566 109.735C376.468 108.259 375.37 106.782 374.273 105.306C373.211 103.881 372.152 102.456 371.096 101.031C371.03 100.943 370.98 100.885 370.958 100.856V100.849C370.471 100.202 369.991 99.5544 369.511 98.9072C368.064 96.9657 366.64 94.1152 368.304 92.3627C368.659 92.0214 369.09 91.7691 369.561 91.6263C370.033 91.4834 370.531 91.4542 371.016 91.541C371.538 91.6088 372.043 91.7715 372.506 92.0209C373.778 92.8447 374.857 93.9336 375.668 95.2132C376.803 93.5625 379.005 92.9517 380.997 93.2208C381.106 93.228 381.208 93.2426 381.31 93.2571C383.382 93.6134 384.276 92.4936 386.071 93.5916C386.907 94.1006 387.416 96.7184 388.252 97.2275C388.725 97.5183 390.477 97.9546 390.957 98.2528C391.902 98.8345 391.662 101.009 392.614 101.59C393.319 102.02 395.209 100.863 395.915 101.292C396.656 101.75 397.688 104.775 398.43 105.226C399.906 106.135 401.091 104.477 402.566 105.379C404.464 106.55 406.485 107.851 407.284 109.931C407.99 111.764 407.081 114.272 405.329 114.796C406.166 114.896 406.931 115.317 407.463 115.971C407.995 116.626 408.251 117.461 408.179 118.301Z" fill="#E6E6E6"/>
<path opacity="0.2" d="M395 120.426L394.818 122.215C392.758 122.016 390.731 121.559 388.785 120.855C386.222 119.995 384 118.342 382.438 116.136C381.449 114.652 380.417 113.176 379.385 111.751C377.669 109.366 375.968 107.141 374.558 105.33C372.835 103.141 371.541 101.556 371.097 101.032C371.032 100.945 370.981 100.887 370.959 100.858L370.938 100.836L370.959 100.85C379.597 111.786 387.756 118.092 395.247 117.939C395.247 117.939 396.127 120.833 395 120.426Z" fill="black"/>
<path d="M315.951 32.8545C315.738 33.6766 315.708 34.5354 315.863 35.3703C316.018 36.2052 316.354 36.996 316.848 37.687C317.341 38.378 317.98 38.9523 318.72 39.3696C319.459 39.7868 320.281 40.0368 321.127 40.102L330.791 75.5619L337.947 67.5729L327.451 34.3435C327.466 32.9139 326.956 31.5283 326.018 30.4494C325.081 29.3706 323.78 28.6733 322.362 28.4897C320.945 28.3062 319.509 28.6492 318.327 29.4536C317.146 30.2581 316.3 31.4681 315.951 32.8545Z" fill="#FFB8B8"/>
<path d="M372.687 123.53L372.621 120.301L366.529 108.747L366.304 108.325L366.289 108.303L361.615 99.4461L339.059 56.6697L336.636 55.7797L336.757 52.305L336.636 48.508L333.726 46.5563L332.485 44.2031L330.726 44.7049H330.719L330.668 44.7194L322.977 46.8791H322.969L321.37 47.7808L319.916 52.1438L319.598 54.2094L319.916 57.9612L323.551 58.6883L322.347 62.5354L326.001 73.6026C330.573 92.9453 336.818 109.641 347.599 119.174L348.486 120.629L355.501 132.111C356.458 133.681 357.859 134.933 359.527 135.708C361.194 136.484 363.054 136.747 364.872 136.466H364.879C366.113 136.275 367.295 135.834 368.354 135.172C369.33 134.569 370.184 133.787 370.869 132.867C372.122 131.203 372.784 129.169 372.752 127.086L372.687 123.53Z" fill="#E6E6E6"/>
<path d="M500.134 402.775L302.58 402.998C302.351 402.998 302.131 402.907 301.968 402.745C301.806 402.582 301.715 402.362 301.715 402.132C301.715 401.903 301.806 401.682 301.968 401.52C302.131 401.358 302.351 401.266 302.58 401.266L500.134 401.043C500.364 401.043 500.584 401.134 500.747 401.297C500.909 401.459 501 401.679 501 401.909C501 402.138 500.909 402.359 500.747 402.521C500.584 402.683 500.364 402.775 500.134 402.775Z" fill="#CACACA"/>
<path d="M60.7958 111.771C60.7837 100.84 64.9587 90.3202 72.4624 82.3738L46.7107 46.9204C45.6507 45.4598 44.2884 44.2448 42.7167 43.3582C41.145 42.4716 39.4007 41.9343 37.6027 41.7827C35.8046 41.6311 33.995 41.8688 32.2971 42.4798C30.5992 43.0907 29.0529 44.0605 27.7634 45.323C18.9419 53.9246 11.9386 64.2118 7.16936 75.5736C2.40011 86.9354 -0.0377974 99.1401 0.00044299 111.463C0.000514817 116.116 0.34734 120.763 1.03802 125.365C1.30898 127.184 1.97343 128.923 2.98505 130.459C3.99667 131.995 5.33112 133.292 6.89531 134.259C8.44184 135.216 10.1786 135.825 11.9844 136.042C13.7902 136.259 15.6216 136.079 17.3508 135.515L61.8163 121.064C61.1396 118.012 60.7974 114.896 60.7958 111.771Z" fill="#F2F2F2"/>
<path d="M63.1604 125.82L16.9325 140.845C15.2217 141.398 13.6497 142.313 12.3231 143.527C10.9965 144.741 9.94633 146.226 9.24368 147.881C8.54104 149.537 8.20236 151.324 8.25061 153.122C8.29886 154.92 8.7329 156.686 9.52333 158.301C16.1066 171.661 25.811 183.237 37.8151 192.05C49.8191 200.863 63.7694 206.653 78.4846 208.93C80.2768 209.205 82.1073 209.09 83.8507 208.591C85.594 208.092 87.2089 207.222 88.5845 206.041C89.9583 204.862 91.0609 203.401 91.8166 201.756C92.5723 200.111 92.9631 198.322 92.9623 196.512V153.323C86.1157 151.546 79.8134 148.106 74.6146 143.309C69.4159 138.511 65.4814 132.504 63.1604 125.82Z" fill="#E6E6E6"/>
<path d="M202.178 152.804C201.397 150.95 200.227 149.286 198.746 147.925C197.265 146.565 195.509 145.539 193.596 144.917L143.179 128.531C140.235 135.455 135.525 141.483 129.52 146.012C123.515 150.542 116.425 153.414 108.961 154.34V206.884C108.962 208.901 109.399 210.894 110.242 212.727C111.085 214.559 112.313 216.187 113.844 217.5C115.375 218.813 117.171 219.78 119.11 220.333C121.049 220.887 123.084 221.015 125.077 220.708C141.458 218.174 156.987 211.729 170.35 201.918C183.713 192.108 194.516 179.222 201.844 164.35C202.726 162.562 203.211 160.606 203.269 158.613C203.327 156.621 202.954 154.64 202.178 152.804Z" fill="#3F3D56"/>
<path d="M189.655 32.2798C188.22 30.8743 186.498 29.7947 184.608 29.1146C182.718 28.4344 180.704 28.1697 178.702 28.3385C176.7 28.5072 174.759 29.1054 173.009 30.0924C171.259 31.0794 169.743 32.432 168.563 34.058L134.094 81.5139C138.059 85.4901 141.203 90.2085 143.345 95.3999C145.487 100.591 146.586 106.154 146.579 111.77C146.579 112.815 146.529 113.847 146.455 114.874L201.247 132.681C203.184 133.307 205.234 133.502 207.255 133.254C209.275 133.006 211.218 132.32 212.946 131.245C214.675 130.169 216.148 128.73 217.264 127.026C218.379 125.323 219.11 123.397 219.406 121.382C220.175 116.259 220.561 111.086 220.561 105.905C220.603 92.188 217.889 78.602 212.58 65.9543C207.271 53.3066 199.475 41.855 189.655 32.2798Z" fill="#661AA4"/>
<path d="M103.688 68.8697C111.067 68.8614 118.323 70.7671 124.746 74.4009L145.785 45.4359C146.857 43.9608 147.597 42.2704 147.953 40.4816C148.308 38.6927 148.272 36.8479 147.846 35.0745C147.433 33.3349 146.648 31.7055 145.545 30.2989C144.441 28.8923 143.046 27.7419 141.455 26.9272C128.466 20.3195 114.104 16.8651 99.5312 16.8438C84.9588 16.8226 70.5863 20.2352 57.5781 26.805C55.9376 27.633 54.4967 28.8078 53.3552 30.2481C52.2137 31.6883 51.3989 33.3596 50.9672 35.1462C50.5415 36.9072 50.5036 38.7398 50.8563 40.5169C51.209 42.294 51.9437 43.9732 53.0097 45.438L76.8761 78.2966C84.4751 72.184 93.9368 68.8573 103.688 68.8697Z" fill="#E6E6E6"/>
</g>
<defs>
<clipPath id="clip0_132_2707">
<rect width="501" height="403" fill="white"/>
</clipPath>
</defs>
</svg>
