<svg width="624" height="485" viewBox="0 0 624 485" fill="none" xmlns="http://www.w3.org/2000/svg">
<g clip-path="url(#clip0_132_2396)">
<path d="M324.985 84.9767H171.621C165.736 84.9767 160.949 80.0328 160.949 73.9568V11.0189C160.949 4.94295 165.736 0 171.621 0H324.985C330.869 0 335.657 4.94294 335.657 11.0189V73.9569C335.657 80.0328 330.869 84.9767 324.985 84.9767Z" fill="#9591FF"/>
<path d="M324.985 277.719H171.621C165.736 277.719 160.949 272.775 160.949 266.699V203.761C160.949 197.685 165.736 192.742 171.621 192.742H324.985C330.869 192.742 335.657 197.685 335.657 203.761V266.699C335.657 272.775 330.869 277.719 324.985 277.719Z" fill="white"/>
<path d="M324.075 180.224H263.782C257.589 180.224 252.551 175.022 252.551 168.627V108.269C252.551 101.874 257.589 96.6719 263.782 96.6719H324.075C330.268 96.6719 335.307 101.874 335.307 108.269V168.627C335.307 175.022 330.268 180.224 324.075 180.224Z" fill="white"/>
<path d="M232.122 180.224H171.829C165.636 180.224 160.598 175.022 160.598 168.627V108.269C160.598 101.874 165.636 96.6719 171.829 96.6719H232.122C238.315 96.6719 243.354 101.874 243.354 108.269V168.627C243.354 175.022 238.315 180.224 232.122 180.224Z" fill="white"/>
<path d="M323.478 373.553H263.185C256.992 373.553 251.953 368.35 251.953 361.955V301.598C251.953 295.203 256.992 290 263.185 290H323.478C329.671 290 334.709 295.203 334.709 301.598V361.955C334.709 368.35 329.671 373.553 323.478 373.553Z" fill="white"/>
<path d="M231.524 373.553H171.232C165.038 373.553 160 368.35 160 361.955V301.598C160 295.203 165.038 290 171.232 290H231.524C237.718 290 242.756 295.203 242.756 301.598V361.955C242.756 368.35 237.718 373.553 231.524 373.553Z" fill="white"/>
<path d="M624 483.577C624 484.365 623.384 485.001 622.621 485.001H1.37927C0.616074 485.001 0 484.365 0 483.577C0 482.788 0.616074 482.152 1.37927 482.152H622.621C623.384 482.152 624 482.788 624 483.577Z" fill="#2F2E43"/>
<path d="M479.69 431.226L466.986 445.001L453.445 432.076L466.15 418.301L479.69 431.226Z" fill="#EC9C9F"/>
<path d="M489.84 445.332L462.834 474.612C460.525 477.115 457.642 479.092 454.496 480.33L446.967 483.294C445.41 483.906 443.618 483.551 442.401 482.39C440.973 481.027 440.612 478.844 441.522 477.081L448.764 463.053L456.492 434.605L456.577 434.659C458.679 435.996 461.868 438.002 462.095 438.086C466.097 438.233 468.962 437.193 470.611 434.998C473.487 431.169 471.663 425.056 471.644 424.995L471.629 424.948L471.666 424.916C472.504 424.176 473.388 423.881 474.291 424.036C476.209 424.367 477.581 426.592 477.782 426.934C479.581 426.856 485.107 431.325 485.552 431.687C488.265 431.679 490.254 432.343 491.463 433.661C492.52 434.813 492.98 436.449 492.831 438.522C492.652 441.016 491.589 443.435 489.84 445.332Z" fill="#090814"/>
<path d="M465.025 447.086H446.457V465.975H465.025V447.086Z" fill="#EC9C9F"/>
<path d="M461.856 483.157H422.388C419.015 483.157 415.625 482.371 412.585 480.885L405.309 477.326C403.804 476.591 402.832 475.018 402.832 473.32C402.832 471.329 404.15 469.567 406.036 469.036L421.047 464.81L446.727 451.078L446.746 451.177C447.227 453.651 447.971 457.39 448.065 457.616C450.699 460.686 453.404 462.1 456.106 461.821C460.819 461.335 463.952 455.798 463.984 455.743L464.007 455.7L464.055 455.705C465.159 455.821 465.975 456.274 466.482 457.051C467.557 458.7 466.901 461.24 466.793 461.623C468.081 462.905 468.659 470.062 468.703 470.64C470.565 472.647 471.45 474.577 471.333 476.376C471.23 477.949 470.373 479.409 468.785 480.717C466.874 482.291 464.413 483.157 461.856 483.157Z" fill="#090814"/>
<path d="M467.229 209.188L401.435 209.221L379.504 350.492L445.297 431.237L467.229 411.051L415.233 350.492L467.229 209.188Z" fill="#090814"/>
<path d="M428.34 230.012L467.228 209.188V451.423L445.297 452.045L428.34 230.012Z" fill="#090814"/>
<path d="M389.39 265.838L389.853 243.787L377.384 243.508L376.921 265.559C374.594 267.789 373.059 271.254 372.976 275.182C372.832 282.056 377.181 287.728 382.69 287.851C388.199 287.975 392.782 282.503 392.926 275.629C393.009 271.701 391.62 268.17 389.39 265.838Z" fill="#EC9C9F"/>
<path d="M448.517 50.4852C448.517 50.4852 466.416 50.4453 459.729 32.6374C453.043 14.8296 440.593 22.8031 440.593 22.8031C440.593 22.8031 435.347 25.6645 436.428 32.0485" fill="#090814"/>
<path d="M450.306 59.0264C450.306 45.3729 439.587 34.3047 426.364 34.3047C413.141 34.3047 402.422 45.3729 402.422 59.0264C402.422 70.0993 409.473 79.4707 419.191 82.618L423.819 114.202L447.414 93.8996C447.414 93.8996 442.317 87.1956 439.583 79.6363C446.044 75.209 450.306 67.6329 450.306 59.0264Z" fill="#EC9C9F"/>
<path d="M437.868 79.9091C437.868 79.9091 441.048 67.3225 435.849 61.535C430.662 55.7608 429.992 64.7453 429.992 64.7453L426.25 63.9052C426.25 63.9052 426.9 55.1679 419.578 53.6557L424.297 43.2381C424.297 43.2381 406.23 46.8603 405.732 45.0535C401.814 30.8365 439.193 18.6919 449.519 40.3817C465.579 74.1164 437.868 79.9091 437.868 79.9091Z" fill="#090814"/>
<path d="M416.721 101.934C399.339 105.441 386.292 120.385 384.71 138.599L373.891 263.163H392.877L416.721 101.934Z" fill="white"/>
<path d="M398.769 201.177L395.812 236.348L476.077 211.972L466.297 186.552L484.508 143.372L447.333 88.3516L417.655 90.4409L406.189 105.763" fill="white"/>
<path d="M464.223 234.581L475.418 215.796L464.796 209.047L453.601 227.831C450.503 228.541 447.481 230.729 445.487 234.076C441.997 239.931 442.973 247.095 447.666 250.077C452.359 253.059 458.992 250.73 462.482 244.875C464.476 241.528 465.006 237.757 464.223 234.581Z" fill="#EC9C9F"/>
<path d="M441.262 89.0507L447.734 88.7734L458.798 97.4081C471.91 99.7168 475.712 100.364 479.729 109.307C481.417 113.065 482.536 117.068 483.162 121.159L492.523 182.376L468.994 240.878L453.403 222.77L470.07 177.032L467.301 166.091" fill="white"/>
</g>
<defs>
<clipPath id="clip0_132_2396">
<rect width="624" height="485" fill="white"/>
</clipPath>
</defs>
</svg>
