<svg width="742" height="523" viewBox="0 0 742 523" fill="none" xmlns="http://www.w3.org/2000/svg">
<g clip-path="url(#clip0_25_3430)">
<path d="M291.716 327.856C291.945 326.303 291.83 324.718 291.379 323.213C290.929 321.708 290.154 320.321 289.11 319.148C288.065 317.975 286.776 317.046 285.333 316.425C283.891 315.805 282.33 315.508 280.76 315.556L211.955 245.989L198.363 264.99L270.27 327.397C270.525 330.029 271.737 332.476 273.676 334.273C275.614 336.071 278.145 337.096 280.789 337.152C283.432 337.209 286.005 336.294 288.019 334.581C290.033 332.867 291.348 330.475 291.716 327.856Z" fill="#FFB8B8"/>
<path d="M259.124 287.686L241.563 305.228C240.721 306.064 239.586 306.534 238.4 306.539C237.215 306.544 236.075 306.082 235.228 305.254L187.24 258.076C185.581 256.444 184.262 254.5 183.359 252.356C182.456 250.211 181.987 247.909 181.979 245.583C181.971 243.256 182.425 240.951 183.313 238.8C184.202 236.65 185.508 234.697 187.157 233.055C188.805 231.412 190.762 230.113 192.916 229.232C195.069 228.351 197.376 227.905 199.703 227.921C202.029 227.937 204.33 228.414 206.471 229.325C208.612 230.236 210.552 231.562 212.177 233.227L259.164 281.359C259.988 282.209 260.445 283.348 260.437 284.531C260.43 285.714 259.958 286.847 259.124 287.686Z" fill="#EC4755"/>
<path d="M197.534 201.581C211.099 201.581 222.095 190.585 222.095 177.02C222.095 163.456 211.099 152.459 197.534 152.459C183.969 152.459 172.973 163.456 172.973 177.02C172.973 190.585 183.969 201.581 197.534 201.581Z" fill="#FFB8B8"/>
<path d="M114.543 471.345L120.762 481.91L164.474 462.951L155.295 447.357L114.543 471.345Z" fill="#FFB8B8"/>
<path d="M116.406 466.62L128.654 487.427C129.679 489.168 130.351 491.095 130.632 493.096C130.912 495.097 130.796 497.134 130.289 499.09C129.783 501.046 128.896 502.883 127.679 504.496C126.463 506.109 124.94 507.467 123.199 508.492L122.768 508.746L102.716 474.679L116.406 466.62Z" fill="#2F2E41"/>
<path d="M186.6 509.407H198.86L204.692 462.119L186.598 462.12L186.6 509.407Z" fill="#FFB8B8"/>
<path d="M183.473 505.405L207.617 505.404H207.618C209.638 505.404 211.639 505.802 213.506 506.575C215.373 507.348 217.069 508.481 218.498 509.91C219.927 511.339 221.06 513.035 221.833 514.902C222.606 516.769 223.004 518.769 223.004 520.79V521.29L183.474 521.292L183.473 505.405Z" fill="#2F2E41"/>
<path d="M137.311 480.757C136.606 480.758 135.91 480.592 135.281 480.274C134.651 479.955 134.105 479.493 133.687 478.924L121.864 462.866C121.503 462.376 121.245 461.818 121.106 461.226C120.967 460.634 120.95 460.019 121.055 459.42C121.16 458.821 121.386 458.249 121.718 457.74C122.05 457.23 122.482 456.793 122.988 456.456L175.602 421.314L143.856 337.839L211.745 343.442L214.031 415.175C214.246 421.708 212.68 428.176 209.502 433.888C206.323 439.599 201.651 444.339 195.986 447.599L139.56 480.153C138.877 480.549 138.101 480.757 137.311 480.757Z" fill="#2F2E41"/>
<path d="M186.97 499.807C185.806 499.805 184.688 499.352 183.851 498.542C183.014 497.733 182.523 496.631 182.481 495.467L179.993 425.585L210.802 423.962L208.349 494.346C208.312 495.461 207.862 496.523 207.086 497.324C206.309 498.125 205.262 498.608 204.149 498.679L187.276 499.797C187.174 499.804 187.072 499.807 186.97 499.807Z" fill="#2F2E41"/>
<path d="M219.602 357.319C211.763 357.319 184.385 348.503 174.881 345.36C173.459 346.498 165.647 352.338 156.529 351.271C150.903 350.611 145.951 347.426 141.808 341.805C132.661 329.391 143.959 276.154 155.047 233.679C157.27 225.094 162.735 217.704 170.293 213.065C177.852 208.425 186.914 206.896 195.576 208.799C201.854 210.185 207.621 213.295 212.23 217.778C216.838 222.261 220.105 227.94 221.664 234.177C223.751 242.675 221.955 252.671 220.644 259.971C220.028 263.403 219.541 266.114 219.707 267.446C220.351 272.594 223.926 353.337 221.627 356.786C221.382 357.153 220.674 357.319 219.602 357.319Z" fill="#EC4755"/>
<path d="M190.927 357.462C192.187 356.524 193.225 355.321 193.97 353.939C194.715 352.556 195.147 351.027 195.237 349.459C195.327 347.891 195.072 346.322 194.49 344.864C193.908 343.405 193.013 342.092 191.868 341.016L192.354 243.173L169.309 247.01L176.078 341.98C174.399 344.023 173.527 346.61 173.628 349.253C173.729 351.895 174.796 354.408 176.626 356.316C178.456 358.225 180.923 359.395 183.559 359.606C186.195 359.818 188.816 359.054 190.927 357.462Z" fill="#FFB8B8"/>
<path d="M196.257 306.008H171.435C170.25 306.005 169.113 305.535 168.271 304.701C167.429 303.867 166.949 302.735 166.935 301.549L166.326 234.257C166.304 231.93 166.745 229.622 167.621 227.467C168.498 225.311 169.793 223.351 171.432 221.699C173.071 220.047 175.021 218.737 177.169 217.843C179.318 216.95 181.622 216.491 183.949 216.494C186.276 216.497 188.58 216.961 190.726 217.86C192.872 218.758 194.819 220.074 196.454 221.73C198.089 223.385 199.38 225.349 200.251 227.507C201.122 229.664 201.557 231.973 201.53 234.3L200.757 301.56C200.739 302.743 200.258 303.872 199.416 304.704C198.575 305.536 197.44 306.004 196.257 306.008Z" fill="#EC4755"/>
<path d="M191.28 201.479C180.035 201.499 169.426 192.611 167.477 181.536C166.78 177.185 167.094 172.732 168.396 168.522C169.811 163.73 172.236 159.296 175.508 155.521C178.781 151.745 182.825 148.715 187.367 146.635C191.91 144.554 196.846 143.472 201.842 143.461C206.839 143.449 211.78 144.509 216.332 146.569C219.34 147.93 222.303 149.886 223.681 152.887C225.058 155.888 224.196 160.082 221.183 161.432C219.214 162.315 216.743 161.881 214.996 163.148C212.486 164.967 213.132 168.839 214.253 171.729C215.373 174.619 216.64 178.116 214.762 180.581C213.012 182.879 209.513 182.808 206.758 181.943C204.002 181.078 201.282 179.63 198.409 179.925C194.219 180.354 191.207 184.522 190.65 188.698C190.093 192.873 191.405 197.047 192.7 201.055L191.28 201.479Z" fill="#2F2E41"/>
<path d="M498.619 226.546C498.619 159.38 553.067 0 620.232 0C687.398 0 741.846 159.38 741.846 226.546C741.846 258.8 729.033 289.733 706.226 312.54C683.419 335.347 652.486 348.159 620.232 348.159C587.978 348.159 557.045 335.347 534.238 312.54C511.431 289.733 498.619 258.8 498.619 226.546Z" fill="#EC4755"/>
<path d="M620.232 522.418C619.967 522.418 619.713 522.313 619.525 522.125C619.338 521.938 619.232 521.683 619.232 521.418V102.134C619.232 101.869 619.338 101.614 619.525 101.427C619.713 101.239 619.967 101.134 620.232 101.134C620.498 101.134 620.752 101.239 620.939 101.427C621.127 101.614 621.232 101.869 621.232 102.134V521.418C621.232 521.683 621.127 521.938 620.939 522.125C620.752 522.313 620.498 522.418 620.232 522.418Z" fill="#3F3D56"/>
<path d="M620.232 183.08C620.101 183.08 619.971 183.054 619.849 183.004C619.728 182.953 619.618 182.88 619.525 182.787L571.391 134.652C571.205 134.464 571.101 134.211 571.102 133.946C571.103 133.682 571.208 133.429 571.395 133.243C571.582 133.056 571.835 132.951 572.099 132.95C572.363 132.949 572.617 133.053 572.805 133.238L620.939 181.372C621.079 181.512 621.174 181.69 621.213 181.884C621.252 182.078 621.232 182.279 621.156 182.462C621.08 182.645 620.952 182.801 620.788 182.911C620.623 183.021 620.43 183.08 620.232 183.08Z" fill="#3F3D56"/>
<path d="M620.232 266.41C620.035 266.41 619.841 266.351 619.677 266.241C619.512 266.131 619.384 265.975 619.309 265.792C619.233 265.61 619.213 265.409 619.252 265.215C619.29 265.021 619.385 264.843 619.525 264.703L700.135 184.092C700.323 183.907 700.577 183.803 700.841 183.804C701.105 183.805 701.358 183.91 701.544 184.097C701.731 184.284 701.837 184.537 701.837 184.801C701.838 185.065 701.735 185.318 701.549 185.506L620.939 266.117C620.847 266.21 620.736 266.283 620.615 266.334C620.494 266.384 620.364 266.41 620.232 266.41Z" fill="#3F3D56"/>
<path d="M283.678 327.287C299.632 323.68 317.708 336.161 318.268 352.915C318.426 357.627 317.045 362.576 313.418 365.782C310.425 368.429 305.97 369.764 302.1 368.47C294.652 365.981 294.255 355.603 298.25 350.061C303.659 342.556 314.376 341.274 322.879 342.167C333.275 343.258 343.156 347.817 351.447 354.065C368.046 366.573 378.615 385.742 387.17 404.264C395.928 423.264 402.296 443.276 406.129 463.843C406.612 466.426 407.054 469.016 407.455 471.614C407.569 471.994 407.828 472.315 408.176 472.506C408.524 472.697 408.933 472.743 409.315 472.635C409.691 472.515 410.007 472.255 410.197 471.909C410.388 471.563 410.437 471.157 410.336 470.775C406.834 448.332 400.366 426.453 391.102 405.713C382.144 385.641 370.851 364.82 352.887 351.424C343.931 344.746 333.356 340.1 322.164 339.106C312.743 338.269 301.586 340.263 295.727 348.457C291.105 354.922 291.574 365.665 298.726 370.168C302.658 372.643 307.654 372.354 311.737 370.429C313.904 369.359 315.812 367.831 317.329 365.951C318.846 364.07 319.936 361.882 320.523 359.538C323.063 350.233 319.206 340.168 312.595 333.517C306.39 327.257 297.957 323.711 289.143 323.655C287.021 323.678 284.907 323.93 282.839 324.406C280.955 324.832 281.797 327.712 283.678 327.287Z" fill="#CCCCCC"/>
<path d="M360.621 511.55L350.706 494.622L362.932 487.461L372.847 504.388C373.796 506.01 374.063 507.942 373.588 509.76C373.113 511.578 371.935 513.133 370.314 514.082C368.693 515.032 366.761 515.299 364.943 514.824C363.125 514.349 361.571 513.171 360.621 511.55Z" fill="#EC4755"/>
<path d="M327.838 476.364C332.654 476.364 336.557 472.46 336.557 467.645C336.557 462.829 332.654 458.926 327.838 458.926C323.023 458.926 319.119 462.829 319.119 467.645C319.119 472.46 323.023 476.364 327.838 476.364Z" fill="#EC4755"/>
<path d="M398.983 511.55L389.068 494.622L401.293 487.461L411.208 504.388C412.155 506.01 412.42 507.94 411.945 509.757C411.469 511.573 410.292 513.127 408.672 514.076C407.052 515.025 405.122 515.292 403.305 514.818C401.488 514.345 399.933 513.169 398.983 511.55Z" fill="#EC4755"/>
<path d="M329.495 485.21C329.501 480.298 331.454 475.588 334.928 472.115C338.401 468.641 343.111 466.688 348.023 466.682H406.674C408.75 466.685 410.741 467.51 412.209 468.979C413.677 470.447 414.503 472.437 414.505 474.513V481.187C414.498 487.166 412.12 492.898 407.893 497.125C403.665 501.353 397.933 503.731 391.955 503.738H348.023C343.111 503.732 338.401 501.778 334.928 498.305C331.454 494.831 329.501 490.122 329.495 485.21Z" fill="#3F3D56"/>
<path d="M343.02 513.733V494.115H357.189V513.733C357.189 515.612 356.442 517.414 355.114 518.742C353.785 520.071 351.983 520.817 350.105 520.817C348.226 520.817 346.424 520.071 345.095 518.742C343.767 517.414 343.02 515.612 343.02 513.733Z" fill="#3F3D56"/>
<path d="M384.133 513.733V494.115H398.301V513.733C398.303 514.664 398.12 515.586 397.765 516.446C397.409 517.307 396.887 518.089 396.229 518.748C395.572 519.406 394.79 519.929 393.93 520.285C393.07 520.642 392.148 520.826 391.217 520.826C390.286 520.826 389.364 520.642 388.504 520.285C387.644 519.929 386.863 519.406 386.205 518.748C385.547 518.089 385.025 517.307 384.67 516.446C384.314 515.586 384.132 514.664 384.133 513.733Z" fill="#3F3D56"/>
<path d="M441.778 436.117C443.228 434.319 445.332 433.17 447.628 432.922C449.924 432.673 452.224 433.346 454.025 434.792C455.825 436.238 456.979 438.34 457.232 440.635C457.485 442.931 456.817 445.233 455.374 447.036L441.042 464.881L427.446 453.961L441.778 436.117Z" fill="#EC4755"/>
<path d="M407.255 471.269L418.737 456.974C421.529 453.506 425.582 451.287 430.008 450.803C434.433 450.32 438.87 451.612 442.345 454.396L445.932 457.277C450.067 460.606 452.712 465.439 453.288 470.716C453.865 475.993 452.324 481.283 449.005 485.425L439.545 497.203C438.5 498.501 436.982 499.332 435.325 499.513C433.668 499.694 432.007 499.21 430.706 498.168L408.22 480.108C406.922 479.063 406.091 477.545 405.91 475.888C405.729 474.231 406.213 472.57 407.255 471.269Z" fill="#3F3D56"/>
<path d="M443.484 433.992C443.977 433.379 444.586 432.868 445.276 432.49C445.967 432.111 446.725 431.873 447.507 431.787C448.29 431.702 449.082 431.771 449.837 431.992C450.593 432.212 451.298 432.579 451.911 433.072C452.525 433.565 453.036 434.174 453.414 434.865C453.793 435.555 454.031 436.313 454.117 437.095C454.202 437.878 454.133 438.67 453.912 439.425C453.692 440.181 453.324 440.886 452.831 441.5L436.794 461.468L427.446 453.961L443.484 433.992Z" fill="#3F3D56"/>
<path d="M420.509 467.371L445.151 487.163C446.947 488.613 448.095 490.716 448.343 493.011C448.59 495.307 447.917 497.606 446.472 499.406C445.026 501.206 442.926 502.359 440.631 502.613C438.337 502.866 436.035 502.199 434.232 500.758L409.589 480.967L420.509 467.371Z" fill="#3F3D56"/>
<path d="M447.544 500.066C448.817 498.482 449.134 496.625 448.255 495.918C447.375 495.212 445.63 495.923 444.358 497.507C443.086 499.091 442.768 500.947 443.648 501.654C444.528 502.361 446.272 501.65 447.544 500.066Z" fill="#EC4755"/>
<path d="M692 522.233H1.00003C0.734814 522.233 0.480459 522.127 0.292923 521.94C0.105387 521.752 3.05176e-05 521.498 3.05176e-05 521.233C3.05176e-05 520.967 0.105387 520.713 0.292923 520.526C0.480459 520.338 0.734814 520.233 1.00003 520.233H692C692.265 520.233 692.52 520.338 692.707 520.526C692.895 520.713 693 520.967 693 521.233C693 521.498 692.895 521.752 692.707 521.94C692.52 522.127 692.265 522.233 692 522.233Z" fill="#CCCCCC"/>
</g>
<defs>
<clipPath id="clip0_25_3430">
<rect width="741.846" height="522.418" fill="white"/>
</clipPath>
</defs>
</svg>
