<svg width="116" height="68" viewBox="0 0 116 68" fill="none" xmlns="http://www.w3.org/2000/svg">
<path opacity="0.7" d="M115.81 54.8331C115.81 53.1291 115.473 51.4418 114.82 49.868C114.167 48.2942 113.209 46.8649 112.002 45.6621C110.795 44.4592 109.362 43.5064 107.786 42.8584C106.21 42.2104 104.522 41.8798 102.818 41.8857C101.559 41.8851 100.306 42.0661 99.0992 42.4233C99.3183 41.1057 99.4232 39.7717 99.4128 38.4361C99.4128 31.1643 96.5241 24.1905 91.3822 19.0486C86.2403 13.9067 79.2665 11.0181 71.9948 11.0181C70.2955 11.0219 68.6004 11.1869 66.9323 11.5109C64.2305 7.0699 60.1582 3.62764 55.3293 1.70313C50.5004 -0.221389 45.1767 -0.523843 40.1609 0.84134C35.1452 2.20652 30.7092 5.16535 27.5218 9.27172C24.3344 13.3781 22.5683 18.4094 22.49 23.607H22.0868C16.229 23.607 10.6112 25.934 6.46908 30.0761C2.32702 34.2182 0 39.836 0 45.6938C0 51.5516 2.32702 57.1694 6.46908 61.3115C10.6112 65.4535 16.229 67.7805 22.0868 67.7805H103.221C106.588 67.676 109.784 66.2672 112.133 63.8516C114.481 61.436 115.8 58.2024 115.81 54.8331Z" fill="#E8C9FE"/>
</svg>
