<svg width="259" height="111" viewBox="0 0 259 111" fill="none" xmlns="http://www.w3.org/2000/svg">
<path opacity="0.7" d="M20.1013 72.6481H85.5103C85.3301 71.0716 85.2404 69.486 85.2415 67.8992C85.2414 56.504 89.759 45.5735 97.804 37.5032C105.849 29.433 116.765 24.8813 128.161 24.8458H129.729C132.84 16.4526 138.808 9.4235 146.585 4.99266C154.363 0.56183 163.453 -0.987561 172.259 0.616504C181.066 2.22057 189.025 6.87557 194.741 13.7642C200.457 20.6529 203.564 29.3349 203.515 38.286C212.515 38.7065 221.036 42.4553 227.427 48.8049C233.818 55.1544 237.622 63.6519 238.101 72.6481H240.162C245.082 72.8861 249.721 75.0078 253.118 78.5735C256.515 82.1392 258.41 86.8754 258.41 91.8004C258.41 96.7255 256.515 101.462 253.118 105.027C249.721 108.593 245.082 110.715 240.162 110.953H20.1013C17.5083 111.078 14.9167 110.676 12.4838 109.77C10.051 108.864 7.82737 107.473 5.94784 105.683C4.0683 103.892 2.57198 101.738 1.54959 99.3518C0.527207 96.9655 0 94.3965 0 91.8004C0 89.2044 0.527207 86.6353 1.54959 84.249C2.57198 81.8627 4.0683 79.7089 5.94784 77.9181C7.82737 76.1273 10.051 74.7368 12.4838 73.8309C14.9167 72.925 17.5083 72.5226 20.1013 72.6481Z" fill="#E8C9FE"/>
</svg>
