<svg width="171" height="156" viewBox="0 0 171 156" fill="none" xmlns="http://www.w3.org/2000/svg">
<path d="M170.643 81.356C170.632 76.2623 168.603 71.3807 165.001 67.7789C161.399 64.1771 156.518 62.1484 151.424 62.1365C149.555 62.1423 147.697 62.4293 145.914 62.9878C146.2 61.0293 146.349 59.0533 146.361 57.0741C146.361 51.7283 145.308 46.4348 143.261 41.4965C141.214 36.5582 138.213 32.0718 134.431 28.2938C130.649 24.5158 126.159 21.5203 121.219 19.4787C116.278 17.437 110.983 16.3891 105.638 16.395C103.128 16.3903 100.624 16.6153 98.156 17.0671C94.1457 10.4832 88.1051 5.38038 80.9437 2.52679C73.7822 -0.326809 65.8876 -0.776712 58.4483 1.24482C51.0091 3.26636 44.4278 7.64992 39.6955 13.7355C34.9632 19.8211 32.336 27.2793 32.2094 34.9873H31.5821C23.1002 35.301 15.0703 38.891 9.18053 45.0026C3.29076 51.1142 0 59.2713 0 67.759C0 76.2467 3.29076 84.4038 9.18053 90.5154C15.0703 96.6271 23.1002 100.217 31.5821 100.531H151.962C156.957 100.391 161.702 98.3106 165.19 94.7309C168.678 91.1513 170.634 86.3538 170.643 81.356Z" fill="#E8C9FE"/>
<path d="M103.62 65.3164H54.7428V118.943H42.6914L79.1591 155.679L115.672 118.943H103.62V65.3164Z" fill="#834CCD"/>
</svg>
