<svg width="129" height="102" viewBox="0 0 129 102" fill="none" xmlns="http://www.w3.org/2000/svg">
<path d="M128.09 60.6112C128.093 58.7282 127.724 56.8633 127.005 55.1231C126.286 53.383 125.23 51.8019 123.899 50.4705C122.567 49.139 120.986 48.0834 119.246 47.3642C117.506 46.6449 115.641 46.2761 113.758 46.2789C112.365 46.2815 110.98 46.4835 109.645 46.8788C109.855 45.4602 109.963 44.0282 109.966 42.5941C109.963 38.1374 108.979 33.736 107.083 29.7025C105.188 25.669 102.427 22.1023 98.9981 19.2558C95.5688 16.4093 91.5548 14.3528 87.2412 13.2324C82.9277 12.1119 78.4203 11.955 74.0392 12.7727C71.0559 7.8466 66.5489 4.02637 61.2006 1.89029C55.8523 -0.245802 49.9537 -0.581473 44.3976 0.934053C38.8415 2.44958 33.9303 5.73381 30.4073 10.2897C26.8843 14.8456 24.9414 20.4251 24.8725 26.1838H24.4441C17.9611 26.1838 11.7436 28.7591 7.15946 33.3433C2.5753 37.9274 0 44.1449 0 50.6278C0 57.1108 2.5753 63.3283 7.15946 67.9125C11.7436 72.4966 17.9611 75.0719 24.4441 75.0719H114.165C117.918 74.9655 121.479 73.391 124.083 70.6869C126.687 67.9828 128.126 64.365 128.09 60.6112Z" fill="#E8C9FE"/>
<path d="M43.6795 101.724H80.0993V61.7481H89.0971L61.8894 34.3477L34.7031 61.7481H43.6795V101.724Z" fill="#834CCD"/>
</svg>
