<svg width="54" height="54" viewBox="0 0 54 54" fill="none" xmlns="http://www.w3.org/2000/svg">
<rect width="54" height="54" rx="4" fill="#F53838"/>
<path d="M7.52875 7.02208C7.60832 7.02182 7.68788 7.02156 7.76986 7.02129C8.03743 7.02052 8.305 7.02039 8.57257 7.02026C8.76403 7.01986 8.95548 7.01941 9.14694 7.01894C9.66777 7.01779 10.1886 7.01722 10.7094 7.01683C11.0347 7.01658 11.36 7.01621 11.6852 7.01582C12.7025 7.01462 13.7198 7.01377 14.7371 7.01343C15.9121 7.01304 17.0871 7.0115 18.2621 7.00896C19.1699 7.00706 20.0777 7.00617 20.9855 7.00606C21.5279 7.00596 22.0702 7.00544 22.6126 7.00388C23.1228 7.00243 23.633 7.00224 24.1432 7.00301C24.3305 7.00308 24.5177 7.0027 24.705 7.00183C24.9607 7.00072 25.2163 7.00123 25.4719 7.00214C25.546 7.00144 25.6201 7.00073 25.6965 7C26.1524 7.00382 26.4681 7.07378 26.8544 7.2978C27.0106 7.58432 26.9643 7.90055 26.9642 8.21545C26.9646 8.29315 26.9649 8.37085 26.9653 8.45091C26.9663 8.71284 26.9667 8.97476 26.9671 9.23669C26.9677 9.42385 26.9683 9.61101 26.969 9.79817C26.9707 10.3077 26.9717 10.8173 26.9725 11.3268C26.9729 11.6449 26.9735 11.9629 26.9741 12.281C26.9759 13.2753 26.9773 14.2696 26.9781 15.2639C26.979 16.4132 26.9816 17.5626 26.9854 18.7119C26.9883 19.5993 26.9897 20.4866 26.9901 21.374C26.9903 21.9045 26.9911 22.435 26.9935 22.9654C26.9958 23.4643 26.9962 23.9631 26.9952 24.4619C26.9951 24.6452 26.9958 24.8286 26.9971 25.0119C26.9987 25.2617 26.9981 25.5114 26.9968 25.7613C26.9979 25.8342 26.9989 25.9072 27 25.9824C26.9961 26.3021 26.9834 26.4859 26.7678 26.7435C26.0694 27.208 24.7466 26.9222 23.9307 26.8079C22.6895 26.6161 21.4461 26.3643 20.251 25.9988C20.3626 25.4783 20.5146 24.999 20.7295 24.5062C21.4484 24.582 22.14 24.7568 22.8396 24.9224C23.6771 25.1134 24.4489 25.1962 25.3232 25.2964C25.3232 19.7915 25.3232 14.2865 25.3232 8.61478C19.5437 8.61478 13.7642 8.61478 7.80964 8.61478C7.8728 9.10732 7.93596 9.59987 8.00104 10.1073C8.00104 10.3102 8.00104 10.513 8.00104 10.7219C6.89839 10.9235 6.89839 10.9235 6.3741 10.8975C5.93948 10.1001 5.94316 8.42893 6.08699 7.5612C6.47567 7.00888 6.8604 7.0214 7.52875 7.02208Z" fill="white"/>
<path d="M26.4701 7.04529C27.4771 7.03499 28.4842 7.02469 29.5218 7.01407C29.8327 7.00953 30.1436 7.00498 30.464 7.0003C35.5456 6.97549 39.747 8.51294 43.488 11.9776C46.722 15.4385 48.0892 19.8761 47.9955 24.5395C47.7608 28.799 45.4183 32.6219 42.4137 35.5153C40.8418 36.8255 39.1022 37.8104 37.1822 38.5121C37.0019 38.578 36.8216 38.644 36.6358 38.7119C34.4855 39.4044 32.3943 39.3458 30.1601 39.3081C28.8602 39.2927 27.5603 39.2772 26.2209 39.2613C26.2209 42.8051 26.2209 46.3489 26.2209 50C23.508 50 20.7951 50 18 50C18 43.7366 18 37.4732 18 31.02C25.5981 30.942 25.5981 30.942 27.9867 30.9231C28.6151 30.9151 29.2436 30.9067 29.8721 30.8981C30.1954 30.8965 30.5187 30.895 30.8518 30.8933C33.4153 30.8526 35.3643 30.4572 37.3223 28.666C38.7266 27.1914 39.4521 25.3099 39.5488 23.2782C39.4302 20.861 38.4441 18.9106 36.6839 17.2845C35.1957 16.1275 33.8379 15.7324 31.9682 15.6827C31.6786 15.6738 31.389 15.6649 31.0906 15.6557C30.727 15.6472 30.3634 15.6387 29.9889 15.63C28.8277 15.5991 27.6664 15.5682 26.4701 15.5363C26.4701 18.256 26.4701 20.9756 26.4701 23.7777C23.6749 23.7777 20.8798 23.7777 18 23.7777C18 20.9756 18 18.1736 18 15.2866C20.7951 15.2866 23.5902 15.2866 26.4701 15.2866C26.4701 12.567 26.4701 9.84734 26.4701 7.04529Z" fill="white"/>
<rect x="15" y="14" width="10.32" height="10" fill="#F53838"/>
<path d="M12.9378 27.1235C13.7598 24.3403 12.5112 22.8721 10.8301 21.6801C9.57834 23.9304 10.7621 26.3864 12.9378 27.1235Z" fill="white"/>
<path d="M16.6567 14.6941C18.5205 12.4548 17.9377 10.6218 16.8722 8.85687C14.8548 10.4259 14.9623 13.1537 16.6567 14.6941Z" fill="white"/>
<path d="M15.4669 21.9548C16.1206 19.1272 17.9299 18.4633 19.9799 18.2526C19.9626 20.8276 17.7274 22.3693 15.4669 21.9548Z" fill="white"/>
<path d="M14.327 26.2891C14.9807 23.4616 16.79 22.7977 18.8401 22.587C18.8227 25.1619 16.5875 26.7037 14.327 26.2891Z" fill="white"/>
<path d="M16.6068 17.6203C17.2605 14.7928 19.0698 14.1288 21.1198 13.9181C21.1025 16.4931 18.8636 18.0489 16.6068 17.6203Z" fill="white"/>
<path d="M14.074 22.8032C14.896 20.02 13.6474 18.5518 11.9663 17.3598C10.7183 19.5961 11.902 22.052 14.074 22.8032Z" fill="white"/>
<path d="M15.2139 18.4689C16.0359 15.6856 14.7873 14.2174 13.1062 13.0254C11.8545 15.2757 13.0419 17.7177 15.2139 18.4689Z" fill="white"/>
</svg>
