<svg width="521" height="433" viewBox="0 0 521 433" fill="none" xmlns="http://www.w3.org/2000/svg">
<path d="M1.1202 9.98436C0.720195 10.651 1.38686 11.7177 2.58686 12.3844C3.78686 13.051 4.7202 14.9177 4.7202 16.5177C4.7202 18.1177 5.65353 20.651 6.7202 21.9844C7.78686 23.451 8.7202 26.1177 8.7202 27.851C8.7202 29.7177 9.5202 31.851 10.4535 32.651C11.5202 33.451 13.3869 37.7177 14.7202 42.1177C16.0535 46.5177 17.9202 50.9177 18.9869 51.851C19.9202 52.7844 20.7202 54.9177 20.7202 56.5177C20.7202 58.1177 21.6535 60.651 22.7202 61.9844C23.7869 63.451 24.7202 65.7177 24.7202 67.051C24.7202 68.3844 25.2535 70.5177 26.0535 71.851C28.1869 75.851 32.7202 86.651 32.7202 87.9844C32.7202 88.651 33.5202 90.9177 34.5869 93.051C35.6535 95.051 37.5202 99.1844 38.7202 102.118C39.9202 105.051 41.3869 108.518 42.0535 109.718C42.8535 111.051 43.3869 113.051 43.3869 114.251C43.3869 115.451 44.3202 117.984 45.2535 119.851C46.3202 121.851 48.1869 125.851 49.3869 128.784C50.5869 131.718 52.4535 135.851 53.5202 137.851C54.5869 139.984 55.3869 142.651 55.3869 143.984C55.3869 145.184 56.3202 147.451 57.3869 149.051C58.4535 150.518 60.3202 154.651 61.5202 158.251C63.7869 165.184 68.0535 175.318 70.0535 179.051C70.8535 180.384 71.3869 182.118 71.3869 183.051C71.3869 183.984 73.2535 188.384 75.3869 192.784C77.5202 197.184 79.3869 201.851 79.3869 203.184C79.3869 204.384 80.8535 207.851 82.7202 210.784L86.0535 215.984L92.3202 214.118C95.9202 213.184 100.987 211.984 103.92 211.451C106.72 211.051 110.054 210.118 111.254 209.451C112.454 208.784 116.72 207.718 120.72 206.918C124.72 206.251 131.654 204.651 136.054 203.451C140.454 202.251 147.12 200.784 150.72 200.251C157.654 199.184 165.92 197.184 177.52 193.984C181.254 192.918 185.52 192.118 186.987 192.118C188.587 192.118 191.12 191.051 192.854 189.584L195.92 187.184L191.787 175.984C189.654 169.851 186.72 161.184 185.387 156.784C184.054 152.384 181.254 143.718 179.254 137.451C177.12 131.184 175.387 124.918 175.387 123.584C175.387 122.251 174.587 119.318 173.52 117.051C171.12 111.451 167.787 100.784 166.72 94.3844C166.187 91.7177 165.254 89.051 164.587 88.651C163.92 88.251 163.387 86.7844 163.387 85.451C163.387 83.9844 162.587 80.9177 161.52 78.5177C160.454 76.1177 158.587 71.451 157.387 68.1177C148.32 43.9844 136.987 29.1844 122.587 22.251C119.787 20.9177 116.187 19.051 114.72 18.3844C109.254 15.5844 82.0535 10.651 68.0535 9.98436C44.1869 8.78436 1.78686 8.78436 1.1202 9.98436Z" fill="url(#paint0_linear_135_5317)"/>
<path d="M384.053 9.58411C376.853 10.6508 363.787 13.8508 357.387 15.8508C344.987 19.9841 331.92 30.1174 324.587 41.3174C319.653 48.9174 307.387 73.5841 307.387 75.8508C307.387 76.5174 306.453 78.9174 305.387 80.9174C304.32 83.0508 303.387 86.1174 303.387 87.7174C303.387 89.3174 302.853 90.9174 302.187 91.3174C301.52 91.7174 299.653 96.3841 298.053 101.717C296.453 107.051 294.32 113.584 293.253 116.117C292.32 118.651 290.453 124.117 289.253 128.117C287.92 132.117 286.187 137.317 285.12 139.717C284.187 141.984 283.387 144.917 283.387 146.384C283.387 147.717 282.453 149.984 281.387 151.317C280.32 152.784 279.387 155.984 279.387 158.517C279.387 162.651 279.653 163.051 282.453 162.117C284.053 161.717 289.253 160.384 294.053 159.451C305.653 157.051 312.587 155.317 317.387 153.717C321.12 152.384 328.187 150.651 339.387 148.117C344.587 146.917 354.987 143.451 361.787 140.651C364.187 139.584 368.32 138.784 371.12 138.784C373.787 138.651 377.52 137.851 379.387 136.784C381.253 135.717 384.32 134.917 386.187 134.784C388.187 134.784 391.52 133.851 393.52 132.784C395.653 131.717 399.253 130.784 401.52 130.784C403.653 130.784 406.72 129.851 408.187 128.784C409.52 127.717 413.52 126.784 416.987 126.784C420.453 126.784 424.053 125.984 424.987 125.051C427.387 122.784 437.387 119.984 445.653 119.184C449.52 118.784 453.253 117.717 454.187 116.651C455.12 115.451 458.187 114.784 462.32 114.784C466.853 114.784 468.987 114.251 469.52 112.784C470.053 111.717 471.92 110.784 473.92 110.651C475.787 110.651 478.587 110.117 480.053 109.451C482.453 108.517 492.052 106.384 488.719 105.451C486.452 104.917 486.619 103.085 484.219 104.285C480.619 106.285 482.252 103.184 475.719 103.051C472.252 102.917 482.519 105.584 481.719 103.051C480.919 100.917 460.72 103.984 477.92 105.451C492.72 106.784 487.219 102.517 487.219 100.251C487.219 98.1174 491.653 101.451 465.387 101.451C445.653 101.317 437.387 100.784 433.387 99.4508C426.453 96.9174 426.053 96.9174 426.053 100.251C426.053 102.651 425.387 102.917 422.453 102.384C420.453 101.984 417.653 102.251 416.32 103.051C412.187 105.184 410.72 102.384 413.52 97.5841C415.787 93.7174 415.787 93.3174 413.787 91.3174C411.387 88.7841 406.187 77.9841 407.387 80.9174C407.92 82.3841 409.253 94.7841 405.787 94.7841C401.92 94.7841 400.987 94.1174 398.053 88.7841C396.187 85.4508 409.12 50.3841 408.187 50.3841C406.187 50.3841 416.32 30.2852 389.653 89.0508C390.053 89.9841 389.387 91.1841 388.187 91.5841C382.987 93.5841 378.187 79.9841 382.72 76.1174C383.787 75.1841 384.72 73.7174 384.72 72.7841C384.72 71.8508 385.653 70.3841 386.72 69.4508C387.787 68.5174 388.72 66.3841 388.72 64.5174C388.72 62.7841 390.987 56.3841 393.92 50.3841C396.72 44.3841 399.52 38.1174 400.053 36.3841C400.453 34.7841 402.32 30.7841 404.187 27.7174C405.92 24.6508 407.387 20.9174 407.387 19.5841C407.387 18.1174 408.587 15.5841 410.187 13.9841C411.787 12.3841 412.587 10.3841 412.053 9.58411C411.12 7.98411 394.32 7.98411 384.053 9.58411Z" fill="url(#paint1_linear_135_5317)"/>
<path d="M397.386 153.051C395.919 153.451 394.186 154.251 393.386 154.784C392.719 155.317 387.519 157.184 382.053 158.784C376.586 160.517 370.853 162.651 369.386 163.584C367.919 164.651 365.519 165.451 363.919 165.451C362.319 165.451 359.253 166.384 357.253 167.451C355.119 168.517 352.319 169.451 351.119 169.451C349.919 169.451 348.453 169.984 348.053 170.784C347.653 171.451 345.919 172.117 344.319 172.117C342.719 172.117 339.653 173.051 337.519 174.117C335.519 175.184 332.319 176.117 330.453 176.117C328.586 176.117 325.253 176.917 322.986 177.984C320.586 179.051 312.319 181.984 304.453 184.651C296.453 187.317 288.986 189.984 287.786 190.651C286.453 191.317 280.986 193.317 275.519 195.051C264.186 198.517 263.119 199.851 258.186 216.117C256.453 221.584 254.319 228.251 253.386 230.784C252.319 233.317 250.453 238.784 249.253 242.784C248.053 246.784 246.453 251.184 245.786 252.651C244.986 253.984 242.986 259.717 241.253 265.317C236.186 281.717 233.786 288.117 232.719 288.117C230.719 288.117 227.786 283.051 225.519 275.451C224.186 271.051 222.319 265.451 221.253 263.051C220.186 260.651 219.386 258.117 219.386 257.317C219.386 256.517 218.586 253.984 217.519 251.717C216.453 249.317 214.586 244.117 213.386 240.117C212.186 236.117 210.319 230.917 209.386 228.784C208.453 226.517 207.253 222.917 206.586 220.784C205.119 215.984 201.119 215.051 194.186 217.851C187.119 220.651 180.586 222.917 176.053 223.984C173.786 224.517 170.853 225.584 169.386 226.384C164.453 228.917 156.586 232.117 155.253 232.117C154.453 232.117 151.919 232.917 149.653 233.984C147.253 235.051 138.853 238.117 130.719 240.784C122.719 243.317 115.119 245.984 114.053 246.651C112.853 247.317 109.919 248.251 107.386 248.784C104.853 249.317 101.919 250.251 100.719 250.784C94.5862 253.851 88.3195 256.117 86.3195 256.117C84.9862 256.117 82.8528 256.917 81.3862 257.984C79.9195 258.917 76.9862 260.117 74.7195 260.384C72.5862 260.784 67.3861 262.517 63.3861 264.117C59.3861 265.717 54.3195 267.584 52.0528 268.117C46.7195 269.584 36.7195 273.184 33.3861 274.784C28.5861 277.051 22.8528 279.051 18.0528 280.117C11.6528 281.584 1.65281 285.317 0.186146 286.917C-1.94719 288.784 14.7195 288.384 26.4528 286.117C32.1861 285.051 40.9861 284.117 45.7861 284.117C50.7195 284.117 59.3861 283.184 65.1195 282.117C70.8528 281.051 78.9862 280.117 83.1195 280.117C87.3862 280.117 94.3195 279.451 98.7195 278.784C103.119 278.117 107.653 277.717 108.719 278.117C110.719 278.784 115.386 285.851 115.386 288.251C115.386 288.917 117.253 293.451 119.519 298.384C126.186 313.317 127.386 316.117 127.386 317.584C127.386 318.384 128.853 322.117 130.586 325.851C132.319 329.717 134.986 336.117 136.586 340.117C138.319 344.117 140.453 349.451 141.386 351.851C142.453 354.251 144.186 358.117 145.119 360.517C146.053 362.784 147.919 366.917 148.986 369.451C150.186 371.984 152.986 378.917 155.386 384.784C157.653 390.651 160.453 397.184 161.519 399.184C162.586 401.317 163.386 403.584 163.386 404.384C163.386 405.051 165.119 409.584 167.386 414.384C169.653 419.051 171.386 423.451 171.386 423.984C171.386 424.651 172.586 426.651 174.186 428.651L176.853 432.117H230.453C259.919 432.117 285.253 431.717 286.719 431.317C289.653 430.651 292.586 425.051 299.519 407.051C301.786 401.451 304.453 394.917 305.386 392.784C306.319 390.517 308.186 386.384 309.386 383.451C310.586 380.517 312.319 376.251 313.386 374.117C317.919 363.717 319.386 359.984 319.386 358.651C319.386 357.851 321.253 353.717 323.386 349.184C325.653 344.784 327.386 340.384 327.386 339.317C327.386 338.251 327.919 336.384 328.586 335.051C330.986 330.784 335.653 319.851 340.719 306.784C344.053 298.384 344.853 296.517 348.586 287.851C350.186 284.384 351.386 281.051 351.386 280.517C351.386 279.984 352.853 276.384 354.719 272.784C356.453 269.051 358.053 265.317 358.053 264.384C358.053 263.584 359.253 260.517 360.719 257.851C362.186 255.051 363.386 252.117 363.386 251.184C363.386 250.117 363.919 248.384 364.719 247.051C365.386 245.851 367.253 241.717 368.719 238.117C370.186 234.384 372.053 230.384 372.719 229.184C373.519 227.851 374.053 226.117 374.053 225.317C374.053 224.384 375.253 221.317 376.586 218.251C378.853 213.451 380.719 208.917 384.719 199.451C385.253 197.984 387.253 193.184 389.119 188.784C390.986 184.384 392.986 179.184 393.386 177.184C393.919 175.184 395.119 172.917 396.186 171.984C397.253 171.184 398.053 168.517 398.053 166.117C398.053 163.717 398.986 161.051 400.053 160.117C402.053 158.384 402.853 151.984 401.119 152.251C400.453 152.384 398.853 152.784 397.386 153.051Z" fill="url(#paint2_linear_135_5317)"/>
<path d="M330.219 27.9832C340.719 17.284 369.219 12.284 369.219 12.284C369.219 12.284 386.219 9.28395 431.719 1.28395C477.219 -6.71605 454.719 25.284 454.719 25.284L409.719 128.785L277.219 162.285C277.219 162.285 319.719 38.6824 330.219 27.9832Z" fill="url(#paint3_linear_135_5317)"/>
<path d="M431.719 98.7852L484.719 102.285L488.219 100.285L520.719 97.2852L510.219 102.285L473.219 114.285L275.719 165.785L279.219 157.285L342.719 119.785L428.219 106.285L431.719 98.7852Z" fill="url(#paint4_linear_135_5317)"/>
<path d="M473.018 421.397C473.6 421.979 473.891 422.755 473.891 423.725C473.891 425.665 473.212 427.411 471.854 428.963C470.69 430.321 469.235 431 467.489 431H404.924C399.686 431 395.709 428.769 392.993 424.307L364.766 380.948L337.121 424.307C334.211 428.769 330.234 431 325.19 431H262.334C260.588 431 259.036 430.418 257.678 429.254C256.514 427.896 255.932 426.344 255.932 424.598V423.725C255.932 422.755 256.223 421.979 256.805 421.397L321.116 323.039L263.789 236.903C263.207 236.127 262.916 235.06 262.916 233.702C262.916 231.956 263.498 230.501 264.662 229.337C266.02 227.979 267.572 227.3 269.318 227.3H332.174C337.218 227.3 341.292 229.725 344.396 234.575L367.094 271.823L391.538 233.993C392.896 232.247 394.351 230.695 395.903 229.337C397.649 227.979 400.171 227.3 403.469 227.3H466.034C467.78 227.3 469.235 227.979 470.399 229.337C471.757 230.501 472.436 231.956 472.436 233.702V234.575C472.436 235.545 472.145 236.321 471.563 236.903L410.744 326.822L473.018 421.397Z" fill="url(#paint5_linear_135_5317)"/>
<defs>
<linearGradient id="paint0_linear_135_5317" x1="189.475" y1="-8.09652" x2="-53.2207" y2="148.136" gradientUnits="userSpaceOnUse">
<stop stop-color="#7508CC"/>
<stop offset="1" stop-color="#4D22A9"/>
</linearGradient>
<linearGradient id="paint1_linear_135_5317" x1="482.469" y1="-4.41652" x2="284.33" y2="180.052" gradientUnits="userSpaceOnUse">
<stop stop-color="#7508CC"/>
<stop offset="1" stop-color="#4D22A9"/>
</linearGradient>
<linearGradient id="paint2_linear_135_5317" x1="388.776" y1="129.002" x2="28.1776" y2="482.986" gradientUnits="userSpaceOnUse">
<stop stop-color="#7508CC"/>
<stop offset="1" stop-color="#4D22A9"/>
</linearGradient>
<linearGradient id="paint3_linear_135_5317" x1="454.228" y1="175.761" x2="251.991" y2="19.8767" gradientUnits="userSpaceOnUse">
<stop stop-color="#7508CC"/>
<stop offset="1" stop-color="#4D22A9"/>
</linearGradient>
<linearGradient id="paint4_linear_135_5317" x1="512.617" y1="171.473" x2="450.74" y2="20.2469" gradientUnits="userSpaceOnUse">
<stop stop-color="#7508CC"/>
<stop offset="1" stop-color="#4D22A9"/>
</linearGradient>
<linearGradient id="paint5_linear_135_5317" x1="264.5" y1="139.5" x2="404.5" y2="383" gradientUnits="userSpaceOnUse">
<stop stop-color="white"/>
<stop offset="1" stop-color="#F1BFFD"/>
</linearGradient>
</defs>
</svg>
