<svg width="41" height="42" viewBox="0 0 41 42" fill="none" xmlns="http://www.w3.org/2000/svg">
<path d="M36.0821 20.01C36.441 20.2787 36.7765 20.56 37.1103 20.8594C37.2296 20.9642 37.3489 21.0689 37.4719 21.1769C39.6901 23.2493 40.8175 26.0024 40.9727 28.9919C41.0759 32.0429 40.1126 34.8886 38.0679 37.1794C37.9634 37.299 37.8589 37.4186 37.7512 37.5419C35.8769 39.5579 33.0337 40.9461 30.2658 41.0731C27.07 41.1287 24.2211 40.3219 21.7878 38.1394C21.6088 37.9822 21.6088 37.9822 21.4262 37.8219C19.4151 35.943 18.0303 33.0929 17.9035 30.3181C17.8481 27.1145 18.6529 24.2587 20.8301 21.8194C20.9346 21.6998 21.0392 21.5801 21.1468 21.4569C25.0931 17.2122 31.4021 16.9086 36.0821 20.01Z" fill="#F53838"/>
<path d="M4.50196 5.17193C4.63069 5.17301 4.75943 5.17409 4.89206 5.17521C4.98985 5.1766 5.08765 5.17799 5.18841 5.17943C5.19252 5.36691 5.19664 5.55439 5.20088 5.74755C5.25913 7.58096 5.35578 9.30996 6.68287 10.7107C7.66979 11.5749 8.80448 11.9382 10.1013 11.9434C10.2049 11.9442 10.3086 11.945 10.4155 11.9459C10.7557 11.9481 11.096 11.9479 11.4362 11.9476C11.6748 11.9482 11.9133 11.9489 12.1518 11.9496C12.651 11.9508 13.1502 11.9508 13.6494 11.9499C14.2859 11.949 14.9223 11.9517 15.5588 11.9554C16.0513 11.9578 16.5438 11.9579 17.0364 11.9574C17.2709 11.9575 17.5054 11.9583 17.7398 11.96C19.5521 11.9709 21.1608 11.8689 22.521 10.5288C23.5778 9.36806 23.7762 8.32173 23.8128 6.78943C23.8182 6.63423 23.8237 6.47902 23.8293 6.31912C23.8424 5.93924 23.8535 5.55942 23.8627 5.17943C25.2698 5.14835 26.4506 5.41899 27.5617 6.31818C28.6199 7.41295 28.9954 8.55289 28.9858 10.0413C28.9854 10.2374 28.9854 10.2374 28.9851 10.4374C28.9842 10.8548 28.9822 11.2721 28.9801 11.6894C28.9793 11.9724 28.9786 12.2555 28.978 12.5385C28.9762 13.2321 28.9734 13.9258 28.9702 14.6194C28.8119 14.639 28.6537 14.6587 28.4906 14.6789C27.4188 14.8148 26.3629 14.9523 25.3191 15.2394C25.1352 15.2885 24.9512 15.3376 24.7617 15.3882C24.3117 15.5366 23.9495 15.695 23.532 15.9066C22.7013 16.2785 21.971 16.3076 21.0712 16.2966C20.83 16.2976 20.83 16.2976 20.5839 16.2985C20.2372 16.2995 19.8905 16.299 19.5438 16.2972C18.995 16.2944 18.4463 16.2956 17.8975 16.2978C16.7336 16.3019 15.5697 16.301 14.4058 16.2994C13.0545 16.2976 11.7032 16.2978 10.3519 16.3033C9.81138 16.3044 9.27097 16.3017 8.73046 16.2989C8.39952 16.2999 8.06858 16.3009 7.73763 16.3022C7.58754 16.3004 7.43745 16.2986 7.28281 16.2968C6.61135 16.3031 6.23989 16.3234 5.65255 16.6743C5.30701 17.0044 5.30701 17.0044 5.26821 17.4994C5.359 18.0455 5.42624 18.2412 5.82684 18.6194C6.26602 18.6852 6.64286 18.7097 7.08263 18.7068C7.21036 18.7084 7.33808 18.7101 7.46968 18.7118C7.89201 18.7165 8.31423 18.7167 8.73659 18.7169C9.02934 18.7193 9.3221 18.722 9.61484 18.7249C10.3855 18.7319 11.1561 18.7351 11.9268 18.7375C12.7132 18.7407 13.4995 18.7474 14.2858 18.7538C15.8288 18.7659 17.3718 18.7739 18.9148 18.7794C18.6808 19.2681 18.4335 19.6294 18.0669 20.0294C17.6853 20.4463 17.4531 20.7533 17.2095 21.2747C16.8958 21.7124 16.7333 21.8083 16.1994 21.9199C15.5589 21.9543 14.9265 21.9534 14.2855 21.9413C14.0484 21.9412 13.8113 21.9416 13.5742 21.9427C12.9512 21.9442 12.3284 21.9396 11.7054 21.9332C10.7079 21.9234 9.71035 21.9202 8.71274 21.922C8.36465 21.9213 8.0168 21.9165 7.66875 21.9113C7.45515 21.9106 7.24153 21.9102 7.02792 21.9099C6.84177 21.9079 6.65563 21.9059 6.46383 21.9039C5.88605 21.9953 5.6992 22.1596 5.34801 22.6194C5.28405 23.0981 5.39139 23.4178 5.50762 23.8994C6.05388 24.2645 6.26213 24.2622 6.90526 24.2704C7.188 24.2752 7.188 24.2752 7.47646 24.2801C7.67997 24.2819 7.88349 24.2838 8.09317 24.2857C8.30151 24.2888 8.50985 24.2919 8.7245 24.2951C9.27788 24.3033 9.83126 24.3096 10.3847 24.3156C10.9496 24.322 11.5145 24.3302 12.0793 24.3382C13.1873 24.3537 14.2954 24.367 15.4034 24.3794C15.1927 25.3826 14.982 26.3858 14.765 27.4194C14.3626 27.4217 14.3626 27.4217 13.9521 27.424C13.0659 27.4296 12.1797 27.4383 11.2936 27.4489C10.7563 27.4552 10.2191 27.4603 9.68174 27.4628C9.06403 27.4662 8.44648 27.4737 7.82881 27.4819C7.53926 27.4822 7.53926 27.4822 7.24385 27.4825C7.06494 27.4857 6.88603 27.4888 6.70169 27.4921C6.54397 27.4935 6.38625 27.4949 6.22375 27.4964C5.80772 27.5461 5.80772 27.5461 5.53213 27.8693C5.24984 28.4062 5.35186 28.7669 5.50762 29.3394C5.98523 29.8076 6.33809 29.8808 6.99508 29.8886C7.24904 29.8934 7.24904 29.8934 7.50814 29.8982C7.68989 29.8992 7.87163 29.9003 8.05888 29.9013C8.24574 29.9042 8.43259 29.907 8.62512 29.91C9.22194 29.9187 9.81874 29.9241 10.4156 29.9294C10.8202 29.9347 11.2249 29.9403 11.6295 29.946C12.6214 29.9596 13.6134 29.9705 14.6053 29.9794C14.6143 30.0963 14.6233 30.2131 14.6325 30.3335C14.7268 31.4898 14.7268 31.4898 14.9844 32.6182C15.0264 32.7605 15.0684 32.9028 15.1116 33.0494C15.177 33.2623 15.177 33.2623 15.2438 33.4794C15.3305 33.7689 15.417 34.0585 15.5031 34.3482C15.5414 34.4736 15.5797 34.5989 15.6191 34.7281C15.7272 35.116 15.8053 35.5043 15.8822 35.8994C14.3254 35.9143 12.7687 35.9257 11.2119 35.9326C10.4889 35.9359 9.76589 35.9404 9.04291 35.9477C8.34435 35.9547 7.64584 35.9585 6.94725 35.9602C6.68159 35.9613 6.41593 35.9636 6.15028 35.9671C4.19684 35.9916 2.79195 35.8135 1.31352 34.4376C0.484859 33.5391 0.0420684 32.4634 0.0382301 31.2461C0.0368686 31.0505 0.0355071 30.8549 0.0341044 30.6534C0.034216 30.438 0.0343633 30.2225 0.0345428 30.0071C0.0335871 29.7792 0.0325008 29.5512 0.0312939 29.3233C0.0284771 28.7051 0.0277258 28.0869 0.027522 27.4687C0.0272949 27.082 0.026613 26.6953 0.0257673 26.3086C0.0228148 24.9583 0.0215103 23.608 0.0217616 22.2577C0.0219532 21.0012 0.018588 19.7447 0.0135438 18.4883C0.00936181 17.4078 0.00765758 16.3274 0.00786131 15.247C0.00794249 14.6024 0.00704446 13.9579 0.0036547 13.3134C0.000550729 12.7066 0.000548212 12.1 0.00286196 11.4932C0.00319417 11.2714 0.00245133 11.0496 0.000512366 10.8278C-0.014466 8.9947 0.294235 7.76563 1.55044 6.41505C2.41788 5.57958 3.30203 5.15882 4.50196 5.17193Z" fill="#F53838"/>
<path d="M16.6292 0.486255C17.7431 1.12723 18.6631 2.02228 19.0745 3.25938C19.3026 3.26557 19.3026 3.26557 19.5352 3.27188C19.7354 3.28095 19.9356 3.29003 20.1419 3.29938C20.34 3.3068 20.5382 3.31423 20.7423 3.32188C21.381 3.43176 21.6507 3.60783 22.1071 4.05938C22.4008 4.64818 22.3099 5.3412 22.3166 5.98938C22.3235 6.2095 22.3235 6.2095 22.3306 6.43407C22.3408 7.54843 22.1642 8.5747 21.4028 9.43375C20.5962 10.1484 19.8634 10.3386 18.8084 10.3509C18.7048 10.3525 18.6011 10.3541 18.4943 10.3558C18.1532 10.3604 17.8121 10.3626 17.4709 10.3644C17.2951 10.3657 17.2951 10.3657 17.1157 10.3671C16.4952 10.3719 15.8747 10.3749 15.2542 10.3763C14.6164 10.378 13.9788 10.3857 13.3411 10.3948C12.8478 10.4008 12.3547 10.4024 11.8614 10.4029C11.6264 10.4039 11.3915 10.4064 11.1566 10.4107C9.89223 10.4318 8.88892 10.3997 7.84886 9.60215C6.97778 8.74234 6.86023 7.8112 6.84913 6.62094C6.85088 6.45213 6.85263 6.28331 6.85443 6.10938C6.85062 5.93871 6.84682 5.76804 6.8429 5.59219C6.84433 4.82739 6.85561 4.35904 7.27091 3.70438C7.85791 3.34945 8.32563 3.328 8.9892 3.36938C9.09979 3.37299 9.21038 3.3766 9.32432 3.38032C9.59516 3.38968 9.86582 3.40403 10.1364 3.41938C10.1545 3.30037 10.1726 3.18137 10.1913 3.05875C10.4668 1.90305 11.3725 1.18921 12.3316 0.57563C13.7194 -0.184041 15.1927 -0.168945 16.6292 0.486255Z" fill="#F53838"/>
<path d="M34.2061 24.4394C34.7894 24.6058 35.0278 24.8321 35.3546 25.3394C35.5191 25.8626 35.5074 26.2528 35.3546 26.7794C34.9459 27.4316 34.4418 27.9779 33.9181 28.5394C33.7726 28.6982 33.6274 28.8571 33.4823 29.0162C33.2603 29.2592 33.038 29.5018 32.8143 29.7431C32.3428 30.2531 31.8975 30.7766 31.4641 31.3194C31.2192 31.6203 30.973 31.9202 30.7259 32.2194C30.6465 32.3158 30.567 32.4122 30.4851 32.5116C30.2236 32.8246 29.9568 33.1322 29.6885 33.4394C29.6071 33.538 29.5258 33.6367 29.442 33.7383C28.9792 34.2572 28.6223 34.5262 27.9278 34.6431C27.2045 34.6679 26.7797 34.4683 26.2569 33.9794C26.0762 33.8108 26.0762 33.8108 25.8919 33.6388C25.4649 33.2286 25.0472 32.8104 24.6308 32.3894C24.4869 32.2463 24.343 32.1033 24.1947 31.9559C24.0566 31.817 23.9184 31.6781 23.7761 31.535C23.6509 31.4092 23.5258 31.2834 23.3969 31.1538C22.932 30.6298 22.6136 30.2019 22.526 29.4994C22.6169 28.77 22.8588 28.3811 23.4338 27.9294C23.9716 27.6911 24.2368 27.6361 24.8204 27.7394C25.8751 28.3307 26.7052 29.2742 27.5337 30.1394C28.1387 29.8979 28.4254 29.5502 28.8206 29.0394C29.4297 28.2718 30.0662 27.5445 30.7319 26.826C31.2481 26.2686 31.7484 25.7008 32.2366 25.1187C32.8902 24.4268 33.2774 24.2919 34.2061 24.4394Z" fill="#FCEDED"/>
</svg>
