<svg width="39" height="37" viewBox="0 0 39 37" fill="none" xmlns="http://www.w3.org/2000/svg">
<path d="M0.0197263 10.5266C12.8098 10.5266 25.5999 10.5266 38.7775 10.5266C38.7841 14.2328 38.7908 17.939 38.7976 21.7576C38.8005 22.9278 38.8034 24.098 38.8064 25.3036C38.8078 26.7327 38.8078 26.7327 38.8081 27.4017C38.8084 27.869 38.8096 28.3362 38.8114 28.8034C38.8134 29.3427 38.8143 29.8819 38.8139 30.4212C38.8137 30.6968 38.814 30.9725 38.8157 31.2481C38.8173 31.544 38.8169 31.8399 38.8161 32.1358C38.817 32.2208 38.8179 32.3059 38.8189 32.3935C38.8114 33.3411 38.5337 34.0896 37.8967 34.7903C37.8323 34.8613 37.7679 34.9323 37.7015 35.0055C36.8918 35.7362 35.9494 36.251 34.835 36.2523C34.7792 36.2526 34.7234 36.2529 34.6659 36.2531C34.4793 36.2539 34.2929 36.2535 34.1063 36.2531C33.9711 36.2534 33.8358 36.2538 33.7005 36.2542C33.3291 36.2552 32.9578 36.2552 32.5864 36.255C32.1857 36.2549 31.785 36.2558 31.3844 36.2566C30.5995 36.2579 29.8146 36.2584 29.0298 36.2584C28.3918 36.2585 27.7537 36.2589 27.1157 36.2594C25.3067 36.2608 23.4976 36.2615 21.6885 36.2614C21.5422 36.2614 21.5422 36.2614 21.393 36.2614C21.2954 36.2614 21.1977 36.2614 21.0971 36.2613C19.5148 36.2613 17.9324 36.2628 16.35 36.2651C14.7251 36.2674 13.1001 36.2685 11.4752 36.2683C10.563 36.2683 9.65079 36.2687 8.73858 36.2705C7.9619 36.2719 7.18523 36.2723 6.40854 36.2712C6.01238 36.2706 5.61624 36.2706 5.22008 36.272C4.8571 36.2733 4.49416 36.2731 4.13119 36.2717C4.00019 36.2714 3.86919 36.2717 3.73819 36.2726C2.69834 36.2792 1.79962 36.1251 0.980664 35.4309C0.20527 34.5967 -0.00544505 33.6688 0.000466768 32.5595C0.000329671 32.4653 0.000192574 32.3712 5.13232e-05 32.2741C-0.000166917 32.0136 0.000332636 31.7532 0.00113651 31.4927C0.00183789 31.2071 0.00160169 30.9216 0.00148598 30.636C0.00140097 30.0822 0.00213913 29.5284 0.00316783 28.9745C0.00432249 28.3337 0.00444833 27.6928 0.00457478 27.052C0.00541511 25.3606 0.00765108 23.6692 0.00971651 21.9778C0.0130197 18.1989 0.016323 14.42 0.0197263 10.5266ZM7.07661 15.4064C6.87279 15.78 6.89236 16.1703 6.89018 16.5866C6.88972 16.6541 6.88927 16.7217 6.8888 16.7912C6.88804 16.934 6.88752 17.0768 6.88721 17.2195C6.88643 17.4368 6.88395 17.6539 6.88142 17.8711C6.8809 18.0102 6.88048 18.1492 6.88017 18.2882C6.87918 18.3527 6.87819 18.4171 6.87717 18.4834C6.87904 18.961 6.96015 19.3423 7.2668 19.7256C7.48712 19.8908 7.69781 19.9064 7.96289 19.9099C8.06394 19.9115 8.06394 19.9115 8.16704 19.913C8.23961 19.9136 8.31218 19.9142 8.38695 19.9148C8.4619 19.9155 8.53685 19.9161 8.61407 19.9168C8.77273 19.9179 8.93138 19.9188 9.09004 19.9194C9.33206 19.9208 9.574 19.9243 9.816 19.9278C9.97027 19.9286 10.1245 19.9293 10.2788 19.9298C10.3869 19.932 10.3869 19.932 10.4972 19.9341C10.9406 19.9326 11.2064 19.882 11.551 19.5754C11.8599 19.2188 11.8286 18.8312 11.8287 18.3821C11.8294 18.3056 11.83 18.2291 11.8306 18.1503C11.8315 17.9888 11.8317 17.8273 11.8313 17.6659C11.8313 17.4194 11.8346 17.1732 11.8381 16.9268C11.8385 16.7696 11.8388 16.6124 11.8388 16.4552C11.8401 16.3819 11.8414 16.3085 11.8427 16.233C11.8391 15.8927 11.8253 15.6464 11.6131 15.3712C11.187 14.9877 10.8193 14.9863 10.2704 14.9869C10.2012 14.9866 10.132 14.9862 10.0607 14.9859C9.9146 14.9854 9.76855 14.9854 9.62249 14.9857C9.40017 14.986 9.17794 14.9841 8.95563 14.9821C8.81331 14.9819 8.67098 14.9818 8.52865 14.9819C8.46274 14.9812 8.39682 14.9804 8.32891 14.9797C7.84906 14.9835 7.42598 15.0454 7.07661 15.4064ZM16.6059 15.4064C16.4619 15.6704 16.4258 15.9165 16.4228 16.2146C16.4221 16.2772 16.4213 16.3397 16.4205 16.4042C16.4202 16.4711 16.4198 16.538 16.4195 16.6069C16.419 16.6764 16.4186 16.7459 16.4181 16.8175C16.4173 16.9644 16.4168 17.1113 16.4165 17.2581C16.4157 17.482 16.4132 17.7059 16.4107 17.9298C16.4102 18.0727 16.4098 18.2157 16.4095 18.3586C16.4085 18.4252 16.4075 18.4918 16.4065 18.5604C16.4082 19.0237 16.4925 19.3537 16.7961 19.7206C17.0167 19.8952 17.231 19.9062 17.5008 19.9087C17.57 19.9094 17.6393 19.9102 17.7106 19.911C17.8225 19.9115 17.8225 19.9115 17.9366 19.912C18.052 19.9127 18.052 19.9127 18.1697 19.9134C18.3324 19.9142 18.4952 19.9147 18.6579 19.915C18.9066 19.9158 19.1553 19.9183 19.404 19.9208C19.5621 19.9213 19.7203 19.9217 19.8785 19.922C19.9527 19.923 20.027 19.924 20.1035 19.925C20.4913 19.9237 20.7743 19.9214 21.0803 19.6555C21.3905 19.2969 21.3554 18.9096 21.3524 18.4594C21.3528 18.3443 21.3528 18.3443 21.3531 18.227C21.3533 18.0652 21.3528 17.9033 21.3518 17.7415C21.3505 17.4943 21.3518 17.2471 21.3534 16.9998C21.3532 16.8424 21.3529 16.6849 21.3524 16.5275C21.3529 16.4537 21.3534 16.38 21.3539 16.304C21.3496 15.914 21.3347 15.6474 21.0803 15.3313C20.6897 14.9895 20.3138 14.9973 19.8153 14.9947C19.7111 14.994 19.7111 14.994 19.6049 14.9933C19.4579 14.9926 19.3109 14.9921 19.1639 14.9917C18.9401 14.991 18.7165 14.9885 18.4927 14.986C18.3497 14.9854 18.2066 14.985 18.0636 14.9847C17.9972 14.9837 17.9307 14.9827 17.8623 14.9817C17.3802 14.9835 16.9572 15.0434 16.6059 15.4064ZM26.258 15.4158C26.0632 15.7617 26.0793 16.0712 26.0827 16.4621C26.0822 16.5795 26.0822 16.5795 26.0817 16.6993C26.0815 16.8645 26.0821 17.0298 26.0834 17.195C26.0851 17.4472 26.0835 17.6993 26.0814 17.9515C26.0816 18.1123 26.082 18.2732 26.0827 18.434C26.082 18.5091 26.0814 18.5842 26.0807 18.6615C26.0871 19.1099 26.1346 19.3871 26.4455 19.7356C26.6783 19.8781 26.8541 19.9163 27.1254 19.919C27.1959 19.92 27.2665 19.9211 27.3392 19.9221C27.4149 19.9223 27.4905 19.9225 27.5685 19.9227C27.6861 19.9235 27.6861 19.9235 27.806 19.9243C27.9717 19.9251 28.1375 19.9255 28.3032 19.9254C28.5561 19.9258 28.8089 19.9287 29.0618 19.9317C29.223 19.9322 29.3842 19.9325 29.5454 19.9327C29.6207 19.9338 29.6961 19.935 29.7737 19.9362C30.2192 19.9331 30.5149 19.9005 30.8498 19.5754C31.0259 19.1601 31.0336 18.7578 31.0312 18.3142C31.0314 18.2488 31.0315 18.1834 31.0317 18.116C31.0318 17.9784 31.0315 17.8409 31.0308 17.7033C31.03 17.494 31.0308 17.2848 31.0319 17.0755C31.0318 16.9412 31.0315 16.8069 31.0312 16.6726C31.0316 16.6107 31.0319 16.5488 31.0322 16.485C31.0289 16.1028 30.9828 15.7747 30.8498 15.4114C30.5511 15.1203 30.3021 15.0021 29.8881 14.9981C29.7919 14.9969 29.7919 14.9969 29.6937 14.9958C29.6246 14.9954 29.5556 14.9951 29.4844 14.9947C29.3773 14.994 29.3773 14.994 29.2681 14.9933C29.1169 14.9926 28.9658 14.9921 28.8147 14.9917C28.5843 14.991 28.3539 14.9885 28.1236 14.986C27.9766 14.9854 27.8296 14.985 27.6827 14.9847C27.6141 14.9837 27.5455 14.9827 27.4748 14.9817C26.9697 14.9836 26.6472 15.0743 26.258 15.4158ZM7.08662 26.297C6.86459 26.6633 6.89237 27.0603 6.89018 27.4772C6.88972 27.5447 6.88927 27.6123 6.8888 27.6819C6.88804 27.8246 6.88752 27.9674 6.88721 28.1102C6.88643 28.3274 6.88395 28.5445 6.88142 28.7617C6.8809 28.9008 6.88048 29.0398 6.88017 29.1789C6.87918 29.2433 6.87819 29.3077 6.87717 29.3741C6.87883 29.7976 6.94916 30.0897 7.14668 30.4661C7.52295 30.8302 7.96388 30.7999 8.46171 30.8026C8.52728 30.8031 8.59285 30.8036 8.66041 30.804C8.79906 30.8048 8.93772 30.8053 9.07637 30.8056C9.28692 30.8064 9.4974 30.8089 9.70793 30.8114C9.84306 30.8119 9.97819 30.8123 10.1133 30.8127C10.1756 30.8136 10.2378 30.8146 10.302 30.8156C10.7214 30.814 11.1087 30.7728 11.4709 30.5461C11.8182 30.1139 11.8387 29.7356 11.8338 29.1945C11.8341 29.12 11.8344 29.0455 11.8347 28.9688C11.8349 28.812 11.8343 28.6553 11.833 28.4985C11.8313 28.2593 11.833 28.0203 11.835 27.7811C11.8348 27.6283 11.8344 27.4755 11.8338 27.3227C11.8344 27.2516 11.835 27.1805 11.8357 27.1073C11.8291 26.669 11.772 26.4035 11.4709 26.0618C11.2399 25.9204 11.0663 25.8813 10.7971 25.8796C10.7279 25.8789 10.6587 25.8781 10.5874 25.8773C10.5132 25.8774 10.439 25.8775 10.3626 25.8775C10.2474 25.877 10.2474 25.877 10.1299 25.8765C9.96761 25.876 9.80532 25.876 9.64304 25.8763C9.39506 25.8766 9.14715 25.8747 8.89917 25.8727C8.74136 25.8725 8.58355 25.8724 8.42574 25.8725C8.35174 25.8718 8.27774 25.871 8.2015 25.8703C7.72254 25.8737 7.4209 25.9269 7.08662 26.297ZM16.5959 26.302C16.3859 26.6505 16.4112 27.0268 16.4117 27.4225C16.4113 27.4917 16.411 27.5609 16.4106 27.6322C16.4102 27.7782 16.4101 27.9243 16.4105 28.0703C16.4107 28.2926 16.4088 28.5149 16.4068 28.7372C16.4066 28.8795 16.4066 29.0218 16.4067 29.1642C16.4059 29.2301 16.4052 29.296 16.4044 29.3639C16.4078 29.7907 16.4765 30.0869 16.676 30.4661C16.9602 30.7411 17.2523 30.7954 17.6381 30.7993C17.7004 30.8 17.7627 30.8008 17.8269 30.8016C17.8935 30.802 17.9602 30.8023 18.0289 30.8026C18.0982 30.8031 18.1675 30.8036 18.2389 30.804C18.3854 30.8048 18.532 30.8053 18.6785 30.8056C18.9015 30.8064 19.1245 30.8089 19.3475 30.8114C19.4902 30.8119 19.6329 30.8123 19.7756 30.8127C19.8748 30.8141 19.8748 30.8141 19.9761 30.8156C20.4036 30.814 20.7068 30.7616 21.0803 30.5461C21.4013 30.2008 21.3566 29.7809 21.3552 29.3353C21.3556 29.257 21.3561 29.1787 21.3565 29.0981C21.357 28.9328 21.3569 28.7676 21.3562 28.6024C21.3555 28.3501 21.3578 28.0981 21.3604 27.8459C21.3605 27.685 21.3605 27.5242 21.3602 27.3633C21.3611 27.2883 21.362 27.2132 21.363 27.1358C21.3582 26.687 21.3117 26.4105 21.0002 26.0618C20.7677 25.9196 20.5912 25.8808 20.3204 25.8771C20.2145 25.8752 20.2145 25.8752 20.1065 25.8732C20.0308 25.8728 19.9552 25.8723 19.8772 25.8719C19.7988 25.8712 19.7204 25.8704 19.6397 25.8697C19.474 25.8685 19.3082 25.8678 19.1425 25.8675C18.8896 25.8666 18.6368 25.8626 18.3839 25.8586C18.2227 25.8578 18.0615 25.8573 17.9003 25.8569C17.825 25.8553 17.7496 25.8538 17.672 25.8521C17.1717 25.8556 16.9336 25.9241 16.5959 26.302ZM26.2854 26.2219C26.1431 26.4544 26.1044 26.6309 26.1007 26.9018C26.0994 26.9723 26.0981 27.0429 26.0968 27.1156C26.0963 27.1913 26.0959 27.2669 26.0955 27.3449C26.0948 27.4233 26.094 27.5017 26.0933 27.5824C26.0921 27.7482 26.0914 27.9139 26.0911 28.0796C26.0902 28.3325 26.0862 28.5853 26.0822 28.8382C26.0814 28.9994 26.0808 29.1606 26.0805 29.3218C26.0789 29.3972 26.0773 29.4725 26.0757 29.5501C26.0781 29.8949 26.0878 30.1482 26.3032 30.4275C26.7301 30.809 27.0974 30.8111 27.6461 30.8105C27.7499 30.811 27.7499 30.811 27.8558 30.8115C28.0018 30.812 28.1479 30.812 28.2939 30.8117C28.5162 30.8114 28.7385 30.8133 28.9608 30.8153C29.1031 30.8155 29.2454 30.8155 29.3878 30.8155C29.4866 30.8166 29.4866 30.8166 29.5875 30.8177C30.0142 30.8143 30.3105 30.7456 30.6896 30.5461C31.0584 30.1651 31.0236 29.7145 31.0262 29.2108C31.0269 29.1095 31.0269 29.1095 31.0276 29.0061C31.0284 28.8634 31.0289 28.7206 31.0292 28.5778C31.03 28.3606 31.0325 28.1435 31.035 27.9262C31.0355 27.7872 31.0359 27.6482 31.0362 27.5091C31.0372 27.4447 31.0382 27.3803 31.0392 27.3139C31.0374 26.8364 30.9563 26.4551 30.6496 26.0718C30.427 25.9048 30.2139 25.8909 29.9462 25.8874C29.8772 25.8864 29.8082 25.8854 29.7372 25.8843C29.6257 25.8834 29.6257 25.8834 29.5119 25.8825C29.4352 25.8819 29.3585 25.8812 29.2794 25.8806C29.117 25.8795 28.9546 25.8786 28.7922 25.878C28.5443 25.8766 28.2966 25.8731 28.0488 25.8695C27.8909 25.8687 27.733 25.8681 27.575 25.8675C27.5012 25.8661 27.4274 25.8647 27.3513 25.8633C26.9043 25.8648 26.633 25.912 26.2854 26.2219Z" fill="#F53838"/>
<path d="M2.93551 0.0271996C3.02206 0.0272056 3.10861 0.0272117 3.19778 0.0272179C3.29072 0.0276312 3.38365 0.0280445 3.4794 0.0284703C3.57493 0.0285837 3.67046 0.028697 3.76888 0.0288137C4.07403 0.029262 4.37918 0.0302671 4.68433 0.0312856C4.8912 0.0316872 5.09806 0.0320526 5.30493 0.0323804C5.8121 0.0332634 6.31926 0.0346036 6.82642 0.0362905C6.82689 0.0843816 6.82736 0.132473 6.82784 0.182021C6.83297 0.683485 6.83973 1.18491 6.84743 1.68634C6.85009 1.87336 6.85234 2.0604 6.85416 2.24743C6.85685 2.5166 6.86104 2.78571 6.86552 3.05486C6.86603 3.13821 6.86654 3.22156 6.86707 3.30743C6.87587 3.74337 6.89872 4.06547 7.14673 4.44059C7.38165 4.64009 7.64821 4.75502 7.95752 4.76809C8.26271 4.7363 8.56347 4.67649 8.82837 4.52067C8.93333 4.32504 8.93333 4.32504 8.98853 4.12027C9.02816 4.041 9.02816 4.041 9.0686 3.96012C9.09503 2.66526 9.12146 1.37039 9.14868 0.0362905C15.5437 0.0362905 21.9388 0.0362905 28.5276 0.0362905C28.554 1.33115 28.5804 2.62602 28.6077 3.96012C28.6869 4.09225 28.7662 4.22438 28.8479 4.36051C28.8479 4.41336 28.8479 4.46621 28.8479 4.52067C29.1829 4.67769 29.518 4.76961 29.8889 4.7609C30.1546 4.65485 30.1546 4.65485 30.3694 4.52067C30.4222 4.52067 30.4751 4.52067 30.5295 4.52067C30.6968 4.19726 30.7797 3.93743 30.7862 3.57265C30.7878 3.49411 30.7894 3.41557 30.7911 3.33465C30.7924 3.25006 30.7937 3.16547 30.7951 3.07832C30.7976 2.94819 30.7976 2.94819 30.8002 2.81543C30.8054 2.53802 30.8101 2.26061 30.8148 1.98319C30.8183 1.79525 30.8218 1.6073 30.8253 1.41936C30.8339 0.958342 30.842 0.49732 30.8499 0.0362905C31.458 0.0281078 32.0662 0.0225337 32.6744 0.0186952C32.8809 0.0170934 33.0874 0.0149145 33.2939 0.0121263C33.5923 0.00820082 33.8906 0.00641463 34.1891 0.00500996C34.3255 0.00253013 34.3255 0.00253012 34.4647 1.91035e-07C35.7589 -0.00035523 36.7832 0.495251 37.7156 1.36915C39.4085 3.13222 38.6174 5.76062 38.6174 8.0441C25.8802 8.0441 13.143 8.0441 0.0197754 8.0441C0.0197754 1.94041 0.0197754 1.94041 1.08081 0.777013C1.59325 0.286258 2.23198 0.0255558 2.93551 0.0271996Z" fill="#F53838"/>
</svg>
