<svg width="44" height="47" viewBox="0 0 44 47" fill="none" xmlns="http://www.w3.org/2000/svg">
<path d="M17.2608 19.5095C17.906 19.7828 18.4466 20.1702 19.0038 20.5856C19.2246 20.7471 19.4455 20.9083 19.6666 21.0694C19.7632 21.141 19.8598 21.2127 19.9593 21.2865C20.0743 21.3684 20.1892 21.4502 20.3077 21.5346C20.4497 21.6631 20.5918 21.7917 20.7381 21.9241C21.6037 22.4869 22.6555 22.3637 23.6529 22.3552C24.0368 22.352 24.4204 22.3534 24.8043 22.3559C25.7582 22.3613 26.7121 22.359 27.666 22.3568C28.4721 22.3553 29.278 22.3568 30.0841 22.3622C30.4583 22.3634 30.8325 22.3604 31.2067 22.3572C33.2826 22.3683 35.1233 22.73 36.7435 24.0848C37.8042 25.1816 38.6131 26.6273 38.6054 28.1694C38.5969 28.4681 38.5873 28.7667 38.5767 29.0653C38.5723 29.3944 38.5686 29.7234 38.5655 30.0525C38.5595 30.5663 38.5501 31.0789 38.5296 31.5924C38.3874 33.7209 38.3874 33.7209 39.2923 35.5554C39.987 36.1852 40.7644 36.6597 41.57 37.1388C41.9077 37.4492 41.9077 37.4492 41.9965 37.8763C41.9948 38.0441 41.9932 38.2119 41.9915 38.3847C41.9914 38.5751 41.9914 38.7655 41.9913 38.9617C41.9875 39.1669 41.9837 39.3721 41.9798 39.5836C41.9787 39.794 41.9777 40.0043 41.9766 40.221C41.9725 40.894 41.9632 41.5667 41.9538 42.2396C41.9501 42.6954 41.9467 43.1511 41.9437 43.6069C41.9362 44.7252 41.9217 45.8431 41.9077 46.9614C39.9581 46.9614 38.0086 46.9614 36 46.9614C36 45.2712 36 43.5809 36 41.8395C35.6954 41.7187 35.3907 41.598 35.0769 41.4736C33.2321 40.0512 32.077 38.0549 31.5692 35.8029C31.5692 35.2596 31.5692 34.7163 31.5692 34.1565C26.7563 34.1565 21.9434 34.1565 16.9846 34.1565C16.9846 38.3821 16.9846 42.6078 16.9846 46.9614C15.096 46.9614 13.2074 46.9614 11.2615 46.9614C11.261 46.2078 11.2606 45.4541 11.2601 44.6777C11.2566 44.0709 11.252 43.4641 11.2467 42.8573C11.2414 42.22 11.238 41.5828 11.2393 40.9455C11.2408 40.2115 11.2333 39.4779 11.2255 38.744C11.2271 38.5192 11.2288 38.2945 11.2305 38.0629C11.2035 36.4479 10.7783 35.361 9.9692 33.9736C9.03299 32.0353 8.64008 29.8666 8.30766 27.7541C8.26744 27.5419 8.22723 27.3296 8.18579 27.111C8.1012 26.333 8.09616 25.7673 8.30766 25.0102C8.98148 24.2567 9.95962 23.842 10.8526 23.3948C11.4857 23.0636 12.0682 22.6675 12.6577 22.2663C12.8843 22.1164 13.111 21.9665 13.3377 21.8168C13.8254 21.4919 14.3072 21.1596 14.7872 20.8236C14.9117 20.7379 15.0361 20.6522 15.1643 20.5639C15.4029 20.3994 15.6399 20.2328 15.8751 20.0637C16.3426 19.7437 16.6848 19.5256 17.2608 19.5095Z" fill="#F53838"/>
<path d="M11.6308 8.36377C12.902 11.2754 14.1552 14.19 15.3231 17.1443C14.5648 17.9726 13.7215 18.5192 12.7615 19.0993C12.4484 19.2917 12.1354 19.4844 11.8226 19.6774C11.6668 19.7734 11.511 19.8694 11.3504 19.9683C10.6666 20.3948 9.9939 20.8368 9.32308 21.283C9.20935 21.3586 9.09563 21.4342 8.97846 21.5121C8.69314 21.7022 8.40809 21.8927 8.12308 22.0833C7.02106 22.8112 5.34583 22.5878 4.06154 22.4491C2.90978 22.1223 2.06809 21.5242 1.29231 20.6199C1.16285 20.4765 1.03338 20.3331 0.9 20.1854C0.319069 19.3796 0 18.6873 0 17.693C0.155037 17.6128 0.155037 17.6128 0.313206 17.5309C0.782049 17.288 1.25064 17.0447 1.71923 16.8013C1.88189 16.7171 2.04455 16.6329 2.21214 16.5462C2.36861 16.4648 2.52508 16.3835 2.6863 16.2997C2.83035 16.2249 2.9744 16.1502 3.12282 16.0732C3.8028 15.7474 3.8028 15.7474 4.17043 15.1406C4.19161 15.002 4.21279 14.8633 4.23462 14.7205C4.48134 13.4883 5.12421 12.6935 6.08438 11.9044C6.49618 11.6337 6.88375 11.4852 7.35 11.3249C8.51503 10.9067 9.27733 10.12 10.1538 9.2784C11.1833 8.36377 11.1833 8.36377 11.6308 8.36377Z" fill="#F53838"/>
<path d="M43.2973 0.0612599C43.5089 0.0846045 43.7204 0.107949 43.9384 0.132001C43.1028 1.90763 42.1674 3.49963 40.9845 5.07103C40.8103 5.30553 40.8103 5.30553 40.6326 5.54478C38.6056 8.13112 36.1323 10.5233 33.4153 12.3881C33.3109 12.4612 33.2064 12.5342 33.0988 12.6095C24.3123 18.7389 24.3123 18.7389 20.8636 18.5826C20.2029 18.3949 19.7721 18.1121 19.223 17.7044C19.0445 17.5745 18.866 17.4446 18.6821 17.3107C18.5484 17.1954 18.4147 17.0801 18.2769 16.9613C18.2769 16.8405 18.2769 16.7198 18.2769 16.5954C18.3786 16.5607 18.4804 16.5259 18.5852 16.4901C23.6057 14.7622 28.5357 12.6485 32.6769 9.27834C32.7706 9.20353 32.8643 9.12872 32.9608 9.05165C35.0327 7.3946 36.9818 5.62699 38.5615 3.49328C38.6465 3.37884 38.7316 3.2644 38.8193 3.1465C39.2036 2.61534 39.5222 2.11427 39.8105 1.52325C40.6263 -0.133846 41.587 -0.0729597 43.2973 0.0612599Z" fill="#F53838"/>
</svg>
