<svg width="38" height="34" viewBox="0 0 38 34" fill="none" xmlns="http://www.w3.org/2000/svg">
<path d="M22.7512 15.2427C22.8198 15.2967 22.8885 15.3508 22.9592 15.4065C23.0261 15.4578 23.0929 15.5091 23.1618 15.562C24.0667 16.3056 24.5821 17.297 25.0837 18.3305C25.7573 19.7158 26.6146 20.5695 27.9954 21.2656C28.7532 21.6486 29.3111 22.1029 29.9026 22.7014C29.9613 22.7592 30.0199 22.8169 30.0804 22.8765C31.2375 24.0964 31.7731 25.8109 31.7449 27.4715C31.6552 29.2725 31.0085 30.8196 29.7268 32.1057C29.6674 32.1671 29.608 32.2285 29.5469 32.2917C28.2037 33.5895 26.4005 34.0024 24.5869 33.9751C23.4819 33.9364 22.5337 33.5842 21.5288 33.149C19.9332 32.4592 18.1025 32.3717 16.4553 32.9846C16.0986 33.1285 15.7463 33.2821 15.3936 33.4354C13.81 34.1145 11.9303 34.2179 10.303 33.5998C9.50004 33.2689 8.75247 32.8669 8.10569 32.2814C8.04768 32.2315 7.98968 32.1815 7.92991 32.13C6.81104 31.1008 6.09594 29.5902 5.97685 28.0795C5.89952 26.1274 6.23488 24.3732 7.57835 22.8772C7.67437 22.7689 7.67437 22.7689 7.77233 22.6585C8.40199 21.9881 9.11926 21.5382 9.93492 21.1231C11.3394 20.4079 12.1221 19.4993 12.8353 18.1036C13.7229 16.3691 14.9569 15.0543 16.8069 14.3518C18.7638 13.7238 21.0944 14.0068 22.7512 15.2427Z" fill="#F53838"/>
<path d="M27.9583 0.751777C29.1029 1.68975 29.6425 3.06785 29.8147 4.50807C29.9703 6.81211 29.4246 9.11539 27.8941 10.891C27.0149 11.8748 25.9004 12.6951 24.5429 12.7876C23.3274 12.8054 22.4071 12.4552 21.498 11.6382C20.5699 10.6623 20.1327 9.25733 20.0588 7.93581C20.0542 7.86171 20.0495 7.78761 20.0447 7.71127C19.9724 5.44219 20.785 3.31711 22.2561 1.60768C23.7824 -0.00734657 26.0687 -0.60562 27.9583 0.751777Z" fill="#F53838"/>
<path d="M14.4641 0.819385C16.1504 2.06924 17.1166 3.84742 17.4819 5.89816C17.748 7.70453 17.5942 9.60643 16.5326 11.1496C15.8707 12.0069 15.0702 12.5663 13.9944 12.7698C12.7494 12.8916 11.6329 12.4956 10.6491 11.7425C9.01486 10.3692 8.02967 8.3013 7.84205 6.17797C7.7468 4.33156 8.05958 2.47784 9.34168 1.0549C10.8103 -0.345497 12.8481 -0.276484 14.4641 0.819385Z" fill="#F53838"/>
<path d="M6.77327 11.2124C7.14875 11.5072 7.45414 11.8739 7.75414 12.2424C7.81045 12.3109 7.86676 12.3795 7.92477 12.4501C9.1795 14.0682 9.78607 16.1209 9.53942 18.1585C9.34612 19.2789 8.91401 20.289 8.00133 21.0101C7.16743 21.5817 6.29206 21.7365 5.2932 21.6467C3.67894 21.328 2.34647 20.267 1.42636 18.931C0.320819 17.2047 -0.267634 15.2422 0.118644 13.1927C0.393863 12.0464 0.91956 11.1822 1.90255 10.5326C3.49438 9.57752 5.36722 10.2332 6.77327 11.2124Z" fill="#F53838"/>
<path d="M35.9354 10.6305C36.8974 11.3318 37.4023 12.3515 37.6005 13.5103C37.8395 15.5735 37.2569 17.6505 35.978 19.2956C35.0331 20.4146 33.8666 21.4197 32.3635 21.6467C31.2532 21.7224 30.364 21.5245 29.4631 20.8557C28.4809 19.9671 28.1219 18.6893 28.0575 17.4036C28.0532 15.3453 28.8339 13.3172 30.2871 11.8513C30.4013 11.7404 30.4013 11.7404 30.5178 11.6272C30.6102 11.5366 30.6102 11.5366 30.7045 11.4442C32.1093 10.1442 34.2312 9.55905 35.9354 10.6305Z" fill="#F53838"/>
</svg>
