<svg width="39" height="42" viewBox="0 0 39 42" fill="none" xmlns="http://www.w3.org/2000/svg">
<path d="M24.0654 1.70119C25.7083 3.30382 26.6108 5.23392 26.7006 7.52072C26.6725 9.39666 26.0558 10.961 24.8387 12.3754C24.7313 12.5363 24.6238 12.6972 24.5131 12.8629C24.6092 12.8618 24.7053 12.8607 24.8043 12.8596C25.8051 12.8488 26.806 12.8415 27.8069 12.8361C28.1803 12.8337 28.5538 12.8304 28.9272 12.8261C29.4642 12.8202 30.0012 12.8175 30.5383 12.8153C30.705 12.8128 30.8717 12.8103 31.0435 12.8077C32.1355 12.8074 32.6978 12.9199 33.497 13.6962C33.8906 14.3186 33.9958 14.8986 34.1197 15.6172C34.1462 15.7599 34.1728 15.9026 34.2001 16.0496C34.2838 16.5036 34.3638 16.9581 34.4433 17.4129C34.4949 17.7008 34.5466 17.9887 34.5983 18.2766C34.7296 19.0139 34.8573 19.7518 34.9838 20.49C35.124 21.3074 35.2657 22.1246 35.4074 22.9417C35.4359 23.1065 35.4644 23.2712 35.4938 23.4409C35.7649 25.0043 36.0438 26.5663 36.3256 28.1278C36.3485 28.2544 36.3713 28.381 36.3948 28.5115C36.5101 29.1503 36.6256 29.7892 36.7411 30.428C36.9748 31.7203 37.2073 33.0129 37.4397 34.3054C37.5142 34.7191 37.5887 35.1328 37.6633 35.5465C37.7087 35.7991 37.7542 36.0516 37.7996 36.3042C37.8201 36.4176 37.8406 36.5311 37.8616 36.648C38.4408 39.8686 38.4408 39.8686 37.9866 40.6879C37.585 41.1692 37.3257 41.4247 36.7224 41.6254C36.2584 41.6417 35.7983 41.6487 35.3342 41.6482C35.1908 41.6487 35.0474 41.6492 34.8996 41.6497C34.4171 41.6511 33.9346 41.6514 33.4521 41.6516C33.1069 41.6523 32.7617 41.6532 32.4165 41.654C31.4775 41.6562 30.5384 41.6572 29.5993 41.6579C29.013 41.6584 28.4267 41.6591 27.8403 41.6598C26.007 41.662 24.1736 41.6636 22.3402 41.6642C20.2217 41.665 18.1033 41.6678 15.9849 41.6725C14.3487 41.676 12.7125 41.6777 11.0763 41.6779C10.0984 41.6781 9.12061 41.679 8.14276 41.6819C7.22321 41.6846 6.30368 41.6849 5.38413 41.6835C5.04635 41.6834 4.70858 41.6841 4.37081 41.6857C3.91022 41.6878 3.44973 41.6868 2.98913 41.6851C2.78797 41.6871 2.78797 41.6871 2.58273 41.6891C1.59613 41.6806 1.09894 41.4429 0.369217 40.8129C-0.408064 39.4335 0.241523 37.4617 0.511659 35.9785C0.555995 35.7287 0.6002 35.4789 0.644284 35.229C0.76112 34.5692 0.879854 33.9097 0.999097 33.2502C1.09352 32.727 1.18696 32.2036 1.28037 31.6803C1.53991 30.2262 1.80209 28.7726 2.06501 27.3191C2.28369 26.1101 2.50142 24.9009 2.71898 23.6917C2.79013 23.2967 2.86153 22.9017 2.93297 22.5068C3.16895 21.2 3.39975 19.8926 3.62185 18.5834C3.68696 18.203 3.75218 17.8226 3.81743 17.4422C3.87771 17.0877 3.9363 16.7329 3.99485 16.378C4.03174 16.1625 4.06871 15.9469 4.10577 15.7314C4.13688 15.5454 4.16799 15.3594 4.20004 15.1677C4.41522 14.2914 4.74318 13.5777 5.4783 13.0149C6.15266 12.6883 6.8994 12.7654 7.63248 12.7836C7.80815 12.7847 7.98382 12.7859 8.16481 12.787C8.72386 12.7916 9.28264 12.8018 9.8416 12.8121C10.2214 12.8162 10.6013 12.8199 10.9811 12.8232C11.9105 12.8322 12.8397 12.8458 13.7689 12.8629C13.7025 12.7765 13.6362 12.6901 13.5678 12.601C13.4366 12.4287 13.4366 12.4287 13.3028 12.2529C13.2163 12.1397 13.1298 12.0264 13.0406 11.9098C12.6679 11.3894 12.3941 10.849 12.141 10.2629C12.0677 10.1039 12.0677 10.1039 11.9929 9.94172C11.3181 8.26884 11.5159 6.39786 12.0971 4.72902C12.5652 3.6451 13.2156 2.76498 14.0945 1.97541C14.2389 1.84135 14.3833 1.70728 14.532 1.56916C17.37 -0.739459 21.1999 -0.334123 24.0654 1.70119Z" fill="#F53838"/>
<path d="M26.4666 23.4255C26.9549 23.8419 26.9549 23.8419 27.2805 24.238C27.3879 24.3452 27.4954 24.4525 27.6061 24.563C27.5321 25.4493 27.5321 25.4493 27.1177 25.863C26.6802 25.9442 26.6802 25.9442 26.141 25.863C25.8155 25.6367 25.5351 25.39 25.2482 25.1171C24.7124 24.6196 24.1726 24.6717 23.4727 24.6798C22.7981 24.7524 22.4507 24.9667 21.9084 25.3755C21.1666 26.3628 21.1678 27.4317 21.2572 28.6255C21.4593 29.6405 21.8839 30.1503 22.7224 30.738C23.3792 31.0658 24.1988 30.986 24.8933 30.797C25.4806 30.6007 25.4806 30.6007 25.9782 30.2505C26.038 29.8721 26.0925 29.4929 26.141 29.113C25.9527 29.1186 25.9527 29.1186 25.7607 29.1244C25.5974 29.1273 25.4342 29.1303 25.266 29.1333C25.1035 29.1371 24.9411 29.1408 24.7738 29.1447C24.3503 29.113 24.3503 29.113 24.0247 28.788C23.984 28.3005 23.984 28.3005 24.0247 27.813C24.4301 27.4083 24.5594 27.4463 25.1184 27.4448C25.2702 27.4444 25.4219 27.444 25.5782 27.4435C25.7371 27.4448 25.8959 27.4461 26.0596 27.4473C26.2979 27.4455 26.2979 27.4455 26.541 27.4435C26.6927 27.444 26.8444 27.4444 27.0007 27.4448C27.1402 27.4452 27.2796 27.4455 27.4233 27.4459C27.7689 27.488 27.7689 27.488 28.0945 27.813C28.1764 28.3713 28.1623 28.9352 28.1657 29.4989C28.171 29.6548 28.1764 29.8106 28.1819 29.9712C28.1907 31.1155 28.1907 31.1155 27.7352 31.6362C27.3093 31.8603 26.897 32.0624 26.4462 32.2309C26.3081 32.2835 26.17 32.3361 26.0278 32.3903C24.685 32.8742 22.9793 32.9713 21.6541 32.363C20.4244 31.6244 19.6841 30.6336 19.2484 29.2742C18.92 27.7883 19.0202 26.3763 19.7921 25.0505C21.3316 22.8558 24.0203 22.2485 26.4666 23.4255Z" fill="#FCEDED"/>
<path d="M11.7544 23.1311C12.0264 23.1964 12.0264 23.1964 12.3038 23.2631C12.5077 23.6702 12.4851 23.947 12.4825 24.4019C12.482 24.5621 12.4815 24.7224 12.4809 24.8875C12.4796 25.0553 12.4782 25.2231 12.4768 25.3959C12.4761 25.565 12.4753 25.734 12.4746 25.9082C12.4726 26.3265 12.47 26.7448 12.4666 27.1631C12.5879 27.0418 12.7092 26.9206 12.8342 26.7956C13.0902 26.5404 13.3468 26.2857 13.6049 26.0326C14.1552 25.4913 14.6869 24.9426 15.1934 24.36C15.3337 24.2004 15.3337 24.2004 15.477 24.0375C15.6688 23.8133 15.8504 23.5803 16.0277 23.3444C16.5747 22.9589 17.1899 22.9931 17.8387 23.1006C17.9461 23.2079 18.0536 23.3151 18.1643 23.4256C18.1191 24.0828 17.9186 24.4 17.4514 24.8507C17.3418 24.958 17.2321 25.0654 17.1192 25.176C17.0041 25.2854 16.889 25.3949 16.7704 25.5077C16.6547 25.6202 16.5389 25.7328 16.4197 25.8488C16.1344 26.126 15.8477 26.4014 15.5596 26.6756C16.2386 27.9677 17.0504 29.1497 17.8966 30.3376C17.9962 30.4823 18.0959 30.6271 18.1986 30.7762C18.2898 30.9056 18.3809 31.035 18.4748 31.1683C18.6952 31.642 18.6494 31.8737 18.4899 32.3631C18.2232 32.6293 17.9315 32.5976 17.564 32.6272C16.7998 32.6121 16.7998 32.6121 16.4257 32.2908C16.1586 31.8946 15.9423 31.4875 15.7224 31.0631C15.5952 30.841 15.4668 30.6195 15.3377 30.3985C14.2573 28.5364 14.2573 28.5364 14.2573 28.1381C14.0469 28.3208 13.8367 28.5036 13.6265 28.6866C13.5094 28.7884 13.3923 28.8902 13.2717 28.9951C12.7181 29.4531 12.7181 29.4531 12.5792 30.1484C12.5664 30.4805 12.5581 30.8124 12.5515 31.1447C12.5325 31.6163 12.5177 31.9608 12.2536 32.3606C11.7768 32.6463 11.3549 32.4872 10.8387 32.3631C10.6365 31.9594 10.6531 31.685 10.6497 31.2333C10.6481 31.0657 10.6466 30.8981 10.6449 30.7255C10.6443 30.5438 10.6436 30.3622 10.6428 30.1751C10.6419 29.9891 10.641 29.8032 10.64 29.6116C10.6385 29.2178 10.6374 28.824 10.6368 28.4302C10.6352 27.8263 10.6302 27.2226 10.625 26.6188C10.624 26.2368 10.6231 25.8548 10.6225 25.4727C10.6205 25.2914 10.6185 25.1101 10.6164 24.9234C10.6169 24.7553 10.6174 24.5872 10.6179 24.414C10.6173 24.2659 10.6167 24.1179 10.6161 23.9654C10.6759 23.5881 10.6759 23.5881 10.8868 23.2908C11.1643 23.1006 11.1643 23.1006 11.7544 23.1311Z" fill="#FCEDED"/>
<path d="M20.6571 4.5045C21.4645 4.96884 22.1014 5.6407 22.3969 6.5256C22.5115 7.6868 22.4545 8.65526 21.7457 9.6131C21.1256 10.2779 20.4317 10.6902 19.5239 10.8052C18.4782 10.8201 17.8645 10.7376 17.0248 10.1006C16.2314 9.32973 15.8401 8.54684 15.8242 7.43966C15.8476 6.41808 16.0983 5.82644 16.8162 5.10816C17.9017 4.13714 19.2877 3.88701 20.6571 4.5045Z" fill="#FCEDED"/>
</svg>
