<svg width="44" height="41" viewBox="0 0 44 41" fill="none" xmlns="http://www.w3.org/2000/svg">
<path d="M7.68953 0C8.41777 0 9.14601 0 9.89632 0C11.1493 2.22019 12.3078 4.48605 13.4498 6.76631C14.0331 7.92721 14.6236 9.06876 15.308 10.1731C15.4982 10.5033 15.4982 10.5033 15.6679 11.0199C15.9474 11.2126 15.9474 11.2126 16.3469 11.3642C16.6243 11.4834 16.6243 11.4834 16.9073 11.605C17.9148 11.9846 18.9623 12.146 20.0178 12.3328C20.2551 12.376 20.4923 12.4192 20.7295 12.4626C22.3644 12.7585 24.0031 13.029 25.6429 13.2953C26.2608 13.3965 26.8788 13.498 27.4967 13.5994C28.1037 13.698 28.7111 13.7937 29.3185 13.8893C29.7011 13.9517 30.0837 14.0142 30.4663 14.0768C30.6385 14.103 30.8108 14.1292 30.9882 14.1562C32.4352 14.3981 33.8954 14.8296 35.0834 15.7334C35.5169 16.0587 35.5169 16.0587 36.0595 16.024C36.6767 15.7926 36.8845 15.5455 37.2266 14.9801C37.2826 14.696 37.3386 14.4119 37.3963 14.1192C38.2366 14.1192 39.0769 14.1192 39.9426 14.1192C40.0499 15.3168 39.8085 16.0821 39.0938 17.0464C38.6657 17.483 38.2163 17.8756 37.7358 18.2517C37.8041 18.4541 37.8041 18.4541 37.8737 18.6606C38.0322 19.1513 38.1892 19.642 38.3406 20.1349C38.3828 20.2714 38.425 20.4079 38.4685 20.5486C38.7085 21.4958 38.7696 22.4301 38.7949 23.4025C38.8444 25.3139 38.8444 25.3139 39.6031 27.0331C39.6814 27.1587 39.7598 27.2844 39.8405 27.4138C40.7607 28.7479 42.0799 29.7528 43.5074 30.4768C43.5074 33.7156 43.5074 36.9544 43.5074 40.2914C41.8269 40.2914 40.1463 40.2914 38.4148 40.2914C38.4148 39.4959 38.4148 38.7004 38.4148 37.8808C39.2551 37.8808 40.0954 37.8808 40.9611 37.8808C40.9611 36.4034 40.9611 34.9261 40.9611 33.404C40.4412 33.3454 40.4412 33.3454 39.9108 33.2856C37.6284 32.9459 35.8555 31.9744 34.0013 30.649C33.8864 30.5682 33.7715 30.4874 33.6531 30.4042C31.9464 29.0655 30.6548 26.9973 29.9272 24.9669C29.9272 24.8532 29.9272 24.7396 29.9272 24.6225C29.8338 24.6404 29.7404 24.6583 29.6441 24.6767C28.6496 24.8671 27.655 25.057 26.6604 25.2468C26.2919 25.3171 25.9233 25.3876 25.5548 25.4581C23.5645 25.8392 21.5734 26.2138 19.5782 26.5677C19.3282 26.6122 19.3282 26.6122 19.0732 26.6576C18.844 26.6979 18.844 26.6979 18.6101 26.739C18.4758 26.7627 18.3415 26.7863 18.2031 26.8107C17.8747 26.8609 17.8747 26.8609 17.5352 26.8609C17.5205 26.9761 17.5059 27.0913 17.4908 27.21C17.3237 28.3686 17.0539 29.4698 16.7163 30.587C16.289 32.0154 15.9303 33.4614 15.568 34.9079C15.5198 35.0995 15.4716 35.291 15.4219 35.4884C15.3793 35.6591 15.3367 35.8298 15.2928 36.0057C15.199 36.3537 15.0925 36.6982 14.9768 37.0393C14.8423 37.4635 14.7702 37.7994 14.7489 38.24C14.7428 38.3493 14.7368 38.4585 14.7305 38.5711C14.7248 38.7056 14.719 38.84 14.7131 38.9785C14.6921 39.4117 14.671 39.845 14.6494 40.2914C12.9688 40.2914 11.2883 40.2914 9.55681 40.2914C9.55681 39.4959 9.55681 38.7004 9.55681 37.8808C10.3411 37.824 11.1253 37.7672 11.9334 37.7086C11.9757 36.0771 12.0099 34.4459 12.0301 32.8139C12.0398 32.0559 12.053 31.2984 12.0742 30.5406C12.0946 29.8082 12.1057 29.0762 12.1105 28.3435C12.1139 28.0651 12.1206 27.7868 12.1308 27.5087C12.2048 25.8736 12.2048 25.8736 11.5284 24.4332C11.0429 23.9759 11.0429 23.9759 10.5324 23.6071C8.96606 22.3909 8.11493 20.0082 7.85928 18.0795C7.84564 17.6048 7.83942 17.1348 7.8427 16.6603C7.84294 16.528 7.84318 16.3957 7.84343 16.2594C7.84437 15.8401 7.8465 15.4209 7.84867 15.0017C7.84952 14.716 7.8503 14.4304 7.85099 14.1448C7.85285 13.4475 7.85578 12.7502 7.85928 12.053C7.63112 12.0719 7.63112 12.0719 7.39834 12.0912C2.79583 12.4236 2.79583 12.4236 1.5373 11.5707C0.804907 10.9193 0.119967 10.2301 0.000243056 9.2152C-0.00209858 8.83643 0.0123148 8.4693 0.0506385 8.09272C0.951458 7.59778 1.87294 7.20963 2.83035 6.84437C2.95157 6.79784 3.0728 6.75132 3.1977 6.70338C4.08144 6.37086 4.08144 6.37086 4.46422 6.37086C4.46422 6.02993 4.46422 5.68901 4.46422 5.33775C4.87419 5.22189 5.28443 5.10729 5.69493 4.99338C5.81069 4.96053 5.92644 4.92768 6.04571 4.89383C6.6211 4.73517 7.08823 4.64901 7.68953 4.64901C7.68953 3.11483 7.68953 1.58066 7.68953 0Z" fill="#F53838"/>
</svg>
